<?xml version="1.0" encoding="utf-8"?>
<!-- Generator: Adobe Illustrator 23.1.1, SVG Export Plug-In . SVG Version: 6.00 Build 0)  -->
<svg version="1.1" id="Layer_1" xmlns="http://www.w3.org/2000/svg" xmlns:xlink="http://www.w3.org/1999/xlink" x="0px" y="0px"
	 viewBox="0 0 1000 481.5" style="enable-background:new 0 0 1000 481.5;" xml:space="preserve">
<style type="text/css">
	.st0{fill:#1A0B0C;}
	.st1{fill:#6A1D0F;}
</style>
<g>
	<path class="st0" d="M434,181.3c0-6.6,7.6-25.1,10.9-30.3c0-0.2,0.9-1.7,2.6-4.7c1.7-2.8,3.3-5.7,3.8-6.6l0.5-0.9
		c0.2-0.5,0.9-1.2,1.9-2.4l0.2-1.2l0.7-0.7c0.5-0.5,0.7-0.2,0.7-0.2c0.5,0,0.7,0.2,0.7,0.5v0.2c0,0.2,0.2,0.2,0.5,0.5
		c0.2,0.2,1.4,0.2,3.1,0.2c0.2,0,0.5,0.2,0.5,0.5v0.5c-0.2,0.2-0.2,0.2-0.5,0.2l-1.2-0.2l0.7,0.9c0.5,0.2,0.9,0.5,1.4,0.5
		c1.2,0,2.1,1.9,2.1,3.1c0,0.7,0,1.2-0.2,1.4c0,0.7-0.5,1.7-1.2,2.8l-3.8,6.2c-0.5,0.7-1.7,2.6-3.3,6.2l-4.3,9
		c-1.7,3.8-2.4,5.7-2.6,5.9l-1.4,2.6c-0.5,0.7-0.9,2.4-1.4,4.7l-0.7,2.8c-0.2,0.7-0.2,1.4-0.2,1.9c0,0.2,0,0.5,0.2,0.5l0.9,0.5
		c0.2,0,0.7,0,0.9,0.2c0.5,0,1.2-0.5,1.9-1.2c0.7-0.7,2.6-1.2,6.2-1.9c1.7,0,4.5-2.6,5.7-3.8c-0.5,0-1.2,0.2-2.4,0.9
		c-1.2,0.7-1.9,1.2-2.4,1.2l-0.2-0.2c0-0.5,0.9-1.2,2.8-2.4c3.3-2.4,9-7.3,17.3-14.7l18.5-16.1h0.7l0.9,0.5c0,0.2,0,0.2-0.2,0.2
		l-0.2,0.2c-0.2,0-0.9,0.5-1.2,0.7c0,0.2,0.2,0.2,0.5,0.5l0.2,0.2c0.5,0,0.7,0,0.9-0.2l0.7-0.7c0.2,0,0.5,0.2,0.7,0.5l0.7,0.9
		c0.2,0,0.2,0,0.2-0.2v-0.2c0-0.2,0.2-0.2,0.5-0.2c0.2,0.2,0.2,0.7,0.5,1.4c0,0.9-2.6,2.8-3.3,4.5c0,0.2-0.2,0.5-0.7,1.2l-2.1,2.4
		c-1.7,1.7-2.8,3.1-3.8,4.7l-3.3,4l-5.2,5.2c-0.2,0.2-0.5,0.5-0.7,0.5s-0.2,0.2-0.5,0.5c-4,4-17.3,15.9-20.9,17.1
		c-0.2,0-0.7,0.2-0.9,0.7c-0.2,0-0.2,0-0.5,0.2c-0.2,0-1.2,0.5-1.9,0.5c-1.7,0-3.8,1.2-5.9,1.2C442.1,193.9,434,187.5,434,181.3z
		 M462.7,178l-0.5,0.9c0.2,0,0.7-0.2,0.9-0.5c0,0,1.2-1.2,3.3-2.6l3.1-2.1l15.2-14.5c1.9-1.7,2.8-2.8,2.8-3.1l5.9-5.5
		c0-0.2-0.2-0.5-0.5-0.5c-0.9,0-1.7,0.2-1.9,0.5l-6.9,5.7c-4,3.3-5.9,5.2-6.2,5.5c0,0.2-1.2,1.2-3.6,3.3
		c-10,8.8-14.9,13.3-14.9,13.5v0.2c0.9-0.2,1.7-0.7,1.9-0.9l0.5-0.2h0.7v0.3H462.7z M466.1,128c-0.2,0-0.2-0.2-0.2-0.9v-0.5
		c0-0.9-0.5-1.4-1.2-1.4c-0.9-0.2-1.4-0.5-1.4-0.5c0-2.6,2.8-10.2,4.5-11.9l4.3-8.8c0.7-0.9,1.2-1.7,1.4-2.4
		c0.2-0.5,0.5-0.7,0.7-0.7l0.7-1.4c0.2-0.9,0.5-1.2,0.7-1.2s0.2,0.2,0.5,0.7c0.2,0.7,3.3,1.9,4.3,1.9c0.5,0,0.9,0,1.7,0.2v0.2
		l-1.2,0.5c-0.7,0-0.9,0.2-0.9,0.7v0.2c0,0.2,0.2,0.2,0.7,0.2l1.9-0.2c0.2,0,0.5,0.2,0.7,0.5c0,0.2,0,0.5,0.2,0.7
		c0,0.5,0.2,0.9,0.7,0.9c0.2,0,0.2,0.2,0.2,0.5c0,3.1-9,15.2-11.1,17.8l-1.4,1.7l-1.4,2.4c-0.2,0.5-1.2,0.7-2.1,0.7L466.1,128
		L466.1,128z M467,179c1.4-1.7,2.4-2.6,3.1-2.8c1.4,0,17.1-14.5,18.5-17.1c0.2-0.5,0.5-0.7,0.7-0.7s0.7-0.5,0.7-0.7
		c-0.2,0-0.9,0.5-2.1,1.4l-0.9,0.7c-2.6,1.9-4.3,4.3-5.9,5.5c-5.7,5.5-9.5,8.8-11.4,10.2c-0.2,0-0.7,0.2-1.2,0.9L467,179z"/>
	<path class="st0" d="M492.8,198.7c-4.5,0-8.5-1.7-11.6-5.2l-2.4-2.6c-0.7-1.7-1.2-3.6-1.2-6.2c0-7.1,3.3-14.9,7.1-20.9l2.4-3.6
		c5.5-8.1,11.6-15.6,18.3-22.5l4.5-4.7c0.9-1.2,2.1-2.1,3.3-2.6l6.6-2.4l1.4-0.2c0.9-0.2,1.7-0.2,2.4-0.2c1.2,0.2,1.9,0.2,2.6,0.2
		c5.5,0,7.6,6.2,7.6,10.7c0,5.2-5.9,15.9-10.4,18.5l-11.6,10c-4.5,3.8-6.9,5.4-7.1,5.4s-1.4,0.2-2.4,1.2c-0.9,0.9-2.4,1.4-2.6,1.4
		c-0.9,0-1.7,0.2-1.9,0.5c-1.9,0-5-2.1-5.4-3.8c0-0.7-0.2-1.2-0.7-1.2c-2.4,0-5.4,14.5-5.4,16.4c0,2.6,0.5,5.2,3.6,5.2h0.7
		c3.3,0,6.6-0.9,10.2-3.1l1.7-0.7c2.6-1.2,4.7-2.6,6.4-3.8c1.2-0.9,2.1-1.4,2.8-1.4l0.5,0.2v-0.5c0.2-0.7,0.7-1.2,1.2-1.2l0.7,0.5
		v-0.2c0.2-0.7,1.7-2.1,5-4c1.7-0.9,3.3-2.4,3.1-2.1c0.7-0.2,1.2-0.5,1.4-0.5l-0.7,1.2l0.7-0.5c1.2-1.7,2.6-2.8,4-3.3h0.9
		c-1.4,1.2-2.1,1.9-2.4,1.9l-1.9,1.4c-0.7,0.2-0.9,0.5-1.2,0.5h-0.2l-0.2,0.5c0,0.2,0.2,0.2,0.5,0.2l5.7-4c3.3-2.4,5-3.8,5-4.3
		l0.2-0.7v0.5l0.9,0.2v-1.7c0.2,0,0.5,0,0.7-0.2h0.2l0.5-0.2c0.2,0,0.5,0,0.9-0.2l0.2,0.2c1.2,0,10.2-7.3,10.7-8.8
		c0.2-0.7,0.2-0.9,0.5-0.9h0.5l-0.7,0.9l0.7-0.2c3.3-2.6,5.2-4,5.7-4.7c-0.2,0-0.7,0.2-0.9,0.5c-0.2,0.2-0.7,0.2-0.9,0.2h-0.5
		c-0.2,0,0,0.2-0.7,0.9c-0.2,0.2-0.9,0.7-1.7,0.9c0.7-0.7,6.9-5.7,7.3-5.7l1.9-0.9l-1.7,1.4c-1.4,1.2-2.1,1.9-2.4,2.6
		c0,0.7-3.1,3.1-8.8,7.8c-2.8,2.4-4.5,4-4.7,5v0.2c-0.2,0.2-0.2,0.2-0.5,0.2c-0.2,0-0.2-0.5,0-0.7v-0.2c-0.2,0-0.7,0.2-0.9,0.5
		c-0.9,0.7-1.7,1.4-1.9,2.1c-0.2,0.5-0.9,1.2-2.4,1.9l0.9-0.7c0.7-0.5,0.9-0.9,0.9-1.2c-0.9,0-3.3,1.7-3.6,2.6
		c-0.2,0.7-0.7,1.2-0.9,1.4l-0.5,0.2l0.5-1.2c0.5-0.2,0.7-0.2,0.7-0.5c-1.7,0.5-2.4,0.9-2.4,1.4c0,0.2,0.2,0.2,0.5,0.5l-0.2,0.2
		c-0.2,0.2-0.5,0.2-1.2,0.2l-1.2,0.9h0.7c0,0.2-0.2,0.2-0.5,0.5l-3.3,2.4l0.7-1.2l-0.9,0.2l-1.7,2.1c-2.6,2.1-4.3,3.3-5,3.3
		l-0.2-0.5h-0.2c-0.2,0-0.2,0.2-0.5,0.5c-0.5,0.7-1.4,1.4-2.8,2.4c-1.9,1.2-2.8,1.9-2.8,1.9v0.5c0.5,0,4.5-2.1,5.2-2.6l8.1-5.2
		c0.7-0.7,1.2-0.9,1.4-0.9l3.1-2.4l4-2.4c0.5,0,0.7,0,0.9-0.2l0.2-0.5v-0.2c0.7,0,1.2-0.2,1.4-0.5l1.9-0.9c-3.3,2.6-5.2,4-5.5,4
		l0.9-1.2l-0.9,0.2c-0.7,0.7-1.2,1.2-1.2,1.4c-0.2,0.5-0.5,0.9-0.9,1.2l-0.2-0.2c-0.9,0-4.7,2.8-5.2,3.6v0.2H525
		c0,0.2,0,0.2,0.2,0.5h0.2c0,0-0.2,0.2-0.9,0.7c-0.9,0-2.1,0.7-2.1,1.7l-0.2,0.5l-0.5-0.2c-1.2,0-4.5,2.6-4.7,3.6
		c0,0.2,0.2,0.2,0.5,0.5l2.1-1.9c0.9,0,4.7-1.9,5.4-2.6l16.1-11.6c7.8-6.2,11.9-9.5,12.1-10.2c-0.2,0-1.4,1.2-3.8,2.8
		c-2.6,1.9-4,2.8-4.5,2.8c0-0.5,0.2-0.7,0.7-0.9l0.5-0.9l-0.2-0.2l0.5,0.2c0.7,0,4-2.4,4.3-3.1c0-0.9,1.7-2.8,2.6-2.8v0.5l3.3-3.6
		l1.4-0.9c7.1-4.7,10.7-8.1,10.9-9.2v-0.5h0.5c0.2,0,0.2,0,0.5-0.2v-0.2l0.5-0.5l0.5,0.5v0.2l0.7,0.7c0,0.7-0.9,1.9-2.6,3.6
		l-6.9,6.6c-1.7,1.4-3.8,4-7.4,7.1c-8.3,7.3-14.9,13-20.2,16.4c-2.6,1.7-4.3,3.3-5.7,4l-0.5,0.2c-4.5,2.4-9.5,6.4-15.9,10
		c-6.2,3.6-11.1,5.5-14.9,6.2h-4.7V198.7z M480.8,186.6l0.5-0.2l-0.5-1.9c-0.2,0.5-0.2,0.9-0.2,1.2L480.8,186.6z M481.5,177.3h-0.2
		l0.2-0.2l0.2,0.5c-0.5,0.7-0.7,0.9-0.7,0.9C481,178,481.2,177.6,481.5,177.3z M481.9,178.5c3.1-8.3,5.5-13.5,7.8-15.4l1.4-1.2
		c0-0.2-0.2-0.5-0.9-0.5c-0.2,0-0.5,0-0.7,0.2c-0.2,0-0.5,0.5-0.9,1.2l-0.9,1.7c-0.5,0.7-0.7,1.2-0.7,1.4c0,0.2-0.7,0.9-0.9,0.9
		c-0.7,0.7-1.4,2.1-2.6,5.9L481.9,178.5z M491.7,160.5c0.2-0.2,0.2-0.7,0.5-1.4c0-0.2,0.2-0.2,0.5-0.2c0.7,0,1.2-0.5,1.2-1.2
		l0.7-0.9c0.9-1.2,1.7-2.1,2.1-2.4c0.2,0,0.5-0.2,0.7-0.5c3.6-4.5,5.2-7.1,5.2-7.6v-0.2c-1.4,1.2-2.4,2.1-2.6,2.8
		c0,0.2-0.2,0.5-0.7,0.5c-0.2,0-0.5,0.2-0.5,0.5l-2.1,2.6c-3.8,4.5-5.9,7.1-6.2,8.1c0,0.2,0,0.2,0.2,0.5
		C490.9,161,491.4,160.7,491.7,160.5z M492.8,158.3c0.5,0,0.7-0.2,0.7-0.5l-0.2-0.5c0,0,0,0-0.2,0.2l-0.2,0.2L492.8,158.3
		L492.8,158.3z M495.7,165.9c0.2-0.2,0.9-0.5,1.9-0.5c0.2,0,0.5,0,0.7-0.2c0.2,0,0.5-0.2,0.9-0.5l0.2,0.2c0.2,0,0.5,0,0.5-0.2
		c0.2-0.5,2.1-2.1,5.4-5c6.6-5,10-7.8,10-8.5c0-0.2,0.5-0.7,1.7-1.4l3.3-4c3.1-3.8,4.7-7.3,4.7-10.9c0-0.7,0-1.4-0.2-1.7l0.2-0.2
		c0-0.5-0.2-0.7-0.5-0.7l-1.5,1.2c-0.2,0-0.5,0.2-0.9,0.7l-1.2,0.5l-0.7,0.9c-0.7,0.7-1.4,1.4-2.4,1.9c0,0.2-0.5,0.5-0.5,0.5
		l-3.6,3.6c-1.4,1.7-2.6,2.4-2.6,2.6c-0.2,0.5-0.9,1.2-2.1,1.9l-2.8,3.1v0.2c-0.7,0.9-1.2,1.4-1.4,1.4c-0.2,0-0.7,0.5-0.7,0.5
		c0,0.2-0.2,0.5-0.5,0.7l-1.9,2.4c-0.9,1.4-2.4,2.6-3.3,4c-2.1,2.1-3.3,4-3.6,5.2l-0.2,1.4c0,0.7,0.2,1.2,0.7,1.2L495.7,165.9z
		 M500.4,123.3l-0.9,0.2h-1.2c0-0.2,0-0.2,0.2-0.5l1.9-1.7l-0.2-0.7c0.2-0.2,1.2-0.7,1.4-0.7c0.2-0.2,0.2-0.2,0.2-0.7l7.8-3.8
		c2.1-0.9,3.1-1.9,3.1-2.6c0.2-0.2,0.9-0.7,1.7-0.9c4.7-3.1,9-6.6,12.3-9.5c0.2,0,0.9-0.5,1.2-0.7c0.9-0.7,1.9-1.7,2.1-2.4l2.6-2.1
		c0.9-0.7,1.7-1.9,1.9-2.6c0-4.3-0.2-4.3-0.5-5.5l0.5-0.2c0.5-0.2,0.9-0.2,1.2-0.2c0.2-0.2,0.5-0.2,0.5-0.5c-0.2,0-0.2-0.5-0.2-0.7
		s0-0.5,0.2-0.7c0-0.5,0-0.5,0.2-0.5h0.2c0,0.5,0,0.5,0.5,0.5c0,0.2,0.2,0.2,0.5,0.2h0.9l1.7,1.7c0.5,1.4,0.9,1.9,2.4,1.9
		s2.1,0.5,2.8,0.9l0.5,0.2c1.4,0.7,1.2,0.7,1.2,0.7v0.7c0,0.2,0,0.2-0.2,0.5c-0.2,0.2-0.2,0.5-0.2,0.9c-0.5,0-0.7,0.2-0.9,0.5
		l-0.7,1.2c-0.9,1.7-1.7,2.1-2.1,3.1v0.9l-0.2,0.7l-0.2-0.5c-0.2,0-0.2,0-0.2,0.5c0.2,0.2,0.2,0.2,0.2,0.5v0.5c0,0,0.2-0.2,1.2,0.7
		c0.2,0.7,0.5,1.9,0.5,3.8l0.2,2.6l1.4,6.2l-0.2,4.7l-0.5,0.9c-0.7,0-1.4,0-2.4,0.5l-0.5-0.5h-2.4c-0.5,0-0.7,0-0.9-0.2
		c0-0.2,0-0.5-0.2-0.5c-0.5,0-0.9-0.5-1.2-0.9c-0.2-0.2-0.7-0.2-1.2-0.2s-0.7-0.2-0.7-0.7v-1.4c0-0.2-0.5-1.2-0.5-1.4
		c-0.2-0.5-0.2-0.9-0.2-0.9c-0.2-0.7-0.2-1.4-0.2-1.7l0.2-2.1v-0.3c-0.2,0-0.2-0.5-0.2-0.9c0-1.7,0-2.8,0.2-3.1
		c-0.2,0-0.7,0.2-1.7,1.2l-3.1,2.1c-2.8,2.1-4,3.1-4.5,3.1l-0.9,0.7c-0.9,0.2-1.4,0.7-2.4,1.4c-4,2.4-7.8,4-10.9,5l12.3-6.4
		c3.1-2.1,5-3.6,5.2-4.3v-0.2h0.5c0,0,0-0.5,0.5-0.7l1.9-1.7c0-0.2,0-0.2,0.2-0.5V106c-0.5,0.5-1.9,1.7-4.3,3.3l-4,3.1h-0.2
		c-3.3,1.4-5.7,2.8-6.9,3.6c-0.5,0.2-2.8,1.4-8.3,3.8c-3.1,0.9-5.5,2.6-6.6,2.8L500.4,123.3z M502.8,145.5l0.2,0.2
		c0.9-0.9,1.4-0.9,1.9-2.6l-0.5,0.2L502.8,145.5z M513.9,154.6l0.2-0.2c0.9,0,7.1-6.4,8.1-7.6l1.4-1.7c2.8-3.3,4-6.6,4-10.2v-1.4
		c-0.2-0.2-0.2-0.9-0.2-0.9c-0.2-0.2-0.2-0.5-0.5-0.5h-0.5c0.2,0.2,0.2,0.5,0.2,0.7c0,0.7-0.2,1.7-0.5,2.6v0.7
		c-0.5,2.4-1.2,4.5-1.9,6.4l-1.9,2.8c-3.1,3.6-5.2,5.9-6.4,6.9L513.9,154.6z M513.9,187.3h0.5l0.9-0.5v-0.5h-0.7l-0.7,0.7V187.3z
		 M525.3,174.7c0.2-0.2,0.5-0.5,0.5-0.5c0.2-0.2,0.5-0.5,0.5-0.7c0.2-0.2,0.2-0.2,0.5-0.2c0,0.2-0.2,0.7-0.7,0.9L525.3,174.7z
		 M527.2,107.8c0.5,0,0.5,0,0.5,0.2l-0.9,0.2L527.2,107.8z M527.7,174.7l-0.2-0.2h0.5l0.2,0.2l0.9-0.9c-0.2,0.7-0.5,1.2-0.9,1.2
		C527.9,174.9,527.7,174.9,527.7,174.7z M528.2,107.6c-0.2,0-0.5,0-0.5-0.2l0.9-0.2L528.2,107.6z M533.2,168.3v0.7l-2.1,1.7
		c-0.7,0.7-1.7,1.2-2.8,1.2L533.2,168.3z M532.9,105l0.5-0.2v0.5l-0.5,0.5V105z M534.1,104.3c0.2-0.2,0.7-0.2,0.9-0.2l-0.9,0.7
		V104.3z M535.5,168.1h0.2c0.2,0,0.7,0,1.2-0.7l0.2-0.5l-1.2,0.2L535.5,168.1z M538.8,165.2l-0.9,0.2l-0.2,0.5L538.8,165.2z
		 M540.3,90.5l-0.7-1.7c-0.2-0.7-0.9-1.2-1.4-1.2v0.5c0,0,0.7,0.9,0.9,1.2c0,0.5,0,0.5,0.2,0.7L540.3,90.5z M539.8,169.7
		c0.2-0.2,0.7-0.5,0.7-0.5c0.2,0,0.5-0.2,0.7-0.5l0.5-0.5V168h-0.2L539.8,169.7z M542.2,167.8c0,0,0.5-0.5,0.7-0.5l0.5-0.5v-0.5
		c-0.5,0.5-1.2,0.7-1.9,0.7c0-0.2,0.2-0.7,0.9-0.9c0.7-0.2,1.2-0.7,1.4-1.2c0-0.5,0.5-0.7,0.9-0.7c0.2,0,0.2,0,0.5-0.2v0.2l-1.4,1.7
		v0.2l0.7-0.2c0.2,0,0.5,0,0.5,0.2l-0.9,0.9c-0.5,0-0.9,0.2-1.4,0.7L542.2,167.8L542.2,167.8z M542.6,162.1c0-0.2,0-0.2-0.2-0.2
		l-0.7,0.9L542.6,162.1z M543.8,161.2c0.2-0.2,0.5-0.5,0.5-0.5c0.2,0,0.5-0.2-0.2-0.2l-0.5,0.2L543.8,161.2z M546.4,158.8
		c0.2,0,0.2-0.2,0.5-0.5v-0.7c0-0.2,0-0.2,0-0.2l-0.7,1.2v0.5L546.4,158.8z M547.1,162.9l1.4-1.4c0.7-0.7,1.4-0.9,1.7-0.9
		c0,0.2-2.4,2.4-2.8,2.4h-0.3V162.9z M550.7,104.3c0-0.7,2.8-2.8,8.5-6.6c3.6-3.1,7.6-5.5,11.6-8.1l0.9-0.9c0,0,0.5,0.5,0.7-0.2
		c0.2-0.5,0.7-0.5,0.9-0.7l1.2-0.7c0.5-0.2,1.7-0.9,3.6-2.4c1.2-0.9,2.1-1.4,2.8-2.1c2.8-1.7,4-3.1,4-3.8c-5.7,0-9,0-9.2,0.2
		c0,0.2-0.9,0.2-2.1,0.2c-1.2,0.2-1.4,0.2-1.7,0.5c0,0-0.7,0.2-2.6,0.2l-3.8,1.2h-1.2l-1.7,0.5c-0.2,0.2-0.5,0.2-0.9,0.2
		c-0.5,0-0.2-0.2-0.7-0.7l-0.5-0.5l0.7-2.4l0.9-1.2c0.2-0.5,0.2-0.7,0.5-1.2l0.2,0.2c0.2,0,0.2,0.2,0.5,0.2V76
		c2.1,0,3.3-0.2,4.5-0.7h-3.6l3.8-0.2l0.2-0.2c1.4-0.2,2.8-0.5,3.8-0.5l2.8-0.5c0.7,0,2.8-0.2,5.9-0.2c2.8,0,4.5,0.2,5,0.5l0.2-0.2
		c1.4,0,4.3,2.1,4.3,3.8V78c0,0.5,1.9,1.2,0.5,2.8c-1.9,2.8-5,5.9-10.7,10c-4.5,2.6-7.1,4.5-7.6,4.5c-0.7,0.5-1.2,0.5-1.4,0.5
		c0,0.2-0.5,0.7-1.2,0.9c-0.7,0.7-0.9,1.2-1.2,1.2c0,0-0.7,0-1.4,0.9c-1.4,0.9-2.1,1.2-3.1,1.7c-0.5,0.2-0.9,0.5-1.4,1.2h-0.2
		c-0.2,0.5-0.5,0.5-0.5,0.5l-2.1,1.4c-0.9,0.9-1.9,1.7-3.1,2.1c0-0.5-1.9,0.7-2.6,1.2l-2.4,1.7v-0.2c0.9-0.5,1.4-1.4,2.8-2.4
		c0.9-0.7,1.9-1.4,2.6-1.9c3.8-3.1,5.9-4.3,6.2-4.3c0,0,0.5,0,0.7-0.5c1.2-0.5,1.4-0.5,1.7-0.7c0-0.2,0.2-0.5,0.5-0.7h0.7
		c0.7-0.7,1.4-1.2,1.9-1.4c0.9-0.5,1.2-0.7,1.4-0.9c0.2,0,0.9-0.7,1.9-1.4c0.9-0.7,1.2-0.7,1.4-0.7h0.5l0.2-0.2c0-0.2,0-0.5,0.5-0.7
		s0.5-0.2,0.7-0.5v-0.6l0.5,0.2c0.2-0.5,0.5-0.5,1.2-0.9c0.7-0.5,1.2-0.7,1.4-0.9h-0.5c-0.2,0-1.9,0.9-1.9,0.9
		c-0.2,0.5-0.5,0.5-0.7,0.5h-0.2c-0.5,0.5-0.9,0.7-0.9,0.9c-0.5,0-0.9,0.2-0.9,0.5l-2.4,1.4c0,0.2-0.5,0.2-0.9,0.2
		c-0.2,0.2-0.5,0.9-0.9,0.9l-1.9,1.4c-3.8,2.1-6.2,4-7.3,5.2l-0.7,0.2c-0.2,0-5.2,3.3-7.3,4.7c-1.2,0.7,0.7-1.2,0.5-1.2
		s-0.5,0.2-1.2,0.7l0.5-0.5c0.5-0.5,0.9-0.9,1.2-0.9h0.5v-0.3c0.2,0,1.7-0.9,1.9-1.2c2.4-1.7,2.1-0.9,3.1-2.4
		c-0.2,0.2-0.5,0.5-0.7,0.7l0.7-0.7c0.9-0.9,1.9-1.2,2.6-1.2v-0.5l0.2-0.2v-0.2c0.2,0,0.5-0.2,1.4-0.7c0.5-0.2,0.7-0.5,0.9-0.5
		c0.7,0,0.7-0.2,0.7-0.7c0.2-0.2,1.2-0.7,2.6-1.4l-0.9,0.9c0.7-0.7,1.2-0.9,1.4-0.9c0-0.2,0.2-0.7,0.5-0.9c0.9-0.5,1.4-0.9,1.9-0.9
		c0.2-0.7,0.5-0.9,1.4-0.9c0.7-0.5,1.2-0.7,1.4-0.9c0.5-0.5,0.9-0.7,0.9-0.7c0.5,0,0.7-0.2,0.7-0.5c0.2-0.2,0.2-0.5,1.2-0.7
		l-0.5,0.5v0.2c0.2,0,0.5-0.2,0.5-0.5c0.2-0.5,0.2-0.5,0.5-0.7h0.2v-0.7h0.5c0-0.2,0-0.2,0.5-0.2c0.2,0,0.2-0.2,0.2-0.5h0.7
		c0,0,0.2-0.2,0.2-0.5c0.2-0.2,0.5-0.5,0.9-0.5c0.7,0,3.6-2.4,3.6-3.1c0-0.2-0.2-0.2-0.2-0.2c-0.7,0-2.6,1.4-6.4,4h-0.5
		c-0.7,0-1.2,0.2-1.2,0.5c0,0.2,0,0.2,0.2,0.2l-0.2,0.2c-0.7,0.9-1.2,1.2-1.7,1.2c-0.7,0.2-1.2,0.5-1.7,0.9
		c-0.5,0.5-0.9,0.7-1.2,0.7h-0.2c-0.5,0.2-0.7,0.5-0.7,0.7l-0.7,0.5c-0.5,0.5-0.7,0.7-0.9,0.7v-0.7l-0.2,0.5v0.2
		c-0.2,0.2-0.5,0.2-0.9,0.2l-0.5,0.5v0.2c-0.2,0.2-0.5,0.2-1.2,0.2c-0.2,0.5-2.1,2.1-2.8,2.4l-0.2-0.2c-0.2,0.2-0.5,0.7-0.9,1.2
		h-0.5c0,0.2-0.2,0.7-0.9,0.9l-0.9,0.2c-0.2,0-0.2,0-0.2,0.2H558l0.2-0.5l-0.7,0.7c0.2,0,0.2,0,0.2,0s0,0-0.2,0l-0.2,0.5
		c-0.2,0.2-0.5,0.7-1.2,1.4c-1.2,0.9-1.9,1.7-1.9,1.7c-0.2,0-0.5,0-0.9,0.2l-1.4,1.2l-0.7,0.2l-0.2,0.2l-1.2,0.7
		c0-0.2,0.2-0.2,0.2-0.5C550.2,104.3,550.5,104.5,550.7,104.3z M550.9,104.8c0.7-0.7,1.7-1.2,2.1-1.4l2.4-1.9
		c0.5-0.7,1.2-1.2,1.4-1.4c0.2-0.2,0.5-0.2,0.5-0.5c-0.5,0.2-1.2,0.7-2.6,1.9c-2.8,2.4-4.5,3.6-5,3.8L550.9,104.8z M552.6,156.2
		c0.2,0,0.7,0,0.9-0.2l-0.9,0.9c-0.2,0.2-0.5,0.5-0.7,0.5C551.9,157.4,551.9,156.4,552.6,156.2z M556.4,152.2
		c1.2-0.7,1.7-1.2,1.7-1.2h-0.2L556.4,152.2z M559.2,100.7c0,0,0.2-0.5,0.9-0.7l-0.9,0.9V100.7z M564,144.8c0.2-0.2,0.2-0.2,0.2-0.2
		l0.7-0.7c-0.2,0.2-0.2,0.2-0.5,0.2c-0.2,0.2-0.5,0.2-0.5,0.2c-0.2,0.2-0.2,0.2-0.2,0.5v0.2L564,144.8z M566.6,77.3
		c0,0-0.5,0.5-0.7,0.5l3.3-0.7c0.7-0.5,0.9-0.5,1.2-0.5c1.2-0.2,1.7-0.2,1.9-0.2c0-0.2,1.4-0.5,4.5-0.9h1.9c0.7,0,1.2-0.2,1.7-0.2
		h0.2c0,0.2,0.2,0.2,0.2,0.2c0.2,0,0.7-0.2,0.7-0.5c0-0.2,0-0.5-0.7-0.5h-0.5c-0.9,0-1.4,0-1.4,0.2s0,0.2-0.5,0.2h-0.2v-0.5h-0.7
		c0,0.5,0,0.5-0.2,0.7c-0.5,0-0.5,0-0.5-0.2h-0.2l-0.5-0.7c0,0.5-0.2,0.7-0.5,0.7h-0.9v0.2c-0.5,0-0.9,0.2-1.4,0.2
		c-1.2,0-3.1,0.5-5,0.7c-0.5,0-1.4,0.2-2.6,0.5V77l2.6-0.7L566.6,77.3z M565.6,94.3c0,0,0,0,0.2-0.2L565.6,94.3z M570.4,93.4
		c0.2-0.2,0.5-0.7,0.9-0.7c0,0.2,0,0.5-0.5,0.7H570.4z M574.6,77.7h-0.5c0-0.2,0.2-0.5,0.5-0.5V77.7z M576.3,77.7
		c0.9,0,3.1-0.2,5.9-0.5c1.2,0,1.7-0.2,1.9-0.2c0-0.5-0.5-0.7-1.9-0.7c-0.7,0-2.4,0.5-4.7,0.7c-1.7,0.2-2.1,0.2-2.1,0.5L576.3,77.7z
		 M586.5,75.1c0-0.2-0.5-0.2-0.7-0.2h-0.5l-0.2-0.7c-0.2,0.5-0.2,0.7-0.5,0.7v-0.2c0-0.2,0.2-0.5-0.9-0.5c-0.9,0-1.7,0.2-1.9,0.9
		c0,0,0.7,0.2,2.1,0.2C585.6,75.4,586.3,75.1,586.5,75.1z M582.5,75.1c0,0,0-0.2,0.2-0.7c-0.2,0-0.2,0.2-0.2,0.5h-0.2L582.5,75.1z
		 M587.9,75.8c-0.5-0.5-0.7-0.5-0.7-0.7l0.2-0.2c0.7,0.2,0.7,0.5,0.7,0.7v0.2H587.9z"/>
	<path class="st0" d="M545,194.6c-0.2-1.2-0.5-1.7-0.7-1.7s-0.5,0.2-0.7,0.7l-0.2,0.2c-0.2,0-0.2-0.2-0.5-0.5l-1.2-2.6
		c0-0.2-0.5-0.7-1.2-0.9c-0.7-0.2-0.9-0.5-1.2-0.9c-0.2-0.5-0.2-1.2-0.2-2.4l1.9-6.4c2.8-5.7,10.2-17.3,22.3-34.9
		c4-5.9,7.4-11.1,9.7-15.6c1.7-3.1,3.3-5.5,4.5-7.1l3.3-3.6c1.7-1.2,2.6-1.9,2.8-1.9s0.5,0,0.5,0.2l-0.2,0.2l0.5,0.5v0.2h0.2
		l-0.2-0.7c0.5-0.7,0.7-1.2,0.9-1.2s0.5-0.2,0.5-0.5l-0.2-1.4c0.2-0.2,0.5-0.5,0.7-0.5l2.4,0.9c0.2,0,0.7-1.2,1.4-1.2l0.7,0.7
		c0.2,0.2,0.7,0.5,1.2,0.5l0.7-0.2v0.2c0.5,0.7,0.9,0.9,1.7,1.2c1.2,0.2,1.9,1.7,1.9,4.3c0,2.1-1.2,5.9-2.1,7.6
		c-0.7,1.2-1.9,2.8-4,5.2c-3.6,4.3-6.4,8.3-8.8,12.1c-0.5,1.2-1.7,2.6-3.3,4.3c-1.7,2.6-4.3,5.9-7.6,10l-7.8,11.6
		c-1.9,2.8-2.8,4.5-3.3,5.2l-1.4,2.1v0.5h0.2c0.7,0,8.1-6.6,22.5-20.2l5.9-5.5c3.8-3.8,23.5-23,28.5-23.5l2.1-0.2
		c1.2,0,1.7,0.2,1.7,0.9l-0.2,1.9v0.2h0.2l2.1-0.2c0.7,0,0.9,0.2,0.9,0.5c0,0.7,0.2,1.2,0.7,1.4c0.5,0,0.7,0,0.9,0.2l0.2,0.7
		c0,0.2,0,0.5,0.2,0.7l0.7,0.7c0.2,0.2,0.2,0.5,0.2,0.9c0,1.4-0.5,4-0.9,7.8l-0.9,6.2c-1.2,5-2.8,10.9-5,17.3v1.2
		c0.2,0,0.9-0.5,1.9-1.4c1.4-1.7,3.1-3.1,4.7-4.3c2.1-1.7,3.6-2.8,4.5-3.8c0.7-0.7,1.2-1.2,1.4-1.2s0.7-0.2,1.4-0.9l12.6-10.7
		c2.1-1.2,3.8-1.9,5-2.1c1.2,0,2.1,0,2.6,0.2c0.2,0.2,0.5,0.5,0.5,0.7v0.9h-0.5c-0.2,0-0.5,0-0.5,0.2l0.2,0.5
		c0.2,0.5,0.5,0.7,0.7,0.7l2.4-0.5c0.2,0,0.5,0.2,0.5,0.5c0,0.2,0,0.5,0.2,0.7c0.2,0,0.5,0.2,0.5,0.5c0.5,0.2,0.9,1.4,1.2,3.1
		c0.2,0.2,0.2,0.7,0.2,0.9c0,1.2-0.2,2.1-0.5,3.1c-0.2,0.2-0.2,0.5-0.2,0.7c-0.5,2.1-1.2,4-1.7,6.2l-2.4,9c0.2,0.2,0.2,0.5,0.5,0.5
		h0.5c0.9,0,2.1-0.9,4.3-2.4c1.7-1.2,2.6-1.9,3.1-1.9c0.2,0,0.7,0,0.9-0.2l3.8-2.4c4.7-3.1,8.5-5,11.1-6.2l4.3-2.8
		c2.4-1.2,3.8-1.9,4.5-1.9h0.2c0.2,0,0.2,0,0.2,0.2l-0.2,0.2c0,0.2-0.2,0.7-0.5,0.9c-0.2,0.5-0.5,0.9-0.5,1.2c0,0.2-0.2,0.5-0.9,0.7
		s-1.2,0.7-1.2,0.9c0,0.2-0.5,0.5-1.4,1.2l-4,2.6c-0.7,0.7-1.2,1.2-1.2,1.4c0.2,0,2.4-1.4,5.9-3.8l4.3-2.8v-0.5h-0.5
		c0-0.7,3.1-2.1,3.8-2.1l0.2,0.5c-0.2,0.2-0.7,1.4-0.9,2.1l-2.4,2.8c-0.9,1.2-1.9,2.4-3.1,3.6c-1.2,1.2-1.9,1.7-2.4,1.9
		c-0.7,0.2-2.8,1.7-6.4,4.3c-5,3.6-8.1,5.4-9.2,6.2c-2.8,1.7-4.7,2.8-5.5,3.6c-1.2,0.9-3.3,1.4-6.2,1.4c-2.1,0-3.6-0.2-4.3-0.5
		l-2.1-1.7h-0.5c-1.2,0-2.8-3.3-2.8-5.9c-0.2-1.9-0.2-3.3-0.5-4l-0.2-0.9l0.2-0.2v-0.5l-0.5-0.2c-0.2,0-0.2,0-0.2-0.2v-0.2h0.2
		c0.5,0,0.7-0.2,0.9-0.9l-0.2-0.2l-0.5,0.2c-0.2,0-0.2-0.2,0-2.8v-3.1l-20.2,19.2c-1.9,1.9-3.6,2.8-4.7,2.8c-0.5,0-0.7-0.2-0.9-0.7
		V182H617l-1.7,0.9c-0.5,0-0.9,0-1.7-0.7l-0.7-1.2c-0.2-0.5-0.2-0.9-0.5-1.2c-0.7-0.9-1.4-1.4-2.1-1.7c-2.8,0-3.6-7.3-3.6-9.2
		c0-1.2,0.9-5.7,2.8-13.5c1.4-6.2,2.1-10,2.1-11.4c0-0.5-0.2-0.7-0.5-0.7c-4.7,3.1-13.5,10.9-26.1,23l-24.4,23.2
		c-2.1,1.9-3.6,3.3-4,4.3c-0.2,0.5-0.7,0.9-1.7,1.2c-0.7,0.2-1.7,0.5-3.1,0.9c-1.4,0.5-2.6,0.7-3.8,0.7
		C546.7,197,545.3,196.3,545,194.6z M541.9,185.6c0.7-3.1,1.7-5.2,2.4-5.9c0-0.2,0.7-1.2,0.7-1.4v-0.2c0.2-0.9,0.7-1.9,1.7-2.8
		c0.9-0.9,1.4-1.7,1.4-2.4l5-7.8c0.2-0.7,0.5-1.4,0.7-1.7c0.2-0.2,0.5-0.7,0.5-1.2c0.2-0.5,0.9-1.7,2.6-3.8l0.7-0.9
		c0.5-0.7,1.2-2.1,1.4-2.4c0.5-0.9,0.7-1.4,0.7-1.7c0.2-0.5,0.5-0.7,0.9-0.7c0.2,0,0.9-0.5,1.2-1.4c0.2-0.7,1.4-2.1,2.6-4l4.3-6.6
		c1.4-2.4,2.1-3.8,2.1-4.5c0-0.2,0-0.2-0.2-0.2l-7.6,12.1c-0.7,1.2-1.4,0.7-1.7,1.7l-1.2,1.9c-0.5,0.9-2.1,2.6-3.8,5.7l-7.8,12.1
		c-2.1,3.1-8.3,13.5-8.3,17.1c0,0.7,0.2,0.9,0.7,0.9C541.2,187.3,541.7,186.8,541.9,185.6z M545.3,182.3l2.1-3.3
		c1.7-2.6,3.1-5.2,4.7-7.8l1.9-3.1c0.5,0,1.2-0.9,2.1-2.6c1.2-2.4,2.1-4.3,3.1-5.5l3.1-4c3.8-5,5.2-8.1,5.2-8.5v-0.2h-0.2l-8.5,12.1
		c-2.4,3.3-12.8,19.2-13.5,22.5L545.3,182.3L545.3,182.3z M546.4,186.8c0.2,0,0.7-0.7,1.4-2.4c2.1-3.6,3.1-5.7,3.6-6.9h0.5
		c0.2,0,0.7-0.2,0.9-0.5v-0.2l-0.2,0.2h-0.7c2.8-4.7,4.5-7.1,5-7.1l0.7-0.9c0,0,0-0.2,0.2-0.7c0.2,0,0.2,0,0.5-0.2v-0.2
		c0-0.2,0.2-0.2,0.2-0.5c0-0.7,0.9-1.7,1.9-3.1l1.4-1.9v-0.2c0.5-0.9,1.9-3.3,4.3-6.9l1.7-2.6c1.4-2.1,2.1-3.1,2.4-3.3
		c0.7-0.5,0.9-0.9,0.9-1.4c0-0.2-0.2-0.5-0.5-0.5c-1.2,0-3.6,2.6-7.1,8.1l-10.7,16.1c-3.3,5-5.2,8.1-5.7,9.2l0.2,0.2l0.9-0.7
		l0.2,0.2l-0.9,2.6c-0.7,1.2-1.4,2.6-1.7,3.8C546.2,187,546.2,187,546.4,186.8z M569,176.4l-0.7,0.2l-0.7,0.9v0.2
		c0,0.2,0,0.2,0.2,0.2L569,176.4z M568,175.7h0.7c0.7,0,1.4-0.2,1.9-0.9c0.2-0.5,0.5-0.7,1.2-0.7c1.7,0,2.4-0.9,2.8-2.4
		c0-0.2,0.2-0.9,0.2-0.9c1.4,0,2.8-1.2,3.3-2.6v-0.9l0.2,0.2c1.2,0,8.3-6.9,9.2-7.8l1.7-2.4c0-0.5,0.2-0.7,0.5-0.9
		c0.2-0.2,0.5-0.2,0.5-0.2l-0.7,0.9l0.2,0.2c0.5,0,1.9-1.7,4.7-4.3l3.6-3.3c5-4.7,7.6-7.3,7.6-8.1v-0.5l0.2-0.2l0.9,0.2
		c0,0,0.2,0,0.7-0.2l0.9-0.5c0.7-0.2,0.9-0.9,1.4-1.2l1.4-1.2l1.7-2.1v-0.2c0-0.5-0.2-0.7-0.5-0.7c-0.2,0-0.7,0.2-0.9,0.5
		c-0.2,0.7-1.9,1.4-3.8,3.1c-1.4,1.2-4.3,3.6-8.5,7.6c-4,3.8-6.2,5.7-6.6,5.7h-0.2v0.2c0.2,0.2,0.2,0.5,0.2,0.7
		c0.2,0,0.2,0.7,0.2,0.7c-0.5,0-0.9,0.5-1.7,0.7c-0.7,0.2-2.4,1.7-5,4c-0.5,0-1.4,0.2-2.1,1.7l-0.7,1.4l-0.5,0.2
		c-0.5,0-11.4,10.4-12.6,12.1c-0.9,1.2-1.7,1.7-1.9,1.7L568,175.7z M572.5,144.8l0.9-1.4H573c-0.5,0.2-0.7,0.7-0.9,1.2L572.5,144.8z
		 M616.6,165.9l0.5-0.2c0.2,0,0.2,0,0.5-0.2l0.2-0.2c0-0.2-0.2-0.2-0.7-0.2c-0.2,0-0.5,0.2-0.5,0.5V165.9z M635.8,163.6l0.9-0.5
		c0-0.2,0.2-0.2,0.5-0.5c0.2-0.2,0.2-0.2,0.2-0.5l-1.4,0.7c-0.2,0.2-0.2,0.2-0.5,0.7L635.8,163.6L635.8,163.6z M646.7,176.4
		c0-0.2-0.5-0.7-1.7-1.4l0.7,0.7c0.2,0.7,0.7,0.9,0.9,0.9L646.7,176.4L646.7,176.4z M647.7,179.4v-0.2c0-0.5,0-0.7-0.2-0.9l-0.7-0.5
		l-0.8,0.7c0,0.2,0.5,1.2,0.7,1.2c0,0.2,0,0.5,0.2,0.5S647.4,179.9,647.7,179.4z"/>
	<path class="st0" d="M710.8,212.4c-0.5-0.2-0.7-0.5-0.9-0.5s-0.5,0.7-1.2,0.7s-1.2-0.5-1.2-1.2c0-0.2,0-0.7-0.2-0.9l-0.7,0.7
		c-0.7,0-0.2-3.3-0.9-4.5v-0.2c0.2,0,0.5-0.5,1.2-1.4l5.2-11.4c0.2-0.7,1.7-2.8,3.8-6.9l6.6-11.9c0.5-0.7,2.8-5.2,7.6-13
		c5-8.3,7.6-12.3,7.8-12.3l-0.2,0.2c-0.2,1.2-3.6,6.4-9.5,16.8l-5.5,9.5c-1.7,3.1-2.6,4.7-2.6,5l-3.6,5.9c0,0.2-0.2,0.5-0.5,1.2
		l-5,10.2v0.2c0,0.7,0,0.7,0.7-0.5l2.6-5.2c0.2,0,0.2-0.2,0.5-0.5l-0.2-0.7l0.5-0.7c0.5-0.9,1.2-1.7,2.1-3.1
		c0.5-0.7,0.7-0.9,0.7-1.2l0.7-1.9c0.7-0.9,0.9-1.4,1.2-1.4l0.2,0.2l-2.8,5.5c0,0.5,0,0.7,0.2,0.7c0,0.5,0.2,0.5,0.5,0.9
		c0.2,0,0.7-0.2,0.9-0.9c0-0.7-0.5-0.5-0.9-0.9c0.5-1.2,1.9-2.8,3.3-5l1.4-2.1v-0.2l-0.9,0.5l1.2-1.2c0.2,0,0.2,0,0.2-0.2
		c-0.9,0-2.4,1.4-2.4,2.1c-0.2,0.2-0.2,0.2-0.5,0.2l-0.2-0.7l2.4-3.6c0.7-0.7,1.2-1.4,1.4-1.9l-0.7,2.8l0.5-0.5l0.5,0.2
		c0.5,0,0.9-0.2,0.9-0.9h-1.2l0.2-0.2c0-0.5,0.7-0.9,1.2-0.9c0.2,0,0.5-0.2,0.7-0.9l-0.5-0.5l0.5-0.9c0.5-0.7,0.9-0.9,1.2-0.9
		c0.5,0,0.7-0.2,0.7-0.5l-0.5-0.9c0.2-0.5,0.7-1.2,1.7-1.9l1.7-1.4h-0.5c-0.2-0.2-0.2-0.5-0.2-0.9c0.5,0,0.7,0,0.7,0V168
		c0-0.5,0.2-0.7,0.5-0.7s0.5-0.2,0.7-0.5l-0.2-0.5h-0.5v-0.2c0-0.2,0.2-0.5,0.5-0.5c0-0.2,0-0.5,0.2-0.7c0.2,0,0.2-0.2,0.2-0.5h0.7
		c0-0.2-0.2-0.2-0.5-0.5h-0.7c0-0.2,0.2-0.5,0.5-0.5c0.5,0,0.7,0,0.7-0.2c0.5-0.9,0.9-1.4,1.2-1.4l0.2,0.5h0.9
		c0,1.2-0.9,3.3-1.9,4.3l-0.2,0.7l-1.2,1.2l0.5,0.9h-0.7c-0.2,0-0.2,0.2-0.5,0.7l-2.4,4.5c-0.7,1.2-1.4,1.9-1.7,2.1l-0.9,1.7
		c-0.5,0.7-0.7,0.9-0.7,1.2h0.5c-0.2,0.5-0.7,1.2-0.9,2.1h-0.2c-0.5,0.5-0.5,0.7-0.5,1.2c0,0,0.2,0,0.5,0h0.2v0.5
		c-0.2,0.2-0.2,0.5-0.5,0.5c0,0.2,0,0.2-0.2,0.5v-0.9c0-0.2-0.9-1.2-2.8,2.6l-0.7,1.4l0.2,0.2h0.5c-1.9,3.1-2.6,3.6-3.1,4.7
		c-0.2,0.7-0.7,1.7-1.7,3.1l-0.7,1c-0.2,0.2-0.5,0.5-0.5,0.7v0.5c0,0,0.2,0,0.2,0.2v0.9l2.6-4.5c0.5-0.7,0.7-1.2,0.7-1.4
		c0.5-1.2,0.7-1.9,0.9-2.1l1.2-1.7c0,0,0,0,0.2,0.2c0.2,0,0.5-0.2,0.7-0.5l-0.5-0.7l1.4-2.1c0,0,0,0.2,0,0.5c0,0.2,0,0.5,0.2,0.5
		l0.7-0.5v-0.2h-0.2v-0.5c0,0,0,0,0.2-0.2l0.5,0.5l0.2-0.5c0-0.7,5.2-10.4,5.7-11.1c0.7-1.7,1.2-2.6,1.2-3.1l0.2-0.2v0.2
		c0.2,0,0.2-0.2,0.5-0.5c0,0,0.2-0.7,0.5-0.9c0.2-0.5,0.2-0.7,0.2-0.9c0-0.2,0.2-0.5,0.7-0.5c0.2,0,0.5,0.2,0.5,0.5
		c-0.9,1.4-2.1,4.3-2.6,6.2v0.5h-0.5l-0.5,1.4h-0.2c-0.2,0-0.2,0.5-0.5,1.2l-0.5,0.9c-0.7,0.5-1.4,1.4-2.4,2.8l-1.4,3.6
		c0,0.5,0,0.7,0.2,0.7s0.5-0.2,0.7-0.7l-0.5-0.5h-0.2l1.7-0.9l-0.2-0.2l-0.5,0.2c0.2-0.7,0.2-0.9,0.5-0.9c0.5,0,0.7,0,0.7-0.2
		c0.2,0,0-0.5,0.5-1.7c0.2-0.5,0.2-0.7,0.5-0.7c0.2,0,0.5,0,0.5,0l0.2-0.2c0-0.2,0-0.2,0.2-0.5h0.2c0.2,0,0.2,0.2,0.2,0.7l-1.9,3.1
		c0.2,0.2,0.5,0.2,0.7,0.2v0.5c0.5,0,3.3-5.2,8.8-15.9c2.1-4.3,3.3-6.4,3.6-6.4c0.2,0,0.2,0,0.5-0.2l-0.7-0.5
		c0.2-0.2,0.5-0.5,0.7-0.5c1.2,0,1.7-2.8,1.7-3.8c-0.2,0-1.2,1.2-2.4,3.3c-0.5,0.9-0.7,1.4-0.9,1.4c0.5-1.7,0.7-2.8,0.7-3.1v-0.5
		c0.5-0.2,3.1-4.5,3.3-5.2l0.2-0.9c0,0-1.4,1.4-1.7,1.4l-0.7,0.5h0.7l-0.2,0.2c0,0.2-0.2,0.7-0.5,0.9l-3.3,5.7
		c-2.1,4.5-3.6,6.6-4.5,6.9v-0.5l1.7-3.8c0.2,0,0.9-0.9,1.7-2.6c0.9-2.6,1.9-4.3,2.8-5c0.2-0.7,0.2-1.4,0.2-1.7
		c-0.2-0.2-0.2-0.2-0.2-0.2c-0.2,0-1.2,1.2-2.4,3.8c0,0.7-0.2,0.9-0.9,0.9l-0.2,0.7c-0.5,1.2-0.9,1.9-1.7,1.9
		c-0.5,0-1.2-0.5-1.2-0.9h0.7v-1h0.5L735,160c0.2,0,0.5-0.2,0.5-0.5c0-0.5,0.5-0.7,1.2-0.7l-0.5-0.2c0,0,0-0.2-0.2-0.5l1.7-4.3
		c-0.2,0.9-0.5,1.4-0.5,1.7c0,0.5,0,0.7,0.2,0.7l0.5-0.2l0.5,0.2c0.2,0,0.2,0,0.2-0.2l0.2-0.2v-0.9c-0.2-0.2-0.2-0.5-0.2-0.5v-0.9
		c0-0.9,0.2-0.9,0.5-0.9h0.5v0.2l-0.5,1.4c0,0,0.2-0.2,0.7-0.7l0.9-1.4c0-0.2,0.5-0.9,0.5-0.9H741l-0.7,0.7c-0.2,0-0.2,0-0.2-0.2
		v-0.2c0-0.2,0.7-1.2,1.4-1.2v0.5c0.2,0,0.5-0.5,0.7-1.7s0.7-1.9,0.9-2.4c0.2-0.7,0.9-0.5,0.9-0.2v0.7c0.2,0,0.7-0.5,0.9-1.2
		l0.2-0.5V145h-0.2l-0.5,0.9c-0.2,0-0.2-0.2-0.2-0.9l-0.2-0.5c0.7-0.7,1.4-0.5,1.4-0.5v-0.2c0,0,0,0,0.2-0.2l0.5-0.5
		c0-0.2,0-0.2,0.2-0.5h-0.5c-0.2-0.5-0.2-0.5-0.2-0.7l-4.5,6.2c0.2-0.2,0.5-0.9,0.7-1.7c1.2-1.7,1.9-3.1,2.4-3.8
		c0.5-0.2,0.9-0.7,1.2-1.4l0.2-0.2h0.5c0.2,0,0.2-0.2,0.5-0.5h0.9l-0.2-1.4c1.2-1.7,1.4-2.1,1.7-2.1l0.2,0.5l0.7-2.6l-1.2,1.7
		c0-0.9,1.2-2.4,1.9-2.8l0.5-0.2c-0.2,0-0.5,0-0.5-0.2v-0.9c0-0.2,0-0.2,0.2-0.2v-0.5c0.5-0.2,0.9-1.2,1.2-2.4l1.2-2.1
		c0,0,0,0-0.2,0v-0.2l-0.2-0.2c0-0.5,0.5-0.7,0.7-0.7h0.2c0.2,0,0.2,0,0.2,0.2l-0.2,0.2h0.2c0.2,0,0.5-0.2,0.5-0.5
		c0.2-0.2,0.5-0.9,0.5-1.2l0.5-0.9l0.5,0.2l0.5-2.1c0.2,0,0.9-1.9,0.9-2.4c-0.9,1.2-1.4,0.5-1.7,2.4c-0.2,0.2-0.2,0.7-0.5,1.2
		c0,0-0.2,0.5-0.2,0.7v0.2h-0.5c-0.7,0-0.9,0.2-0.9,0.9c-0.9,0.5-2.8,4-3.1,4.5c-0.2,0.9-0.5,1.4-0.7,1.4c-0.5,0-1.9,2.4-1.9,2.8
		c0,0.7,0.2,0.7,0.2,0.7c-0.9,0-1.7,0.5-1.9,1.4c-0.2,0.2-0.2,0.2-0.5,0.2l3.1-5.9l4.3-6.9c0-0.2,0-0.2,0-0.2h-0.7v-0.5l2.1-3.3
		l0.2,0.2c-0.7,0.9-1.2,1.9-1.4,2.6v0.2c0,0,0,0,0.2,0l0.7-0.2l0.5,0.2v0.2c0,0,0,0,0.2,0v0l-0.2-1.2l1.2-3.3c0,0.2-0.2,0.5-0.5,0.5
		s-0.2,0-0.2-0.2l3.1-5.5c0.2,0,0.2,0,0.5-0.2l-0.5-1.2c0.2-0.7,0.5-1.7,1.2-2.4c0.7-0.9,1.2-1.7,1.2-2.1v-0.5
		c0.2-0.9,0.2-1.7,0.5-1.9h-0.5c0,0,0.2-0.9,0.2-1.4c0.2-0.7,0.2-1.2,0.5-1.4c0-0.2,0.2-0.5,0.5-0.7l0.5-0.9l0.7-3.3V97h-0.7
		l-0.2-0.7c0.2-0.7,0.5-1.4,1.2-2.1l0.7-2.1h-0.5c0,0,0-0.2,0-0.5c0-0.5-0.5-2.8,1.2-6.2c0.2-0.5,0.2-0.7,0.2-0.7
		c0-0.2,0-0.5-0.2-0.7v-0.2l0.5-1.2v-0.5c-0.2,0-0.2,0-0.2-0.2l0.2-0.9c0.2-0.7,0.2-1.2,0.2-1.2l-0.2-0.2l0.2-0.9
		c0-1.2-0.5-2.6-0.5-3.3c0-5-1.9-8.8-5-11.9c-1.2-1.2-2.1-1.7-2.4-1.7c-0.5,0-1.7-0.7-3.6-1.9c-4.5-2.8-7.6-4.3-8.8-4.3
		c-6.9,0.7-12.6,1.4-17.1,2.4l-9.2,2.1c-2.1,0.5-3.6,0.9-4.7,0.9c-0.9,0-1.7-0.2-2.6-1.2c-0.7-0.7-1.7-2.1-3.3-4.5v-0.5
		c0-0.2,0.2-0.9,0.9-1.7l0.5-1.2h-0.7c-0.5,0-0.9-1.4-0.9-1.9c0-0.2,0.2-0.5,0.7-0.5h0.5l0.2-0.2v-0.5c0.2-1.2,3.3-2.1,9.2-3.3
		c2.1-0.2,4-0.5,5.9-0.5l0.2,0.2c0,0.2-0.2,0.2-0.5,0.2c-0.2,0.2-0.5,0.2-0.9,0.5c-0.2,0-0.2,0.2,0,0.2c0.2,0.2,0.2,0.2,0.5,0.2
		c0.5,0,0.9,0,1.7-0.2l1.4,0.9c0.2,0,0.5,0,0.7-0.2v-0.2h-0.5l0.7-0.2c5.5-1.9,9-2.8,10.7-2.8c0.7,0,0.9,0.2,0.9,0.5l0.9-0.2
		c0.5,0,1.4-0.2,2.4-0.7c0.7,0,1.7-0.2,2.8-0.5c0.9-0.2,1.7-0.2,1.9-0.2l0.7,0.2c-0.2,0.2-0.5,0.2-0.7,0.2l0.7,0.5
		c0,0.2-0.2,0.2-0.5,0.2l-0.7,0.2H746l-0.2,0.2l2.1,0.2c0.2,0,0.5-0.2,0.5-0.5l0.2-0.2c0-0.2,0.2-0.2,0.5-0.2
		c0.2,0.2,1.2,0.5,2.4,0.5h1.9c0.7-0.2,1.4-0.2,1.7-0.5c0.2-0.2,0.5-0.2,0.5-0.2v-0.2c0-0.2-1.2-0.2-3.3-0.2h-3.6
		c0.2-0.2,1.7-0.5,4.3-0.9l9.5-1.7c2.6-0.2,7.8-1.4,9.7-1.7c2.8-0.2,4.3-0.5,4.3-0.7l4-0.5c5.5-0.7,8.3-0.9,8.5-0.9
		c6.4-0.2,11.9-0.9,12.1-0.9l0.2,0.2c0.2,0,0.5-0.2,0.7-0.5c0.2-0.2,0.5-0.5,0.9-0.9c0.2-0.2,3.6-0.9,4.3-0.9c0.2,0,0.5,0,0.5,0
		c0,0.2,0,0.2,0.2,0.5l0.5,0.5c0.2,0,0.2,0,0.5-0.2l0.2-0.2c0.2,0,0.5,0,0.7,0.2c2.1,0,6.4-0.2,12.8-0.5c9.5-0.7,15.6-0.9,18.3-0.9
		c2.1,0,3.3,0.2,3.3,0.5c-1,0.2-1.7,0.2-2.1,0.2l0.9,0.5l-0.5,0.2c0,0-0.7-0.5-0.9-0.5s-0.9-0.2-0.9-0.2h-3.3
		c-1.7,0.2-2.6,0.2-2.8,0.5l-5,0.5v-0.2c-1,0.5-3.8,0.7-4.5,0.7h-3.8l-0.5-0.5v0.5l-0.2,0.2c0,0,0,0-0.2,0h-0.7
		c-0.2,0-0.2-0.2-0.5-0.5c-0.7,0-1.2,0.2-1.7,0.5c-0.7,0.2-1.2,0.2-1.4,0.2l-0.7-0.5l-0.5,0.2c0,0.2-0.2,0.2-0.9,0.2
		c-0.2,0-0.7,0-1.2-0.2l-0.5,0.7c0,0.7,0,0.9,0,0.9c0,0.2,0.2,0.5,0.5,0.5l1.4-0.2l0.2,0.2c-0.5,0.5-0.7,0.5-1,0.5
		c0,0.2,0.2,0.2,0.5,0.2c0.2,0.2,0.7,0.5,1.4,0.5l0.5-0.5v0.7c0,0.2-0.5,0.5-1.2,0.5c-1.2,0.2-1.7,0.7-1.9,0.9v0.2
		c0,0.2,0.2,0.5,1,0.7c0.7,0,1.2,0.2,1.2,0.5l-0.5,0.2h-1l-0.7,0.2c0.7,0,1.4,0,1.9-0.2c0.5,0,0.9-0.2,1.2-0.7
		c1.2,0,1.9-0.2,2.4-0.2l1.7-0.2v0.2c0,0,0,0,0.2,0.2h0.2c0,0.2,0.5,0.2,1.7,0.5c2.6,0,3.8-0.2,4-0.9c0-0.2,0.5-0.5,1.2-0.5l2.1,0.2
		c-0.2,0-0.5,0-0.5,0.2s0,0.5-0.2,0.5h0.7c0.2,0,0.5-0.2,0.5-0.5v-0.2h-0.2c1.7,0.2,3.6,0.5,5.9,0.5h1.4c0.2,0,0.7-0.2,1.4-0.9v0.2
		l0.2,0.2c0,0.2,0,0.2,0.2,0.2c0.5,0,0.5,0,0.7-0.2c0.2-0.5,0.2-0.5,0.5-0.7c0.2,0,0.2,0,0.5,0.2v0.2c0,0.2,0.7,0.2,2.1,0.2
		c-0.2,0-0.9,0-0.9-0.2c-0.9,0-1.2-0.5,0.9-0.5c1.2,0,1.9,0,1.9,0.2l-0.2,0.2c0,0.2,0.2,0.2,0.5,0.2h0.9c0.5,0,0.7,0,0.9,0.2
		l0.5,0.2c0.2,0.2,0.2,0.2,0.2,0.5v-0.2l1.7-1.2c0.5-0.2,0.9-0.5,1.4-0.5c0.2,0,0.2,0,0.2,0.2v0.5c0,0,0.2,0,0.5,0
		c0-0.2,0-0.2,0.5-0.7l11.4,0.2v-0.5h0.5v0.5l7.3,0.5c0,0.2,0,0.2,0,0.2c0.5,0,0.5,0,0.7-0.2h0.7l0.5,0.2v-0.2
		c0.7,0.2,1.4,0.2,1.9,0.2c1.2,0,1.7-0.2,1.7-0.5h-1.7c0,0,0,0,0-0.2l2.4-0.2l16.1,0.5h11.1l14.7,0.5c0-0.2-4-0.9-12.1-2.1
		c-8.3-0.9-14.9-1.4-19.4-1.4c-1.9,0-3.1,0.2-3.8,0.5c-4.5,0-7.4,0-8.8-0.2h-6.9c-2.8,0-4.7,0-5.7-0.2c-1.7,0-2.4,0-2.4,0
		c0.2-0.2,0.9-0.2,2.4-0.5h2.4c5.9,0,9.3,0,10-0.2c0.9,0,1.7,0,2.1-0.2v-0.5c0.7,0,0.9,0,1.2,0.2c0,0.5,0,0.7,0.2,0.9l2.4-1.2
		l0.2,0.2l-0.5,0.5c0,0,0.5,0,1.2,0.2l1.2,0.2l2.8-0.2l-0.2-0.2H885l-0.7-0.2c-0.2,0-0.5,0-0.5-0.2l0.5-0.2l2.8,0.2h23.7
		c2.8,0.2,4.3,0.2,4.5,0.5l0.2,0.2c0.7,0,1.2,0,1.2-0.2c0-0.7,0-0.9-0.2-0.9s-0.2,0-0.2-0.5l-12.8-0.5c-3.6,0-5.4-0.2-5.4-0.5
		c0.5-0.2,7.3-0.5,20.6-0.5l-0.2,0.2h0.9c1.7,0,3.1,0.7,4.3,1.9v0.5l-2.1-0.2v0.2c0.2,0.2,0.5,0.5,0.5,0.5c0.2,0,2.4,0.9,2.4,1.2
		l-0.7,0.5c0,0.7,0.2,1.7,0.9,2.8l0.7,1.4c0.2,0.7,0.2,1.4,0.2,1.7c-0.2,0.5-0.7,0.9-1.4,1.4v-0.2c-0.7,0.2-2.4,0.2-5.2,0.2
		c-4.7,0-11.9,0-21.3-0.2c-16.4-0.5-31.1-0.7-44.3-0.7c-11.2,0-20.9,0-29.2,0.7s-13.3,1.7-14.5,3.1l-5.5,9.5
		c-5.2,8.3-8.1,12.6-8.3,12.8c0,0-0.5,0.5-0.7,1.2s-1.4,2.4-2.1,3.1l-3.8,6.4c-1.7,2.8-3.1,4.7-3.8,5.5c-0.2,0.2-0.2,0.5-0.2,0.9
		c-0.7,0.2-1.9,1.9-3.6,4.5c-3.3,5-6.9,11.6-11.6,19.2l-3.1,5c0,0.2,0,0.5-0.2,0.7c-0.5,0-0.7,0.5-0.7,1.2l-0.2,0.5
		c-0.5,0.2-0.5,0.2-0.7,0.2l-0.7,1.7c-0.2,0.2-0.2,0.5-0.7,1.2l-0.9,1.4c-0.7,1.7-1.4,2.6-2.4,2.6c-0.2,0-0.5,0-0.5-0.2v-0.2
		c0.7-1.7,1.7-3.3,2.6-5l0.5-0.7c1.7-2.6,2.4-4,2.4-4.7l0.2-0.5c-0.2,0-0.7,0-0.9,0.2v0.5c-0.2,0-0.2,0-0.2,0h-0.2v0.5
		c-0.2,0.2-0.2,0.2-0.2,0.5c-0.2,0.5-0.2,0.5-0.5,0.5l0.5,0.9l-0.5,0.7c-0.2,0.2-0.5,0.5-0.7,0.5l-0.5,0.2v-0.5
		c-0.2,0-0.2,0.5-0.9,1.4l-1.2,1.7l-0.2,0.9c-0.5,1.7-0.9,2.4-1.2,2.4h-0.5v0.2h0.2l0.2,0.2c0,0.2-0.2,0.5-0.5,0.7
		c-0.7,0.5-0.9,1.2-1.4,2.1l-0.5,1.2l1.2-1.4h0.2v0.2l-0.9,1.9c-1.2,4.3-2.6,6.9-3.8,7.8c0,0.5,0,0.9-0.2,1.4v0.2l-0.9,0.9
		c0.2,0.2,0.2,0.5,0.2,0.7v0.7c-0.2,1.2-0.7,1.9-1.4,1.9l0.2-0.7c-0.2,0-0.2,0.2-0.5,0.5c-0.5,0.7-0.7,0.9-0.7,0.9l-0.5,0.7
		c-0.2,0.2-0.2,0.5-0.2,0.5l-0.2,0.2c0.2,0,0.5-0.2,0.9-0.5l0.7-0.5h0.2c0,0,0,0.5-0.5,1.4l-2.1,4.7c-0.5,0.9-0.7,1.4-0.9,1.4
		c-0.2-0.5-0.2-0.7-0.2-1.2V150l-0.9,1.2c-0.9,1.2-1.2,1.9-1.2,2.4v0.7c0,0.2,0.2,0.5,0.7,0.7v-1.2l-0.2-0.7l0.2-0.5l0.2,0.9
		l0.9-0.2v0.2c0,0.2-0.5,1.2-1.2,3.1l-0.9,2.1c-0.9,2.1-2.8,5-4.5,8.5l-1.7,2.8v1.2l-0.7,1.4l-0.9,0.9c-0.2,0-0.5,0.2-0.7,0.9
		c-1.9,2.6-2.8,4.5-2.8,5.5c-0.2,0.7-0.5,1.2-0.9,1.7L716,209.8l0.5-0.2c-0.2,0.2-0.2,0.2-0.2,0.5l-0.7,0.7
		c-0.2,0.2-0.5,0.5-0.5,0.5l-0.2-0.2l0.2-0.5c0,0-0.2-0.2-0.7,0.2l-1.4,1.4h1.2c-0.2,0.9-0.9,1.2-1.7,1.2
		C712.2,213.4,711.7,212.9,710.8,212.4z M707.4,199.8l-0.7,3.3c-0.7,1.9-0.9,2.8-1.2,2.8L707.4,199.8z M708.9,203.2l1.7-3.6h-0.2
		l-0.5,0.7c-0.2,0.2-0.5,0.9-0.5,1.7L708.9,203.2z M712.4,190.6c-0.2,1.2-0.5,1.9-0.7,2.1c-0.7,0.9-0.9,1.4-1.2,1.4L712.4,190.6z
		 M712.4,202.7l-0.7-0.7v0.2l0.5,0.5H712.4z M713.1,198.9c0,0-0.2,0.2-0.5,0.2c-0.2,0.2-0.2,0.7-0.2,0.9c-0.2,0.5-0.2,0.7-0.2,0.9
		c0.2,0.2,0.2,0.5,0.2,0.5L713.1,198.9z M712.9,189.2c0.2,0,0.2,0,0.2,0v0.5c0,0.2-0.2,0.2-0.5,0.2L712.9,189.2z M715.5,195.8
		l0.2-0.2v-0.2H715c0-0.2,0.2-0.5,0.5-0.7l0.7-0.7c0.2-0.2,0.5-0.2,0.5-0.5c-0.5-0.2-0.7-0.2-0.7-0.2l0.2-0.2v-0.6
		c0-0.2,0-0.2-0.2-0.2l-0.5,1.4v0.2c0,0,0,0,0.2,0l-1.7,1.7l0.2,0.2c0.2,0.2,0.2,0.2,0.5,0.2C715,196,715.3,196,715.5,195.8z
		 M714.6,197.9l0.5-0.7l-0.2-0.5c-0.2,0-0.2,0.2-0.2,0.5L714.6,197.9L714.6,197.9z M714.6,200.3l0.5-0.5v-0.5h-0.2L714.6,200.3z
		 M719.1,196.8c-0.5,0-1.4,1.2-1.4,1.7c0,0.2,0,0.5-0.2,0.5L719.1,196.8z M719.3,200.1v-0.2c-0.7,0-1.7,1.4-1.7,2.1
		C717.9,202,718.6,201.3,719.3,200.1z M720.2,176.4l0.5-0.2c-0.5,0.9-1.2,1.9-1.9,2.6L720.2,176.4z M720,195.1l1.4-1.9
		c0-0.2,0.5-0.7,0.5-0.9v-0.5c0,0-0.2,0.2-0.7,0.7c0,0-0.2,0.5-0.9,1.4l-0.5,1.2L720,195.1L720,195.1z M720.5,199.1l1.4-2.1l0.9-2.1
		c-0.2,0-0.2,0-0.2-0.2s0-0.2,0.2-0.5l0.2-0.2c0.2-0.2,0.2-0.5,0.2-0.7c0.2-0.2,0.2-0.2,0.5-0.2l0.2,0.5c0.2,0,0.2-0.5,0.5-1.2
		c0.2-1.4,0.5-2.1,0.7-2.1l0.5,0.9c0-0.2,0.2-0.7,0.2-0.7v-0.7l0.9-0.7c0-0.2,0-0.2-0.2-0.5l-0.2-0.2c0.2,0,0.7-0.2,0.9-0.5
		c0.2,0,0.5-0.2,0.7-0.7l0.5-0.9v-0.7l-0.7,0.5l-0.2-0.2l0.7-0.9l-0.2-0.2l-1.2,2.1c-4.3,7.6-6.6,11.1-6.6,11.9l0.7-0.5v0.2
		L720.5,199.1L720.5,199.1L720.5,199.1z M722.1,190.1l0.2-0.5c-0.2,0-0.5,0.2-0.5,0.5H722.1z M722.1,192.7l0.2-0.2
		c0.2,0,0.2,0,0.2,0v-0.2c0-0.2,0-0.2,0-0.2c-0.2,0-0.2,0-0.5,0.5L722.1,192.7L722.1,192.7z M724,188.7h-0.5l-0.2,0.2l-0.2-0.5
		l-0.2,0.5c0,0.9,0.5,1.4,0.7,1.4c0.5,0,0.9-0.5,0.9-0.9C724.5,189.2,724.3,188.9,724,188.7z M725.2,168.3l-1.2,1.4
		c-0.2,0.2-0.2,0.2-0.5,0.2L725.2,168.3z M724,184.9c-0.2-0.2-0.2-0.2-0.2-0.5l0.5,0.2l0.7-0.5c0,0.2,0,0.2-0.2,0.5
		c0,0.2-0.2,0.5-0.5,0.5L724,184.9z M725.2,186.6v-0.5c0,0-0.2-0.2-0.7,0.7l-0.2,0.5c0,0.2,0,0.2,0.2,0.2L725.2,186.6z M724.5,175.9
		c0.2-0.7,0.5-1.4,1.2-1.9l0.2,0.2L724.5,175.9z M725.2,188.2l0.2-0.9c-0.5,0.5-0.5,0.5-0.5,0.7L725.2,188.2z M725.2,167.4
		c0,0,0,0,0.2-0.2l0.5-0.5v0.5c0,0.2,0,0.5-0.2,0.5c-0.2,0.2-0.2,0.2-0.5,0.2V167.4z M726.6,172.3v-0.5l0.9-1.2l-0.2,0.2
		c-0.2,1.2-0.5,1.7-0.9,1.7L726.6,172.3z M726.6,182.3l0.9-2.1l-0.7,0.9L726.6,182.3z M727.4,46.7l-0.5,0.2L727.4,46.7z
		 M728.1,162.4l0.9-0.9v0.2c0,0-0.2,0.2-0.2,0.5c-0.2,0.2-0.2,0.2-0.5,0.2L728.1,162.4L728.1,162.4z M729.5,46.7l1.7-0.5
		c-1.2,0-1.9,0-1.9,0.2L729.5,46.7z M730.4,165.9l-0.2-0.2c0.2-0.7,0.7-1.2,0.9-1.2h0.5L730.4,165.9z M730.4,178.5c0,0,0,0,0.2-0.5
		h0.2l0.5-0.5c0-0.2,0.2-0.9,0.7-1.9c1.2-2.1,2.1-3.1,2.4-3.1c0.2,0,0.2,0,0.2,0.2l-0.2,0.9h0.2l0.2-0.2l-0.5,0.5
		c-0.7,0.7-1.7,1.4-2.4,3.1s-1.4,2.4-1.7,2.4v-0.9H730.4z M730.7,158.8v-0.2l0.7-1.2h0.2L730.7,158.8z M730.9,180.9h-0.2v-0.5
		l0.5-0.7c0-0.2,0.2-0.2,0.5-0.2l0.2,0.5L730.9,180.9z M731.2,174.5v-0.7c-0.2,0-0.2,0.2-0.2,0.7H731.2z M732.3,177.8l-0.2,0.9
		L732.3,177.8z M732.6,174l-0.2-0.5c0-0.2,0-0.2,0.2-0.2V174z M734.5,50c5.5-0.5,11.1-1.2,17.5-2.1l15.9-2.1
		c4.7-0.7,7.3-0.9,7.6-0.9v0.9v-0.5c0.5-0.7,1.4-0.9,2.8-0.9l1.2,0.2v0.2L780,45l0.2-0.7c0.2-0.2,1.9-0.5,4.7-0.5
		c5,0,7.6-0.2,8.1-0.9l0.5-0.2c0,0,0.2,0,0.5,0.2l0.5,0.2c0,0.2,0,0.2,0,0.2c0.2,0,0.2-0.2,0.5-0.5c0.2-0.2,0.5-0.2,0.7-0.2
		l-0.7,0.9c1.2,0,1.7-0.2,1.7-0.5v-0.2l-0.2,0.2h-0.2v-0.5h1.7c0.7,0,1.4-0.2,1.9-0.9v-0.5c0-0.5-0.2-0.7-0.5-0.7l-0.7,0.2
		c-0.7,0.2-1.2,0.5-1.4,0.5c-9,0-21.6,1.2-30.3,2.8c-0.2,0.2-2.8,0.7-7.8,1.2l-10.7,1.2c-0.2,0-0.7,0-1.7,0.2
		c-1.4,0.5-4,1.2-7.6,1.9c-3.8,0.7-5.7,1.2-5.9,1.4h1.2V50z M733.8,154.1h-0.2v-0.2l0.7-1.2L733.8,154.1z M734.9,151.7h-0.5l0.7-0.7
		h0.2L734.9,151.7z M734.7,171.9v-0.2c0-0.7,0.5-1.7,1.2-2.4l1.2-2.1c1.4-3.6,2.4-5.2,2.8-5.2l0.2,0.5l-0.5,1.7v0.7
		c0,0.2-0.2,0.2-0.5,0.5c-0.5,0.2-0.7,0.5-0.9,1.2l-0.2,0.2v0.2h0.5v0.7c-0.2,0-0.7,0.2-0.9,0.5L734.7,171.9z M734.7,169.2l0.7-0.9
		c0.2,0,0.2,0,0.2,0.2c0,0.5-0.2,0.9-0.7,0.9L734.7,169.2z M735.2,46c0.2,0,0.5,0,0.7-0.2s0.5-0.2,0.9-0.2h0.9c0.2,0,0.2,0,0.2-0.2
		s-0.2-0.2-0.5-0.2c-0.2,0-0.7,0-0.9,0.2c-0.2,0-0.7,0-1.2,0.2c0,0-0.2,0.2-0.5,0.5L735.2,46L735.2,46z M737.6,148.6l0.5-0.5
		c0.7-0.7,1.2-1.4,1.7-1.7h0.2l-0.7,1.2l-0.9,0.7c-0.2,0.2-0.2,0.2-0.5,0.2L737.6,148.6L737.6,148.6z M738.7,160.5l0.2-0.9h-0.2
		l-0.2,0.7L738.7,160.5z M738.7,45c-0.2,0-0.5,0.5,0.2,0.5C739.2,45.5,741.1,45,738.7,45z M738.7,144.6l0.7-0.7v0.5
		c-0.5,0.5-0.5,0.7-0.7,0.7V144.6z M739.7,145.5c0.2-0.7,1.4-2.8,3.8-6.4l0.9-1.4c0.5-0.7,0.7-1.2,0.9-1.2l0.2,0.5v0.2l-1.2,1.7
		c-0.9,1.2-1.2,1.9-1.7,2.1l-0.7,2.1c-1.2,1.7-2.1,2.6-2.4,2.6v-0.2H739.7z M741.3,140.3l0.2,0.2L741.3,140.3z M741.8,149.1h-0.5
		v-0.7c0.2,0.2,0.2,0.2,0.7,0.5L741.8,149.1z M741.6,152.7c0.5,0,0.7-0.5,0.7-1.4v-0.5c0,0,0,0-0.2,0l-0.7,1.2L741.6,152.7z
		 M742.3,160.2l0.2-0.9c0.2-0.7,0.5-0.9,0.9-0.9L742.3,160.2z M744,44.8l0.7-0.5c0-0.2,0-0.2,0-0.2h-0.5c-0.7,0-0.5,0.5-0.5,0.5
		l-0.9-0.2l-0.2,0.7c0,0,0,0,0.2,0L744,44.8z M744,156.9c0.2,0,0.5-0.2,0.7-0.5v-0.5c0,0-0.2,0-0.7,0v0.7V156.9z M744.2,151.2
		l0.5-0.5c0-0.2,0-0.2-0.2-0.2L744.2,151.2z M745.1,149.8v-0.5c0-0.2-0.2-0.5-0.5-0.5l-0.2,0.2l0.5,0.7L745.1,149.8L745.1,149.8z
		 M747,144.6c0.2-0.2,0.2-0.7,0.5-1.2l-0.5-0.2l-1.2,2.8c0,0.2,0.2,0.5,0.7-0.5L747,144.6z M746.6,139.8l-0.2-0.2l0.5-0.7
		c0.2-0.2,0.2-0.2,0.2-0.2v0.2L746.6,139.8z M746.8,136.5l-0.2,0.2L746.8,136.5z M747.3,145.5l0.2-0.2v-0.5c-0.2,0-0.5,0.2-0.7,0.5
		L747.3,145.5z M776.2,82.9c3.6-4.5,9.2-14,16.6-28.7c1.2-2.4,2.1-3.8,2.4-4l0.2,0.2c0.5,0,0.7-0.7,0.7-2.1l-1-0.2
		c-4,0-24.4,2.4-27.7,3.6c-0.2,0-3.8,0.5-10.2,1.7c-6.6,1.2-10,1.7-10.2,1.7c14.7,1.2,22.5,7.3,23.5,18.3v3.3c0,3.1-0.2,5.9-0.9,9
		l-1.7,6.9c-0.5,1.2-0.7,2.1-0.7,2.6l-0.9,4.3c0,0.2,0,0.2,0.2,0.2C767,99.5,770.3,94.1,776.2,82.9z M747,131.1l0.7-0.9l0.2,0.2
		c-0.5,0.5-0.5,0.7-0.7,0.7L747,131.1L747,131.1z M747.5,148.9c0-0.5,0.2-0.9,0.7-0.9l0.5-0.5c0.2,0,0.2,0,0.2-0.2l-0.5-0.7
		c-0.5,0-1.4,2.6-1.4,3.1C747,149.3,747.5,148.9,747.5,148.9z M748,136.1h-0.2c-0.2,0-0.2,0-0.2-0.2h-0.2v-0.5
		c0-0.2,0.2-0.2,0.7-0.2c0.2,0,0.2,0.2,0.2,0.5L748,136.1z M747.5,138h-0.2l0.2-0.2h0.5L747.5,138z M748.5,144.6v-0.2
		c0-0.2-0.2-0.5-0.5-0.5l-0.5,0.5c0,0.2,0.2,0.2,0.5,0.2H748.5z M748.2,141l0.5-0.5V140c0,0,0,0-0.2,0L748.2,141z M748.5,128.9v-0.2
		l0.7-0.5c0,0.5-0.2,0.7-0.5,0.7H748.5z M749.2,141.5L749,141c-0.2,0-0.2,0-0.2,0v0.5c0,0.2,0,0.5,0.2,0.5S749.2,141.7,749.2,141.5z
		 M752,133v-0.2l-0.2,0.5c0,0-0.5,0.5-0.5,0.7c0,0.7,0.5,0.7,0.5,0C751.8,133.7,751.8,133.5,752,133z M752.3,128.2l-0.3-0.7l0.5-0.2
		L752.3,128.2z M753.2,131.1l-0.2-0.2l-0.5,0.2v-0.2l-0.2,0.2H753.2z M753.4,135.3l0.7-0.7l-0.2-0.2L753.4,135.3z M755.6,131.1
		l-0.2-0.2h-0.5c0,0.2,0,0.5-0.2,1.2L755.6,131.1z M756.5,43.3c0.2,0,0.2-0.2,0.2-0.7c0.2,0,0.5,0.5,1.2,0.5l2.1-0.7l1.4,0.2
		l0.9-0.5c0.2-0.2,0.5-0.2,0.5-0.2v0.2c0,0.2,0.2,0.5,0.5,0.7c0.5,0.2,0.9,0.2,1.2,0.2h0.2c0-0.2,0-0.2,0-0.2h-0.5
		c-0.2,0-0.2,0-0.2-0.2v-0.2l0.7,0.2l1.2-0.7l0.9,0.2l0.5-0.2l-0.2-0.2c0-0.2,0.2-0.2,0.5-0.2h3.3V41l0.2-0.2h0.7l0.7,0.2
		c0.2,0.2,0.5,0.2,0.9,0.2c0.7,0,1.2-0.2,1.7-0.9v-0.5l-6.9,0.9c-0.7,0-0.7-0.5-1.7-0.5c-0.7,0-0.9,0-0.9,0.2
		c-0.2,0-0.2,0.5-0.2,0.5c-0.2,0-0.2,0-0.5,0.2l-6.2,0.5l0.5-0.5c-0.7,0-1.9,0.7-2.4,1.2l-0.7,0.7L756.5,43.3z M756.8,44.1
		c0.7,0,1.9-0.2,3.6-0.5L756.8,44.1z M757.7,130.4l-0.2-0.7c0.5-1.2,0.9-1.7,1.2-1.7l0.2,0.5c-0.2,0.2-0.5,0.9-0.5,1.2L757.7,130.4z
		 M757.9,118l0.5-0.2v-0.5c-0.2,0-0.5,0.2-0.7,0.7H757.9z M758.2,127l-0.2-0.2l1.2-0.7c0,0.2,0,0.2-0.2,0.5L758.2,127z M758.2,105.2
		l0.2-0.2h0.2v0.5c0,0.2-0.5,0.2-0.5,0L758.2,105.2L758.2,105.2z M758.7,122.1c0.5,0,0.9-0.9,1.7-2.8v0.5c-0.2,0.2-0.5,0.9-1.2,1.7
		L758.7,122.1L758.7,122.1z M759.6,127.5h-0.5l-0.2-0.7c0.2-0.5,0.5-0.7,1.2-0.7v0.5L759.6,127.5z M760.1,107.4l-0.2-0.2l0.2-0.7
		V107.4z M760.8,65.4l-0.5-0.7c0.5,0,0.7,0.2,0.7,0.5L760.8,65.4z M766,110c2.8-5.5,5-9,6.6-10.9l1.2-1.9c0.9-1.4,1.4-2.6,1.7-2.8
		c0.5-0.2,0.7-0.9,0.7-1.9c0.2-0.2,0.7-0.7,0.9-1.9c0.5-0.9,0.7-1.4,0.7-1.4l-3.1,4.7l-0.2-0.2c0-0.2,0.9-1.7,2.8-4.7l2.6-4.3v0.5
		c0,0-0.5,0.7-0.9,1.7c-0.7,1.2-1.2,1.9-1.2,2.1c0.5,0,0.9-0.5,1.2-1.2l2.4-5.7c0-0.2,0-0.7,0.2-0.9l0.2-0.5c0,0,0,0,0.2-0.5
		l1.2-1.2c0-0.7,0.7-1.2,0.9-1.4l0.2-0.2c0.5-1.4,1.2-3.1,2.4-4.3c0.2-0.2,0.7-0.9,0.9-1.9V71c0-0.2,0-0.5-0.2-0.5h0.2
		c-0.2,0-0.5-0.2-0.5-0.5v-0.2c-0.2,0-1,0.9-1.9,2.6c-2.6,4.5-5,8.3-7.1,11.4l-3.1,5.5l-0.2,1.9v0.5c-0.2,0.2-0.5,0.2-1.2,0.2
		c-0.5,0-0.7,0.5-0.9,1.2v0.7l-0.2,0.2c0,0-0.9,1.2-2.6,3.8c-5.2,7.6-8.1,14.2-9.5,19.7l-0.2,0.9c0,0.2,0,0.2,0.2,0.2
		C761,118.5,762.9,115.7,766,110z M760.5,98.6c0.2-0.2,0.5-0.2,0.7-0.5c0,0.2-0.2,0.2-0.5,0.5H760.5z M763.2,43.6l-2.4-0.2l0.7,0.2
		H763.2z M760.8,123.7c0.2,0,0.5-0.2,0.7-0.5c0.2-0.5,0.5-0.9,0.5-1.2L760.8,123.7z M761.7,99.3c-0.2,0-0.2-0.2-0.2-0.5l0.2-1.2
		V99.3z M761.5,100h0.2c0-0.2,0.2-0.2,0.2,0v0.2c0,0.2-0.5,0.2-0.5,0L761.5,100L761.5,100z M762.2,102.2v-0.5h-0.5c0,0,0,0,0,0.5
		H762.2z M763.6,95.3h-0.2v0.5c0,0.2,0,0.5,0.2,0.5V95.3z M766.5,102.2l9-15.2l-2.1,3.3c-5.9,9.2-9,14.2-9.5,15.4
		C764.1,105.7,765.1,104.5,766.5,102.2z M765.1,90.5v-0.2l-0.5-0.5h-0.7L765.1,90.5z M764.3,102.4l0.5-0.5v-0.5h-0.2L764.3,102.4z
		 M765.3,87l0.5-0.2l-0.2-0.5L765.3,87z M765.3,109.7v-0.2c0,0,0.2-0.5,0.5-0.7c0-0.2,0.2-0.5,0.5-0.9c0.2-0.2,0.2-0.5,0.5-0.5
		L765.3,109.7z M767.4,43.1l-0.5-0.2c-0.2,0-0.5,0-0.7,0.2H767.4z M767.4,111.6c0.2,0,0.5-0.2,0.7-0.9c0.2,0,0.2-0.2,0.2-0.5h-0.2
		c-0.2,0-0.5-0.2-0.5-0.5l0.2-0.2c-0.2,0-0.2,0-0.5,0.2c0,0.2-0.5,0.5-0.5,0.7l-0.2,0.5c0,0,0,0,0,0.2l0.5-0.2c0.2,0,0.2,0,0.2,0
		L767.4,111.6L767.4,111.6z M767.7,105.5c0-0.2,0.2-0.5,0.5-0.5c0.2,0.2,0.2,0.2,0.2,0.5H767.7z M771.2,105.9l1.2-2.4
		c0.2-0.2,0.2-0.7,0.2-1.7l0.2-0.2c0.2,0,0.5,0,0.7-0.2s0.2-0.7,0.5-1.4c0,0,0-0.2,0.2-0.5v-0.2c0.2-0.2,0.2-0.2,0.5-0.2l0.2-0.5
		c0-0.2,0-0.2-0.2-0.2c-0.5,0-4.5,6.2-4.7,7.1c0,0.5,0,0.9-0.2,1.7c-0.5,0.5-0.7,0.9-0.7,1.4v0.5c0,0,0,0.2,0.7-0.9
		C769.8,108.1,770.5,106.7,771.2,105.9z M770.3,102.2c0.5-0.7,0.2-0.9,0.2-0.9c0-0.2,0-0.2-0.2-0.2l-0.2,0.2
		c-0.2,0.5-0.2,0.7-0.2,0.9c0,0-0.5,0.7,0,0.7L770.3,102.2z M771.9,42.4l0.2-0.2h-0.9c0,0.2,0.2,0.2,0.5,0.2H771.9z M773.1,41.9
		l4.5-0.2l0.2-0.5c0,0,0,0-0.2,0L773.1,41.9z M773.8,46.2c0.2,0,0.5,0,0.7-0.2h0.5c0-0.2-0.2-0.5-0.7-0.5c-0.2,0-0.5,0-0.7,0.2
		L773.8,46.2z M776,40.7l4-0.7l0.2-0.7c0-0.2-0.2-0.5-0.9-0.5c-0.2,0-0.5-0.2-1.2,0.2l-0.9,0.7l-0.2,0.5c-0.2,0-0.5-0.2-0.5-0.5
		l-0.5,0.2c-0.2,0.2-0.2,0.2-0.2,0.5L776,40.7z M777.9,94.8c0-0.2-0.5-1.2-0.5-1.2l-0.2,0.7c-0.2,0-0.5,0.9-0.5,0.9
		c-0.2,0.7-0.2,0.9-0.2,1.2c0,0.2,0,0.5,0.2,0.5S777.1,96.2,777.9,94.8z M778.1,85.8h-0.2v-0.5c0,0,0.2-0.2,0.5-0.5l1.2-0.9
		c-0.7,0.9-1.2,1.4-1.2,1.7L778.1,85.8z M778.6,95.7v-0.2c0-0.2,0-0.5-0.2-0.5l-0.5,0.2c0,0,0,0,0.2,0.2l0.2,0.2L778.6,95.7
		L778.6,95.7z M779,41.5l3.3-0.7c0-0.2-0.2-0.2-0.5-0.2l-3.3,0.7L779,41.5z M778.6,92.9l0.2-0.9c0,0,0,0-0.2,0V92.9z M780.2,38.6
		l-0.2-0.7c-0.2,0-0.2,0-0.2,0.2v0.5H780.2z M780,88.9c0.5,0,0.7-0.2,0.7-0.7l-0.9,0.5L780,88.9z M786.2,39.8c0.7,0,0.9-0.5,0.9-1.4
		c0-0.2,0-0.2-0.2-0.2l-0.5,0.2c-0.7,0.2-1.2,0.2-1.7,0.2c-0.9,0-1.7,0-1.9,0.2l-0.9,0.5h0.7v0.2c0,0.2,0,0.2,0.2,0.2L786.2,39.8
		L786.2,39.8z M781.9,86.5c0.2,0,0.5-0.2,0.7-0.5v-0.5h-0.5l-0.2,0.5V86.5z M783.1,81.1v-0.5h-0.2c-0.2,0-0.2,0-0.2,0.2L783.1,81.1z
		 M785.9,40.7l-0.7-0.2c-0.5,0-0.7,0-1,0.2h-0.9c-0.2,0.2-0.2,0.2-0.5,0.2L785.9,40.7z M787.3,39.8v-0.2l0.7-0.2l-0.2-0.2
		c-0.5,0-0.7,0.2-0.7,0.5L787.3,39.8z M790,39.3c0.2,0,0.5,0,0.7-0.2c0.5-0.5,0.5-1.2-1-1.2c-1.4,0-2.1,0.2-2.1,0.5
		c0,0.5,0.2,0.7,0.7,0.7s0.7-0.2,1-0.5c0.2-0.2,0.2-0.5,0.5-0.5l-0.2,0.7c0,0.2,0,0.2,0.2,0.2L790,39.3z M788.5,69.7v-0.5
		c0-0.2,0-0.2-0.5-0.2l0.9-1.2c0.2-0.5,0.2-0.9,0.2-1.2l0.9-1.2c0.2-0.5,0.2-0.7,0.2-0.9l-1,0.9c-1.4,1.4-1.7,2.8-1.7,3.6
		c0,0.5,0.2,0.7,0.5,0.7L788.5,69.7L788.5,69.7z M788.8,64l0.7-0.7v-0.5c-0.2,0-0.2,0-0.5,0.2c-0.2,0.2-0.2,0.5-0.5,0.9h0.3V64z
		 M791.9,40l1.4-0.5l0.7,0.2v-0.2h0.2c0-0.2,0-0.2-0.2-0.2h-1.7l1-0.7v-0.5c0.2,0.2,0.9,0.5,1.9,0.5c0.7,0,1.7,0,2.8-0.2l2.6-0.7
		c0.7-0.2,1-0.2,1.2-0.5c0-0.2-0.7-0.5-1.9-0.5v0.2H799l-0.2,0.2c0,0,0,0-0.5,0.2l-1.2-0.5c-0.2,0-0.2,0-0.5,0.2l-0.2,0.2
		c0,0,0,0-0.2,0h-2.8c-0.2,0-0.5,0.2-0.5,0.5h-1.4l0.5,0.7v0.7l-0.2,0.5L791.9,40z M791.4,62.8c0.7,0,0.9-0.2,1.2-0.7v-0.2l-0.5-0.2
		l-0.2,0.2c-0.2,0.2-0.5,0.5-0.5,0.7V62.8z M796.6,39.6v-0.5c-0.2,0-0.5,0-0.7,0.2s-0.5,0.2-0.5,0.2L796.6,39.6L796.6,39.6z
		 M796.6,49.5l0.2-0.7c0-0.2,0-0.2-0.2-0.2V49.5z M821,43.8c3.6-0.7,7.1-0.9,10.7-0.9l7.6,0.2l0.5-0.9c0.2-0.2,0.5-0.2,0.9-0.5
		c0-0.2-0.7-0.5-1.9-0.5l-7.1,0.5c-3.8,0-6.9,0-9.5,0.2c-6.2,0.7-9.5,1.2-10,1.9c0,0.2,0.9,0.5,3.1,0.5
		C817.2,44.3,819.1,44.3,821,43.8z M817.7,37.9c-0.2,0-0.5-0.2-0.7-0.5c-0.7-0.2-0.9-0.5-1.2-0.5c0-0.2,0.7-0.5,1.9-0.5h0.7
		c0.2,0.2,0.2,0.2,0.2,0.2v0.2L817.7,37.9z M819.3,38.4c-0.5-0.2-0.7-0.7-0.7-0.9c0.7-0.9,0.7-0.9,0.7-0.9c0.2,0,0.2,0,0.5,0.2
		c0.2,0,0.2,0.2,0.2,0.7c0.2-0.2,0.2-0.2,0.2-0.2v-0.5c0-0.2,0.2-0.5,0.9-0.5c1.7-0.2,3.3-0.2,5-0.2c1.4-0.2,2.1-0.2,2.1-0.2
		c0.2,0,0.5-0.2,0.5-0.7l0.5-0.5v0.5c0,0.2,0.2,0.5,0.9,0.5h3.6l-1.2,0.7c-0.5,0-0.7,0-1,0.2c-0.2,0-0.2,0.2-0.5,0.7
		c-0.2,0.5-0.5,0.7-1,0.7c-0.2,0-0.2,0-0.5-0.2l-0.5-0.2c0.2-0.2,0.2-0.2,0.2-0.5c0,0,0.2,0,0.5,0s0.5,0,0.9-0.2
		c0-0.2,0-0.5-0.9-0.5c-1.2,0-2.1,0.2-2.4,0.5v0.2h1.2c-0.2,0-0.2,0-0.2,0.2l0.2,0.9L828,38c-0.2-0.2-0.7-0.2-1.2-0.2
		c-0.2,0-0.5,0-0.7-0.2c0.2-0.2,0.5-0.7-0.5-0.9c0,0-0.2,0-0.9,0c-0.2,0-0.5,0.5,0.2,0.5l0.7,0.5c-0.2,0-1.2,0.5-1.2,0.5
		c-0.7,0.2-1.4,0.2-1.7,0.5c-0.7,0.2-1.7,0.2-2.4,0.2C820.1,38.6,819.6,38.6,819.3,38.4z M820.5,37.9l0.5-0.2
		c0.2-0.2,0.2-0.2,0.2-0.5L821,37c-0.2,0-0.2,0.2-0.5,0.7V37.9z M821,40.5l0.5-0.2v0.5c0,0.2-0.2,0.2-0.5,0.2V40.5z M823.9,40.5
		c0-0.2,0.2-0.2,0.9-0.5l0.2,0.2L823.9,40.5z M829.5,40h0.2H829.5z M831.7,37.7c0-0.7,0.5-0.9,1.4-0.9c0.7,0,1,0.2,1,0.5l-0.2,0.2
		c-0.2,0-0.7,0.2-0.7,0.2c-0.2,0-0.9,0.2-0.9,0.2C831.9,37.9,831.7,37.9,831.7,37.7z M833.1,40l-0.5-0.2c0-0.2,0-0.2,0.2-0.2
		l1.7,0.2L833.1,40z M835,37.4h-0.9l0.7-0.2h0.2V37.4z M834.3,35.8c0.2-0.2,1.4-0.2,3.6-0.2c1.9,0,3.1,0,3.8-0.2
		c1.2-0.2,1.9-0.5,2.1-0.9c0-0.2,0.5-0.2,0.7,0c0.2,0,0.2,0.5,0.2,0.5v0.5l-1.7,0.2c-0.7,0-1.9,0.2-3.6,0.2h-5.1V35.8z M844,41.7
		c0.2,0,0.7-0.2,1-0.5l-0.5-0.2h-1c-0.2,0-0.9,0.2-1.2,0.2l-0.7,0.5c0,0.2,0.2,0.5,0.9,0.5C842.8,42.2,843.3,41.9,844,41.7z
		 M845.7,41.5l0.2-0.2l-0.2-0.5c-0.2,0-0.5,0-0.5,0.2v0.2c0,0.2,0,0.2,0.2,0.2L845.7,41.5L845.7,41.5z M846.1,43.1l1-0.2l-0.7-0.5
		l-0.7,0.2v0.2L846.1,43.1z M848,33.4c-0.2-0.2-0.2-0.5-0.5-0.5h-1.7c0-0.2,0.7-0.5,2.4-0.5l3.8,0.2c-0.2,0-1.4,0-1.7,0.2
		c-0.7,0-1.2,0-1.4,0.2l-0.7,0.5c0,0,0,0-0.2,0L848,33.4L848,33.4z M846.1,36.5c0-0.2,0.7-0.5,1.9-0.7h0.9c0.2,0,0.2,0,0.2-0.2
		l-0.5-0.2c0.2-0.2,0.5-0.2,0.9-0.2c0.2,0,0.5,0,0.7,0.2c0.2,0,0.5,0,0.5,0.2c0.2,0.2,0.5,0.2,1,0.2h1.4c0.5,0.2,0.9,0.2,1.7,0.2
		l0.7,0.2c0,0-0.2,0-0.7,0l-2.8,0.2c-0.9,0-2.4,0.2-4.3,0.5C846.6,36.9,846.1,36.7,846.1,36.5z M846.9,41.5V41c-0.5,0-0.5,0-0.7,0.2
		c0,0.5,0.2,0.5,0.5,0.5S846.9,41.7,846.9,41.5z M850.7,41.7c0.7,0,0.9,0,1.2-0.2c-0.5-0.5-1-0.7-1.2-0.7h-1.4c-0.2,0-1,0.2-1,0.2
		l-0.5,0.2v0.2c0,0.2,0.2,0.5,0.9,0.5L850.7,41.7z M849.7,42.9c0.5,0,0.7-0.2,0.7-0.5l-0.2-0.2l-0.7,0.5L849.7,42.9z M854,41.5
		c-0.2-0.2-0.2-0.2-0.2-0.5v-0.2h-0.9c0,0,0,0.2-0.2,0.5c0,0.2,0.5,0.7,0.5,0.7C853.7,41.9,854,41.7,854,41.5z M853,35.3h1.4
		c0.2,0,0.5,0,0.5,0.2L853,35.3z M856.3,36.5c0-0.2,0.2-0.2,0.5-0.5c0,0,0.2,0,0.5-0.2h1c0.9,0,1.4,0.2,1.4,0.5l-0.5,0.2H858
		c-0.2,0.2-0.5,0.2-0.9,0.2L856.3,36.5z M862.5,42.4l-0.2-0.2h-0.7l0.2-0.7c0-0.5-0.5-0.7-1.2-0.7l-3.8,0.2c-0.2,0-0.2,0-0.2,0.2
		c0,0,0.5,0.9,0.7,1.2c0.2,0.2,0.5,0.2,0.7,0.2s0.2,0,0.7-0.5l0.2-0.5h0.5v0.5c0,0.2,0,0.2,0.2,0.2s0.2,0,0.5-0.2
		c0-0.5,0.2-0.7,0.5-0.7v0.5c0.2,0.5,0.7,0.7,1.4,0.7C862.3,42.6,862.3,42.6,862.5,42.4z M857.5,32.9l-0.2-0.2
		c0.2-0.2,0.2-0.2,0.2-0.2v-0.2h0.7c0.2,0,0.5,0,0.5,0L857.5,32.9z M861.3,32.7c-0.9,0-1.4,0-1.4-0.2l2.4-0.2c1.2,0,1.7,0.2,1.7,0.5
		L861.3,32.7L861.3,32.7z M861.3,39.8v-0.2h-1.2L861.3,39.8z M865.1,41.9c1.2-0.2,1.7-0.5,1.9-0.5c0-0.2-1-0.2-2.9-0.2
		c-1.2,0-1.7,0-1.7,0.2c0.2,0.5,0.5,0.7,1.2,0.7C863.9,42.2,864.4,42.2,865.1,41.9z M867.2,32.9h-1.4l-1.4-0.2
		c0-0.2,0.5-0.5,1.2-0.5l2.1,0.5L867.2,32.9z M869.4,41c-0.2,0-0.5,0-0.7,0.2c0.2,0.2,0.2,0.2,0.5,0.2L869.4,41z M869.4,32.9v-0.2
		c0,0,0,0,0.2-0.2h1.2l-0.2,0.2c-0.2,0-0.7,0.2-0.7,0.2H869.4z M872.7,35.3l-0.5-0.2l0.2-0.2c0.2,0.2,0.5,0.2,0.7,0.2L872.7,35.3z
		 M872.5,39.8c-0.2,0-0.2,0-0.2,0v-0.2l0.5-0.2c0.2,0,0.2,0.2,0.2,0.5L872.5,39.8L872.5,39.8z M875.3,32.9h-0.7l-1-0.2h1.7V32.9z
		 M887.2,32.9c-1.7,0-3.1,0-4.3-0.2h-4.3c-1.2-0.2-1.9-0.2-1.9-0.2l8.3-0.2h3.8c1,0.2,1.4,0.2,1.4,0.5c0,0-0.2,0-0.7,0.2L887.2,32.9
		L887.2,32.9z M889.3,42.6c-0.2,0-0.2,0-0.5-0.2l-0.2-0.2l0.2-0.7c-0.7,0,0.5,0.7-3.3,0.7c0-0.2,1.7-0.5,1.7-0.5
		c0-0.2-0.2-0.2-0.5-0.5h-1.2l-1.7,0.2l-0.2,0.2l0.9,0.2l-0.2,0.2c-0.5,0.2-1.2,0.2-2.1,0.2c0,0.2,0.9,0.2,3.1,0.5L889.3,42.6z
		 M897.6,43.3l0.7-0.2v-0.2h-0.5c-0.2,0-0.2,0-0.5-0.2l-0.2-0.5c-0.2-0.2-0.5-0.2-0.7-0.2c-0.5,0-0.7,0-0.7-0.2l0.2-0.2l-0.5,0.2
		c-0.2,0.2-1.2,0.5-1.7,0.5c-0.7,0-2.8-0.2-3.3-0.7l-1-0.2l0.2,0.5h0.5v1.2l0.5-0.2c0.2,0,0.7,0,1.2,0.2c0.2,0.2,0.7,0.5,0.9,0.5
		l1.2-0.5L897.6,43.3z M893.8,36l-0.5-0.2c-0.7,0-2.8,0-3.1,0.2c0,0.2,0.5,0.2,1.2,0.2L893.8,36z M893.6,33.2c-0.9,0-1.4,0-1.4-0.2
		l1.2-0.2l1.7,0.2h1.9L893.6,33.2z M894.8,36.2v-0.5l-0.7,0.2l0.5,0.2L894.8,36.2L894.8,36.2z M898.1,36c-0.2,0-0.2,0-0.2-0.2h-0.7
		c0,0.2,0.2,0.5,0.7,0.5L898.1,36z M900.2,42.2l0.2,0.2v0.2c0,0.2,0,0.2,0.2,0.2l0.5-0.2c0.2-0.2,0.5-0.2,0.5-0.5v-0.2l-0.7-0.2
		c-1,0-1.4,0.2-1.4,0.5v0.5c0,0.2,0,0.5,0.2,0.5L900.2,42.2z M900,36.5l0.2-0.2h0.2c0,0,0,0,0-0.2v-0.2c-0.2,0-0.5,0.2-0.7,0.7
		L900,36.5L900,36.5z M903.1,36h-0.5c0.2,0.2,0.5,0.2,0.9,0.2L903.1,36z M904,43.1l0.2-0.2l-0.5-0.5l-0.2,0.5L904,43.1z M908.7,36.5
		l-0.2-0.2c-0.2,0-0.2,0-0.5-0.2c-0.2,0-1.2,0-1.2-0.2h-1.2c-0.2,0-0.5,0-0.7,0.2c0,0.2,0.2,0.2,0.5,0.2c0.2,0.2,0.5,0.2,1,0.2
		H908.7z M907.6,42.4l0.2-0.2v-0.5h-0.5c-0.2,0.2-0.2,0.2-0.2,0.5c0,0.2,0,0.2,0.2,0.2H907.6z"/>
	<path class="st0" d="M755.1,187.5c0-0.7,0-1.7,0.2-3.1c1.4-5.9,9-16.8,12.8-22l4.7-6.2c0.7-1.2,1.2-1.7,1.4-1.7s0.5-0.7,1.4-2.1
		c1.7-2.6,0.9-1.4,3.8-4.3c0.9-0.9,1.7-1.7,1.9-2.4l1.4-1.2c0.7-1.2,1.7-2.4,2.4-3.1c1.2-1.2,3.1-2.4,5.2-4.5l4.3-4
		c0.2-0.2,0.5-0.5,0.7-0.5l0.7,0.5c0.2,0.2,0.5,0.2,0.7,0.2h0.5c0.2,0,0.5-0.2,0.9-0.9l-1.2,0.5l-0.7-0.2v-0.2
		c0-0.5,1.7-0.7,4.7-0.7h2.8c1.9,0.2,2.4,0.7,4,2.6l3.3,5.7v2.1c0.7,0,5-4,5.2-4.7s0.5-0.9,1.2-0.9c0.5,0,0.9-0.7,1.7-2.1l-0.2-0.2
		l2.8-3.1c0.2-0.7,0.7-1.2,1.4-1.9l0.5-1.2h-0.2c0,0-0.2-0.2,0.5-0.5c0.2,0,0.9-0.2,1.2-0.2h1.7c1.2,0,1.9,0,2.6,0.2
		c0.5,0.2,0.7,0.5,0.7,0.7l-1.4,1.7c0,0.5,0,0.7,0.5,0.9l1.4-0.9h0.7c0.5,0,0.7,0.2,0.7,0.5l-0.2,0.7l1,0.7v0.7
		c-0.2,1.2-1.9,4.5-5.7,9.2c-2.4,3.1-4.7,7.3-8.1,12.3c-3.3,5-5.7,9.2-7.4,12.3c-0.9,1.7-1.4,2.4-1.7,2.4l-1.9,3.6
		c-1.4,2.6-4.3,9.5-4.3,12.6c0,0.2,0,0.2,0.2,0.2h0.7c1.2-0.2,1.7-0.2,1.7-0.2c0.2,0,0.7,0,0.9-0.2l0.5-0.5c0,0,0-0.2,0.2-0.5
		c0.2,0,0.7-0.5,1.4-0.9l6.6-4.5c0.2-0.2,0.5-0.5,0.7-0.5s0.5-0.5,1.2-1.2s1.2-1.2,1.4-1.2c1.2,0,3.6-2.4,3.6-3.6l0.7,0.5l0.7-0.7
		c1.7-1.7,2.4-2.8,3.3-2.8c0.7-1.2,1-1.4,1-1.7l0.9-0.5v-0.2l0.7-0.9c0.7-0.2,1.2-0.7,1.2-1.2l0.2-0.2c0.7,0,1-0.2,1-0.9l0.5,0.2
		c0,0.7-1.9,2.6-5.9,6.2l-2.6,2.4c-3.3,2.8-4.7,4.7-4.7,5c0.9,0,4.5-2.8,10.4-8.8l1-1.4c0.5-0.2,1.4-1.2,3.1-2.8l12.3-10.9l0.7-0.9
		v-0.5h0.5c0.7-0.7,1.2-1.2,1.2-1.4l0.7-0.7c0.2,0,0.2,0,0.5-0.2v-0.2l-0.2-0.2h-1v-0.2l1-0.2c0.5,0,1.2,0,1.2,0.7
		c0,0.5-2.8,3.3-3.3,3.6c-0.7,0.2-1,0.7-1.2,1.4c-0.2,0.5-0.7,0.7-1.4,1.4c-1,0.9-1.7,1.7-1.9,2.1l-0.5,0.7l-1.2,0.5l-1.4,1.7h0.7
		c0,0.2-1.4,1.9-2.1,1.9l-0.2-0.2l0.5-0.5c-0.2,0-0.7,0.5-0.9,0.5c-0.2,0.5-0.5,0.7-0.7,0.7c-0.2,0.2-0.5,0.2-0.5,0.2l-0.2-0.2v0.2
		c0.5,0.2,1.2,0.5,2.1,0.5c1.2,0,1.7-0.2,1.9-0.5V163h-0.7c0-0.5,0-1.2,0.7-1.2c0.5-0.2,0.7-0.7,0.7-1.4c0.2-0.2,0.5-0.5,0.7-0.5
		s0.7-0.2,1.4-0.9l1.9-1.9c4.3-4.3,7.1-5.9,7.8-5.9l0.2,0.5l-1.4,2.4h0.2l-1.9,1.7c-1.2,1.2-2.1,2.6-2.4,3.8c0,1.2-2.1,3.3-5.7,7.1
		l-5.9,6.2c-5,5.2-12.1,11.6-17.5,16.1c-4.7,3.8-7.8,5-13.8,5h-2.6c-1.2,0-1.9-0.2-2.1-0.9c-0.7-0.7-0.9-0.9-1.2-0.9
		c-0.7-0.2-1.4-1.7-2.1-4.3c0-1.2-0.2-1.9-0.5-1.9c-0.5,0-0.7-0.7-0.7-2.4c0-0.9,0.5-2.4,0.7-4c0.2-1.4,0.5-2.4,0.5-3.1
		c0-0.2,0-0.2-0.2-0.2l-0.2,0.7c-0.2,0.2-0.2,0.2-0.5,0.2l1.9-6.2v-0.9l-0.9,0.7c-3.8,2.8-7.8,8.1-13.5,13.3
		c-4.3,3.8-14.2,13-20.4,13C758.9,196.3,755.1,191.8,755.1,187.5z M766.2,172.1c0.5-0.9,0.9-1.2,0.9-1.4c0,0-0.2,0-0.5,0.2l-1.4,2.1
		c-0.9,1.4-1.4,2.1-1.4,2.4L766.2,172.1z M766,185.4c0.5,0,0.9-0.2,1.4-0.5c0.9-0.2,0.9-1.2,1.7-1.9h0.2l-0.5,0.7l5.2-4.7
		c1.4-1.2,2.4-1.9,2.6-1.9c0,0,0.7-0.9,2.6-2.4l3.8-3.1l4-4c0.2-0.2,0.2-0.5,0.5-0.5v0.5c0,0.7-1,1.4-2.8,3.3
		c-1.2,1.2-1.9,2.1-2.1,2.6c0,0.2,0.2,0.5,0.5,0.5l1.9-1.7c6.2-5.4,8.8-8.8,9-9c0-0.2,1.9-2.4,5.7-6.2l6.9-7.3
		c0.9-1.2,1.4-1.7,1.7-1.7h0.2c0,0,0-0.2,0.2-0.5l-0.2-0.2c-0.2,0.2-0.5,0.2-0.9,0.2l-2.1,1.7c-0.2,0.7-1,1.2-1.9,1.9
		c-0.2,0.2-0.7,0.5-0.9,1.2c-0.2,0.5-0.7,0.7-1,0.7c0-0.2,0.7-1.7,2.6-3.6l2.1-2.4l-0.7-0.2c-2.4-0.7-3.1-1.9-3.1-2.1
		c0.2-0.9,0.5-1.4,0.5-1.4c0.2-0.5,0.2-0.7,0.2-0.7l0.5,0.7c0,0.2,0,0.2,0.2,0.2l-0.2-1.7c-0.7-0.9-0.5-1.2-1.2-1.2
		c-8.5,2.4-34.6,37.2-36.5,44.1v0.6H766z M767.4,169.7v0.2l0.5-0.2l0.9-1.4l-0.2-0.2L767.4,169.7z M771.9,163.8l1.7-2.1
		c-0.7,0-1.9,1.2-1.9,1.9L771.9,163.8z M774.8,159.5l0.7-1.2c0.2,0,0.2,0,0.2,0.2l-0.7,1H774.8z M776,157.9l0.7-0.5
		c0.5-0.2,0.9-0.7,1.2-1.2c-0.5,0-1.2,0.5-1.2,0.9L776,157.9z M776.7,182.5c0.7,0,10.2-9,11.6-10.4c0.7-0.7,1.7-1.2,2.8-1.7
		l-0.2,0.5l0.2,0.2c0.5,0,0.7-0.5,0.7-1.2c0.5-2.1,3.3-5.5,8.3-10c1.2-0.7,1.9-1.7,2.1-2.4c0-0.2,0.7-0.9,2.1-2.4c2.6-2.6,4-4.3,4-5
		l0.2-0.2h-0.2l-0.7,0.7c-5.2,5.2-9.2,9-12.1,12.6c-1.2,1.4-2.1,2.4-2.6,2.6c-3.1,3.6-5,5-5.5,5.5s-0.7,0.9-0.7,1.2l-0.5,0.7
		c-0.7,0-7.8,7.1-8.8,8.1l-0.9,0.9v0.3H776.7z M781.4,175.2l0.2,0.2c0.2,0,0.5,0,0.5-0.2c0.2,0,0.2-0.2,0.2-0.5
		c0-0.2-0.2-0.5-0.7-0.5l-0.2,0.7V175.2z M784,179.2l-1.9,1.7l0.9-0.5c0.7-0.2,1-0.7,1-0.9V179.2z M788.5,123.3l-0.9,0.2h-1.2
		c0-0.2,0-0.2,0.2-0.5l1.9-1.7l-0.2-0.7c0.2-0.2,1.2-0.7,1.4-0.7c0.2-0.2,0.2-0.2,0.2-0.7l7.8-3.8c2.1-0.9,3.1-1.9,3.1-2.6
		c0.2-0.2,1-0.7,1.7-0.9c4.7-3.1,9-6.6,12.3-9.5c0.2,0,0.9-0.5,1.2-0.7c1-0.7,1.9-1.7,2.1-2.4l2.6-2.1c1-0.7,1.7-1.9,1.9-2.6
		c0-4.3-0.2-4.3-0.5-5.5l0.5-0.2c0.5-0.2,0.9-0.2,1.2-0.2c0.2-0.2,0.5-0.2,0.5-0.5c-0.2,0-0.2-0.5-0.2-0.7s0-0.5,0.2-0.7
		c0-0.5,0-0.5,0.2-0.5h0.2c0,0.5,0,0.5,0.5,0.5c0,0.2,0.2,0.2,0.5,0.2h1l1.7,1.7c0.5,1.4,0.9,1.9,2.4,1.9c1.4,0,2.1,0.5,2.8,0.9
		l0.5,0.2c1.4,0.7,1.2,0.7,1.2,0.7v0.7c0,0.2,0,0.2-0.2,0.5c-0.2,0.2-0.2,0.5-0.2,0.9c-0.5,0-0.7,0.2-0.9,0.5l-0.7,1.2
		c-0.9,1.7-1.7,2.1-2.1,3.1v0.9l-0.2,0.7l-0.2-0.5c-0.2,0-0.2,0-0.2,0.5c0.2,0.2,0.2,0.2,0.2,0.5v0.5c0,0,0.2-0.2,1.2,0.7
		c0.2,0.7,0.5,1.9,0.5,3.8l0.2,2.6l1.4,6.2l-0.2,4.7l-0.5,0.9c-0.7,0-1.4,0-2.4,0.5l-0.5-0.5h-2.4c-0.5,0-0.7,0-0.9-0.2
		c0-0.2,0-0.5-0.2-0.5c-0.5,0-1-0.5-1.2-0.9c-0.2-0.2-0.7-0.2-1.2-0.2s-0.7-0.2-0.7-0.7v-1.4c0-0.2-0.5-1.2-0.5-1.4
		c-0.2-0.5-0.2-0.9-0.2-0.9c-0.2-0.7-0.2-1.4-0.2-1.7l0.2-2.1v-0.3c-0.2,0-0.2-0.5-0.2-0.9c0-1.7,0-2.8,0.2-3.1
		c-0.2,0-0.7,0.2-1.7,1.2l-3.1,2.1c-2.8,2.1-4,3.1-4.5,3.1l-1,0.7c-0.9,0.2-1.4,0.7-2.4,1.4c-4,2.4-7.8,4-10.9,5l12.3-6.4
		c3.1-2.1,5-3.6,5.2-4.3v-0.2h0.5c0,0,0-0.5,0.5-0.7l1.9-1.7c0-0.2,0-0.2,0.2-0.5V106c-0.5,0.5-1.9,1.7-4.3,3.3l-4,3.1h-0.2
		c-3.3,1.4-5.7,2.8-6.9,3.6c-0.5,0.2-2.8,1.4-8.3,3.8c-3.1,0.9-5.5,2.6-6.6,2.8L788.5,123.3z M788.1,175.4c0.2,0,0.2-0.2,0.5-0.5
		c0.2,0,0.7-0.5,1-0.5l0.7-0.7c0.5-0.5,0.7-0.7,0.7-0.9c0,0.2-0.7,0.7-1,0.9c0,0-0.9,0.5-1.2,0.7L788.1,175.4z M789.7,164.7
		c0.2-0.7,0.7-1.2,1.9-1.4v0.2c0,0.7-1.4,1.2-1.9,1.4V164.7z M793.3,172.3v-0.7c0,0,0.2-0.7,0.5-0.9c0-0.2,0.5-0.7,0.5-0.7l1.2-1.2
		c0.5-0.2,0.5-0.7,0.5-0.7v-0.5h-0.2l-0.5,0.5c-0.7,0.7-0.9,1.2-1.2,1.2c-0.2,0-0.5,0-0.5,0.2c-0.2,0.2-0.2,0.7-0.2,0.9v0.2
		c-0.2,0.2-0.2,0.5-0.5,0.5l-0.2-0.7l-0.7,0.7v0.7c0,0.2,0.7,0.2,1,0.5H793.3z M792.6,162.1c0-0.2,0-0.2,0.2-0.5l1.2-0.7l0.2,0.2
		c0,0.2-0.7,1.2-1.7,1.4L792.6,162.1L792.6,162.1z M795.2,159.5l2.1-2.4c0.7-0.2,0.9-0.5,0.9-0.5v0.5c-0.2,0.5-2.6,2.6-3.1,2.6
		L795.2,159.5L795.2,159.5z M796.8,181.6l0.2-0.5c0.2,0,0.2,0,0.2,0v0.9c-0.2,0.2-0.2,0.5-0.5,0.5L796.8,181.6L796.8,181.6z
		 M797.5,179.2c-0.2,0.2-0.5,0.2-0.5,0V179c0-0.2,0-0.2,0.2-0.2v-0.7l0.2-0.2L797.5,179.2L797.5,179.2z M798.5,165.5
		c0-0.2-0.2-0.5-0.7-0.5h-0.2l-0.2,0.7c0,0.5,0,0.7,0.2,0.7C798.3,166.4,798.5,166.2,798.5,165.5z M798.7,174.9h-0.5
		c-0.5,0.7-0.7,1.4-0.7,2.4L798.7,174.9z M799.4,164.7v-0.2l-0.5-0.5c-0.2,0-0.7-0.5-0.9-0.5h-0.2c0,0.2,0.2,0.5,0.5,0.5
		L799.4,164.7z M799,173c0.2,0,0.2,0,0.5-0.2l1-1.4l-0.5-0.2c-0.2,0-0.2,0-0.5,0.2l-0.7,1.2v0.5h0.2V173z M801.8,159.8l-0.7,0.2
		c-0.7,0.2-1.2,1.2-1.7,2.6L801.8,159.8z M802.3,170.2v-0.5c0.2-0.2,0.5-0.5,0.5-0.5l-0.2,1.2L802.3,170.2z M803.5,165.7l0.2-0.2
		v-0.2c0-0.2-0.2-0.2-0.5-0.2c-1.2,0-1.2,0.9-0.2,0.9C803.2,165.9,803.2,165.9,803.5,165.7z M803.2,167.6l0.5-0.7v0.9
		c0,0.2-0.2,0.2-0.5,0.5V167.6z M808.4,158.6c0-0.2,0-0.2-0.2-0.2l-0.2,0.5c-0.2,0.5-1.2,1.9-2.1,4.5L808.4,158.6z M811.8,143.6
		l0.5,0.5c0.7,0,1.2-0.5,1.2-1.2c0-0.2-0.2-0.2-0.5-0.2c-0.2,0-0.7,0-1,0.7L811.8,143.6z M813.4,141.3c0-0.2,1-0.2,1,0
		c-0.2,0.5-0.5,0.7-0.7,0.7L813.4,141.3z M815.3,107.8c0.5,0,0.5,0,0.5,0.2l-0.9,0.2L815.3,107.8z M816.3,107.6
		c-0.2,0-0.5,0-0.5-0.2l0.9-0.2L816.3,107.6z M821,105l0.5-0.2v0.5l-0.5,0.5V105z M822.2,104.3c0.2-0.2,0.7-0.2,1-0.2l-1,0.7V104.3z
		 M824.1,176.6c0-0.2,0-0.2,0.2-0.5h0.2c0.2,0,0.2,0.2,0.2,0.5c-0.2,0.2-0.2,0.5-0.5,0.5C824.1,176.8,824.1,176.8,824.1,176.6z
		 M826.7,174.9c1.2-0.9,1.9-1.7,1.9-1.9v-0.9c0-0.7-0.7-0.7-1.2-0.7v0.2c0,0,0.2,0.2,0.2,0.5c0.2,0.2,0.2,0.5,0.2,0.7
		c0,0.7-0.2,0.9-0.7,0.9h-0.5c-0.2,0-0.7,0.2-1,0.9l-0.2,0.2c0,0.2,0,0.2,0.2,0.2L826.7,174.9z M828.4,90.5l-0.7-1.7
		c-0.2-0.7-0.9-1.2-1.4-1.2v0.5c0,0,0.7,0.9,0.9,1.2c0,0.5,0,0.5,0.2,0.7L828.4,90.5z M826.5,179.9c1.4-1.4,2.6-2.6,3.6-3.3l3.6-3.3
		c0.2,0,0.5-0.2,0.7-0.7c0-0.5,4.3-4.3,4.7-4.7l3.1-3.1l-0.7,0.2h-0.2v-0.2l0.7-1.4c-0.2,0.2-0.7,0.5-1.4,1.2l-1,0.9l0.5-0.2
		c0.7,0,0.9,0,0.9,0.2c0,0.5-0.5,0.7-1.4,0.7c-0.5,0-0.7,0-0.7,0.2v0.5c-0.5,1.7-2.6,2.8-4.3,2.8l0.5,1.2c-0.2,0.2-0.2,0.2-0.5,0.2
		c-0.7,0-0.5,0-0.9,0.9l-0.5,0.9c-0.2,0-0.2,0-0.5,0.2c-0.2,0.2-1.2,0.5-1.4,0.5c-0.2,0.2-0.5,0.5-0.5,0.7c-0.2,1.2-1,1.9-2.4,1.9
		l-0.2,0.7c0,0.9-0.5,1.4-1.2,1.4c-0.2,0-0.5,0.5-0.7,1.4h0.2V179.9z M829.3,173.3l0.2,0.2c0.7,0,1.4-1.7,1.7-2.4
		c0-0.5,1.4-1.2,1.9-1.2l0.2-0.2c0-0.5,0-0.7-0.2-0.7l-2.6,1.4c1.4-1.4,2.1-2.4,2.4-3.1c-0.5,0-1.2,0.5-1.9,1.2l-0.9,1.7v1.2
		c-0.2,0-0.2,0.2-0.5,0.5l0.7,0.5L829.3,173.3z M833.8,168.3c0,0,0.2-0.2,0.5-0.2l0.2-0.5l0.5,0.7l0.5-1.4l0.7-0.7h0.5l0.7,0.9
		c0.2,0,0.5,0,0.7-0.2c0,0-0.2-0.5-0.2-0.7v-1.4l0.5,0.2c0.2-0.2,0.5-0.5,0.5-0.7s-0.5-0.2-1.2-0.2c-1.2,0-1.9,0.2-2.1,0.5l-1.2,1.9
		c-0.5,0.7-0.7,1.4-1.2,2.1C833.3,168.5,833.6,168.5,833.8,168.3z M836.7,160.5c0,0,0,0,0.2-0.2v-0.2c-0.2-0.2-0.2-0.2-0.5-0.2H836
		c0,0.2,0.2,0.5,0.5,0.7L836.7,160.5L836.7,160.5z M836.4,168.3c0-0.9,0.9-0.7,0.9-0.5l-0.2,0.2c-0.2,0.2-0.2,0.2-0.2,0.2l-0.5,0.2
		V168.3z M839,157.4c0.2-0.7,0.9-0.9,1.7-1.4c0.7-0.5,0.9-0.9,1.2-1.7c0.2-0.7,1.9-0.2,1.9-0.9c0-0.2,0.2-0.7,0.5-0.9h0.2l-0.2,0.5
		c-0.2,0.7-1.9,2.4-5,4.7L839,157.4z M842.6,163.8v-0.5l0.2-0.5h0.2l0.2,0.5c0,0.2-0.2,0.5-0.5,0.5H842.6z M843.5,160.2h0.2V160h0.2
		l0.5-0.7c0-0.2,0-0.5-0.2-0.5l-0.7,0.9V160.2z M847.3,156.4c0.2,0,0.2,0,0.2,0.2l-2.4,1.9L847.3,156.4z M845.4,152.2
		c1.4-2.1,2.4-3.3,3.1-3.3l0.2,0.5l-0.2,0.5c-0.5,0-1.4,0.9-3.1,2.6V152.2z"/>
	<path class="st0" d="M842.1,194.6c-0.2-1.2-0.5-1.7-0.7-1.7s-0.5,0.2-0.7,0.7l-0.2,0.2c-0.2,0-0.2-0.2-0.5-0.5l-1.2-2.6
		c0-0.2-0.5-0.7-1.2-0.9c-0.7-0.2-0.9-0.5-1.2-0.9c-0.2-0.5-0.2-1.2-0.2-2.4l1.9-6.4c2.8-5.7,10.2-17.3,22.3-34.9
		c4-5.9,7.4-11.1,9.7-15.6c1.7-3.1,3.3-5.5,4.5-7.1l3.3-3.6c1.7-1.2,2.6-1.9,2.8-1.9s0.5,0,0.5,0.2l-0.2,0.2l0.5,0.5v0.2h0.2
		l-0.2-0.7c0.5-0.7,0.7-1.2,0.9-1.2s0.5-0.2,0.5-0.5l-0.2-1.4c0.2-0.2,0.5-0.5,0.7-0.5l2.4,0.9c0.2,0,0.7-1.2,1.4-1.2l0.7,0.7
		c0.2,0.2,0.7,0.5,1.2,0.5l0.7-0.2v0.2c0.5,0.7,0.9,0.9,1.7,1.2c1.2,0.2,1.9,1.7,1.9,4.3c0,2.1-1.2,5.9-2.1,7.6
		c-0.7,1.2-1.9,2.8-4,5.2c-3.6,4.3-6.4,8.3-8.8,12.1c-0.5,1.2-1.7,2.6-3.3,4.3c-1.7,2.6-4.3,5.9-7.6,10l-7.8,11.6
		c-1.9,2.8-2.8,4.5-3.3,5.2l-1.4,2.1v0.5h0.2c0.7,0,8.1-6.6,22.5-20.2l5.9-5.5c3.8-3.8,23.5-23,28.5-23.5l2.1-0.2
		c1.2,0,1.7,0.2,1.7,0.9l-0.2,1.9v0.2h0.2l2.1-0.2c0.7,0,0.9,0.2,0.9,0.5c0,0.7,0.2,1.2,0.7,1.4c0.5,0,0.7,0,0.9,0.2l0.2,0.7
		c0,0.2,0,0.5,0.2,0.7l0.7,0.7c0.2,0.2,0.2,0.5,0.2,0.9c0,1.4-0.5,4-1,7.8l-0.9,6.2c-1.2,5-2.8,10.9-5,17.3v1.2
		c0.2,0,0.9-0.5,1.9-1.4c1.4-1.7,3.1-3.1,4.7-4.3c2.1-1.7,3.6-2.8,4.5-3.8c0.7-0.7,1.2-1.2,1.4-1.2s0.7-0.2,1.4-0.9l12.6-10.7
		c2.1-1.2,3.8-1.9,5-2.1c1.2,0,2.1,0,2.6,0.2c0.2,0.2,0.5,0.5,0.5,0.7v0.9h-0.5c-0.2,0-0.5,0-0.5,0.2l0.2,0.5
		c0.2,0.5,0.5,0.7,0.7,0.7l2.4-0.5c0.2,0,0.5,0.2,0.5,0.5c0,0.2,0,0.5,0.2,0.7c0.2,0,0.5,0.2,0.5,0.5c0.5,0.2,0.9,1.4,1.2,3.1
		c0.2,0.2,0.2,0.7,0.2,0.9c0,1.2-0.2,2.1-0.5,3.1c-0.2,0.2-0.2,0.5-0.2,0.7c-0.5,2.1-1.2,4-1.7,6.2l-2.4,9c0.2,0.2,0.2,0.5,0.5,0.5
		h0.5c1,0,2.1-0.9,4.3-2.4c1.7-1.2,2.6-1.9,3.1-1.9c0.2,0,0.7,0,0.9-0.2l3.8-2.4c4.7-3.1,8.5-5,11.1-6.2l4.3-2.8
		c2.4-1.2,3.8-1.9,4.5-1.9h0.2c0.2,0,0.2,0,0.2,0.2l-0.2,0.2c0,0.2-0.2,0.7-0.5,0.9c-0.2,0.5-0.5,0.9-0.5,1.2c0,0.2-0.2,0.5-1,0.7
		c-0.7,0.2-1.2,0.7-1.2,0.9c0,0.2-0.5,0.5-1.4,1.2l-4,2.6c-0.7,0.7-1.2,1.2-1.2,1.4c0.2,0,2.4-1.4,5.9-3.8l4.3-2.8v-0.5h-0.5
		c0-0.7,3.1-2.1,3.8-2.1l0.2,0.5c-0.2,0.2-0.7,1.4-0.9,2.1l-2.4,2.8c-0.9,1.2-1.9,2.4-3.1,3.6c-1.2,1.2-1.9,1.7-2.4,1.9
		c-0.7,0.2-2.8,1.7-6.4,4.3c-5,3.6-8.1,5.4-9.2,6.2c-2.9,1.7-4.7,2.8-5.5,3.6c-1.2,0.9-3.3,1.4-6.2,1.4c-2.1,0-3.6-0.2-4.3-0.5
		l-2.1-1.7h-0.5c-1.2,0-2.8-3.3-2.8-5.9c-0.2-1.9-0.2-3.3-0.5-4l-0.2-0.9l0.2-0.2v-0.5l-0.5-0.2c-0.2,0-0.2,0-0.2-0.2v-0.2h0.2
		c0.5,0,0.7-0.2,1-0.9l-0.2-0.2l-0.5,0.2c-0.2,0-0.2-0.2,0-2.8v-3.1l-20.2,19.2c-1.9,1.9-3.6,2.8-4.7,2.8c-0.5,0-0.7-0.2-1-0.7V182
		h-0.5l-1.7,0.9c-0.5,0-0.9,0-1.7-0.7l-0.7-1.2c-0.2-0.5-0.2-0.9-0.5-1.2c-0.7-0.9-1.4-1.4-2.1-1.7c-2.8,0-3.6-7.3-3.6-9.2
		c0-1.2,0.9-5.7,2.8-13.5c1.4-6.2,2.1-10,2.1-11.4c0-0.5-0.2-0.7-0.5-0.7c-4.7,3.1-13.5,10.9-26.1,23l-24.4,23.2
		c-2.1,1.9-3.6,3.3-4,4.3c-0.2,0.5-0.7,0.9-1.7,1.2c-0.7,0.2-1.7,0.5-3.1,0.9c-1.4,0.5-2.6,0.7-3.8,0.7
		C843.8,197,842.4,196.3,842.1,194.6z M839,185.6c0.7-3.1,1.7-5.2,2.4-5.9c0-0.2,0.7-1.2,0.7-1.4v-0.2c0.2-0.9,0.7-1.9,1.7-2.8
		c0.9-0.9,1.4-1.7,1.4-2.4l5-7.8c0.2-0.7,0.5-1.4,0.7-1.7c0.2-0.2,0.5-0.7,0.5-1.2c0.2-0.5,0.9-1.7,2.6-3.8l0.7-0.9
		c0.5-0.7,1.2-2.1,1.4-2.4c0.5-0.9,0.7-1.4,0.7-1.7c0.2-0.5,0.5-0.7,0.9-0.7c0.2,0,1-0.5,1.2-1.4c0.2-0.7,1.4-2.1,2.6-4l4.3-6.6
		c1.4-2.4,2.1-3.8,2.1-4.5c0-0.2,0-0.2-0.2-0.2l-7.6,12.1c-0.7,1.2-1.4,0.7-1.7,1.7l-1.2,1.9c-0.5,0.9-2.1,2.6-3.8,5.7l-7.8,12.1
		c-2.1,3.1-8.3,13.5-8.3,17.1c0,0.7,0.2,0.9,0.7,0.9C838.3,187.3,838.8,186.8,839,185.6z M842.4,182.3l2.1-3.3
		c1.7-2.6,3.1-5.2,4.7-7.8l1.9-3.1c0.5,0,1.2-0.9,2.1-2.6c1.2-2.4,2.1-4.3,3.1-5.5l3.1-4c3.8-5,5.2-8.1,5.2-8.5v-0.2h-0.2l-8.5,12.1
		c-2.4,3.3-12.8,19.2-13.5,22.5L842.4,182.3L842.4,182.3z M843.6,186.8c0.2,0,0.7-0.7,1.4-2.4c2.1-3.6,3.1-5.7,3.6-6.9h0.5
		c0.2,0,0.7-0.2,0.9-0.5v-0.2l-0.2,0.2H849c2.8-4.7,4.5-7.1,5-7.1l0.7-0.9c0,0,0-0.2,0.2-0.7c0.2,0,0.2,0,0.5-0.2v-0.2
		c0-0.2,0.2-0.2,0.2-0.5c0-0.7,1-1.7,1.9-3.1l1.4-1.9v-0.2c0.5-0.9,1.9-3.3,4.3-6.9l1.7-2.6c1.4-2.1,2.1-3.1,2.4-3.3
		c0.7-0.5,0.9-0.9,0.9-1.4c0-0.2-0.2-0.5-0.5-0.5c-1.2,0-3.6,2.6-7.1,8.1l-10.6,16c-3.3,5-5.2,8.1-5.7,9.2l0.2,0.2l0.9-0.7l0.2,0.2
		l-1,2.6c-0.7,1.2-1.4,2.6-1.7,3.8C843.3,187,843.3,187,843.6,186.8z M866.1,176.4l-0.7,0.2l-0.7,0.9v0.2c0,0.2,0,0.2,0.2,0.2
		L866.1,176.4z M865.1,175.7h0.7c0.7,0,1.4-0.2,1.9-0.9c0.2-0.5,0.5-0.7,1.2-0.7c1.7,0,2.4-0.9,2.9-2.4c0-0.2,0.2-0.9,0.2-0.9
		c1.4,0,2.8-1.2,3.3-2.6v-0.9l0.2,0.2c1.2,0,8.3-6.9,9.3-7.8l1.7-2.4c0-0.5,0.2-0.7,0.5-0.9c0.2-0.2,0.5-0.2,0.5-0.2l-0.7,0.9
		l0.2,0.2c0.5,0,1.9-1.7,4.7-4.3l3.6-3.3c5-4.7,7.6-7.3,7.6-8.1v-0.5l0.2-0.2l0.9,0.2c0,0,0.2,0,0.7-0.2l1-0.5
		c0.7-0.2,0.9-0.9,1.4-1.2l1.4-1.2l1.7-2.1v-0.2c0-0.5-0.2-0.7-0.5-0.7c-0.2,0-0.7,0.2-1,0.5c-0.2,0.7-1.9,1.4-3.8,3.1
		c-1.4,1.2-4.3,3.6-8.5,7.6c-4,3.8-6.2,5.7-6.6,5.7h-0.2v0.2c0.2,0.2,0.2,0.5,0.2,0.7c0.2,0,0.2,0.7,0.2,0.7c-0.5,0-0.9,0.5-1.7,0.7
		c-0.7,0.2-2.4,1.7-5,4c-0.5,0-1.4,0.2-2.1,1.7l-0.7,1.4l-0.5,0.2c-0.5,0-11.4,10.4-12.6,12.1c-0.9,1.2-1.7,1.7-1.9,1.7L865.1,175.7
		z M869.6,144.8l0.9-1.4H870c-0.5,0.2-0.7,0.7-0.9,1.2L869.6,144.8z M913.7,165.9l0.5-0.2c0.2,0,0.2,0,0.5-0.2l0.2-0.2
		c0-0.2-0.2-0.2-0.7-0.2c-0.2,0-0.5,0.2-0.5,0.5V165.9z M932.9,163.6l1-0.5c0-0.2,0.2-0.2,0.5-0.5c0.2-0.2,0.2-0.2,0.2-0.5l-1.4,0.7
		c-0.2,0.2-0.2,0.2-0.5,0.7L932.9,163.6L932.9,163.6z M943.8,176.4c0-0.2-0.5-0.7-1.7-1.4l0.7,0.7c0.2,0.7,0.7,0.9,0.9,0.9
		L943.8,176.4L943.8,176.4z M944.8,179.4v-0.2c0-0.5,0-0.7-0.2-0.9l-0.7-0.5l-0.7,0.7c0,0.2,0.5,1.2,0.7,1.2c0,0.2,0,0.5,0.2,0.5
		S944.6,179.9,944.8,179.4z"/>
	<path class="st1" d="M12.6,412L51,366.3c21.8,16.9,47,25.2,75.2,25.2c12.3,0,18.4-3.1,18.4-9.2v-0.6c0-5.5-9.8-10.1-29.8-14.1
		c-29.2-5.8-50-12.9-63.2-21.2c-18.1-11.4-27.3-27.3-27.3-47.9v-0.6c0-21.2,7.7-38.4,23.3-51.6c16.6-13.8,39.3-20.9,67.8-20.9
		c39.9,0,72.1,9.8,97,29.5l-35,48.5c-19.3-14.1-40.8-21.2-64.4-21.2c-10.4,0-15.7,3.1-15.7,8.9v0.6c0,5.5,9.5,10.1,28.5,13.8
		c30.4,5.5,52.8,12.9,66.6,22.1c16.9,11.4,25.2,27,25.2,47.3v0.6c0,22.4-8.6,40.2-25.8,53.4c-16.9,12.9-39.9,19.3-69,19.3
		C77,448.2,40.2,436.2,12.6,412z"/>
	<g>
		<path class="st0" d="M456.6,85.3c-0.2-1.2-0.2-1.9-0.2-2.4c0-1.2-1.4-4-4.3-9c-8.5-15.2-24.4-19.2-41-19.2c-5,0-11.1,0.5-18,1.4
			c-2.1,0.2-4,0.5-5.7,0.5c0.5-2.1,0.7-3.8,0.7-4.7c-0.2-1.2-0.7-1.9-1.7-2.6c-0.2,0-0.5,0-0.5-0.2v-0.5c0-0.2-0.7-0.5-2.1-0.5
			l0.2-0.7c0-0.2-0.5-0.2-1.7-0.2c-2.6,0-3.1,0.2-3.3,0.2h-0.2l-0.2,0.2h-0.5l-0.2,0.7c0,0.7-0.2,1.7-0.9,3.3
			c-0.7,1.4-1.4,2.4-1.7,3.1l0.2,0.2h0.2v0.2l-2.1,5c-0.2,0.7-0.5,1.2-0.7,1.2s-0.2,0-0.2-0.2v-0.2l0.5-1.4l-0.2,0.2
			c-1.2,3.3-19.2,8.8-22.1,9.5l-0.9,0.2l-6.4,3.1c-17.3,8.3-26.3,12.8-26.8,14c0,0.7-0.2,0.9-1.2,0.9c-0.2,0-0.2,0-0.5,0.2
			c-0.2,0.5-0.9,1.2-2.6,1.9c-1.2,0.5-2.4,1.4-3.3,2.4c-0.7,0.5-1.2,0.7-1.9,0.7c-0.2,0-0.2,0.2-0.2,0.5v0.5h-0.5
			c-0.2,0-0.5,0.5-1.2,0.9l-4,2.8c-0.7,0.2-1.2,0.5-1.4,0.5V98c-0.2,0.2-0.5,0.2-0.7,0.2l0.2-0.7c-0.7,0.5-1.2,0.7-1.7,0.7l-0.5-0.2
			l0.2,0.5v0.2h0.7v0.9h-0.7c-0.5,0-1.4,0.9-3.3,2.1l-2.1,1.4c-0.7,0.5-1.2,0.7-1.4,0.7c-0.2,0-0.5,0.2-0.7,0.7
			c0,0.2-0.2,1.4-0.2,1.7l-0.2,1.7l-0.2-0.2v-0.2c0-0.2-0.2-0.5-0.5-0.5c-0.5,0-0.9,0.5-1.4,2.1l-0.5,4c0,0.5,0.2,0.7,0.5,0.7
			c0.2,0,0.5,0.2,0.5,0.7l-0.2,0.5c0,0.9,1.2,0.5,1.9,1.7c0,0.2,0.2,0.5,0.7,0.7l3.3,1.7c0.5,0.2,0.7,0.2,0.9,0.2
			c0.2,0,0.5,0,0.7-0.2c0.2,0,0.7-0.2,0.9-0.2l4.7-2.1l3.3-2.1c0.7,0,1.7-0.9,2.4-1.2l5.2-2.6l3.8-1.4h0.2c0.7-0.2,1.2-0.2,1.4-0.5
			c0.2,0,0.5,0,0.5-0.2c0,0,0.2-0.2,0.7-0.5c0.5-0.2,1.2-0.5,1.9-1.2c1.9-0.7,2.8-1.2,2.8-1.7v-0.2c0,0-0.9,0.5-0.9-1.2
			c0.2-0.7,0.7-1.4,1.2-2.1c0-0.2-0.2-0.5-0.5-0.7l-0.2-0.9v-0.5l-1.2-0.2c-0.9,0-1.4-0.2-1.4-0.5l0.5-0.5l-0.5-0.7
			c0.5-0.7,1.9-1.7,4.5-2.8c0.2,0,2.6-1.4,6.9-4c2.6-1.2,5.2-2.8,6.2-3.6l10-4.7c5.5-2.6,10.4-4.5,14.5-5.9l1.9-0.7h0.2v0.5
			c0,0.7-0.2,0.2-0.2,3.8c0,0.2,0,0.5-0.2,0.5c0,0.2-0.2,0.2-0.5,0.2c-0.5,0-0.9,0.2-1.4,0.7c0,0.2-0.2,0.5-0.5,0.5H361
			c0,0.2,0.7,1.4,0.7,2.1l-0.2,0.2c-0.7,0-0.9,0-0.9,0.2l-0.2,0.2c-0.2,0.5-0.2,0.7-0.5,1.2l-0.7-0.2l-0.2,0.2
			c0.2,0.5,0.5,0.7,0.5,0.9c0,0.2,0.2,1.2,0.5,1.2c-0.2,0.9-1.4,1.2-1.4,1.4V90c0,0.5,0.7,0.7,2.1,1.4l0.9,0.5l-0.5,0.5
			c-0.2,0.2-0.5,0.2-0.5,0.2c-0.2,0.2-0.2,0.2-0.2,0.5c0.7,0,0.9,0,1.2-0.2c0-0.2,0.7-1.4,0.9-1.4l0.5,0.7c-0.2,0.7-0.2,1.2-0.5,1.2
			c0,0.2-0.5,0.7-0.5,0.7l-1.7,2.8c0,0.7-0.2,1.7-0.9,2.4c-0.2,0.2-0.2,0.7-0.5,1.2c0,0.2,0,0.5-0.2,0.7c0,0.2-0.2,0.5-0.5,0.5
			c-0.7,0.2-0.9,0.7-0.9,1.2h0.5c-0.2,0.7-0.2,1.2-0.5,1.4l-0.2-0.2l0.2-0.5c0-0.2,0-0.5-0.2-0.5c-1.4,0-13.8,21.3-15.4,25.1
			l-1.4,1.7h-3.1c0.5-0.7,1.4-2.4,2.8-4.7c0.9-1.7,1.7-3.1,2.6-4.3c0.9-1.2,0.9-1.7,1.2-1.7v0.2l-2.1,4l0.2,0.2c0.2,0,0.5,0,0.7-0.2
			l0.9-1.7c0.2-0.2,0.5-0.9,0.7-1.7c0.7-2.4,2.1-3.6,2.1-4h-0.9c0.7-1.2,1.2-1.7,1.4-1.7h0.2v0.5c0.2,0,0.7-0.5,1.2-1.4
			c0.5-1.2,0.9-1.9,1.4-2.4c0.9-0.9,1.7-2.1,1.9-3.6l-0.2-1.2l2.4-4.7l0.5-0.5c0,0.2-0.5,1.2-1.2,2.8l-0.9,2.1h0.2v0.2
			c0.5,0,0.7-0.5,0.9-1.4l1.9-3.8c2.8-5.7,4.7-8.5,5-9.2v-0.2c-0.2,0-0.2,0.2-0.7,0.9l-2.8,4.5c-0.5,0.7-0.7,1.2-0.9,1.7
			c-0.2,0.5-0.2,0.7-0.5,0.7c0-0.2,0.2-0.5,0.5-0.9c2.1-4,3.1-6.2,3.1-6.9l-0.2,0.5c0-0.2,0-0.2-0.2-0.2v-0.2l-0.2-0.2h-0.5v2.1
			l-0.5,0.2l-4.3,7.8c-0.5,0.7-0.9,1.4-1.4,1.7v0.2h0.5l0.2,0.2c-0.9,0.7-1.4,1.7-1.7,2.4c-0.2,0.7-0.9,1.7-1.7,2.8l-1.4,2.1
			l0.5-2.4c-0.5,0.5-0.7,0.9-0.7,1.2c-0.2,0.7-1.4,2.4-3.1,5.2c-2.8,5-6.2,9.7-9,14.5h-0.5c0,0.2,0.2,0.2,0.2,0.5h-2.1
			c0-0.2,0-0.2-0.7-0.2h-0.5v-0.2c0-0.2-0.2-0.2-1.2-0.2l0.7,0.2l-0.7,0.2h-0.5l0.2-0.5h-0.5l0.2,0.2l-2.1-0.2h-0.7v-0.5
			c0,0-0.2,0-0.5,0.5H324c-0.9-0.5-1.2-0.5-1.2,0l-1.2-0.5c-0.9-0.5-2.4-0.7-4.7-0.7c-0.2,0-0.5,0-0.9,0c-0.7,0-1.7,0.2-1.9,0.5
			l-0.9,0.7v0.2c-0.5,0.2-1.4,0.5-1.4,0.7l-0.9,0.7c-0.5,0-0.5,0-0.5,0.2c-0.2,0.9-0.2,1.2,0,1.4c0,0-0.2,0.2-1.2,0.5H309
			c0,0.2,0,0.2-0.2,0.2v0.7c0,0.2-0.2,0.5-0.2,0.5v0.7c0.2,0.9,0.7,0.5,0.5,1.2l1.2,0.5l2.6,0.5l10.9,0.9c0.2,0,2.1,0.2,5.7,0.5
			c-10.2,17.3-25.1,43.2-30.6,62.1l-1.2,6.6v1.4c0.7,0,1.2,0.2,1.4,0.5l1.9,0.5v1.9l0.5,0.9c0,0.2,0,0.5,0.2,0.5l1.2-0.5
			c0.1,0.1,0.3,0.2,0.4,0.3l2.6-4.6c0-0.1,0-0.1,0-0.2c0,0,0.2-1.9,0.7-3.3l-0.1,2.6l0.6-1.1c0,0,0,0,0-0.1l0.7-1.4
			c0.5-0.9,0.2-1.4,0.5-1.4h0.2l0.2,0.1l2.2-3.8c-0.3-0.2-0.4-0.5-0.4-0.9c0-1.7,1.4-5.2,4.3-10.7c4.5-8.5,9.5-16.8,14.5-25.4
			l3.1-5.5c0-0.2,0.2-0.2,0.5-0.2l-0.5-0.9c0-0.2,0-0.2,0.2-0.2h1.2v-0.2c-0.2-0.2-0.2-0.7-0.5-1.4c0.2-0.7,0.7-1.2,0.9-1.2
			c0.2,0,0.2,0,0.2,0.2s-0.2,0.5-0.5,0.7l1.2-0.7l-0.7-0.9l0.2-0.2c0.2,0,0.2,0,0.5-0.2c0.2,0,0.5-0.5,0.7-1.2
			c0.2-0.9,1.2-1.7,1.4-1.7v-1.7h0.5l0.2,0.2l0.5-0.5l0.5-1.4c0,0,1.2-2.1,3.6-6.2h1.4c0.2,0.2,1.7,0.2,5.5,0.5l7.8,0.5h0.5
			c2.1,0.2,5.5,0.2,10,0.2c0.5,0,0.7,0,1.2,0c0.9,0,1.7,0,1.9,0h1.9c0,0,0.2,0,0.7-0.2h-0.2c-0.2-0.2-0.2-0.2-0.5-0.2
			c-0.2,0-0.7,0.2-1.2,0.2H371l-0.2-0.5c0,0.2-0.5,0.2-0.9,0.2c-0.5,0-1.2,0-2.4-0.2c-0.7,0-1.9-0.2-3.1-0.2l-5.2-0.2
			c-1.7,0-2.4-0.5-3.3-0.5c0-0.2-3.8-0.7-11.4-1.9h-0.7c0-0.2,0.2-0.7,0.5-0.9c3.3,0,5.7,0.2,7.1,0.2l3.1,0.2c5.9,0.5,9,0.2,10,0.5
			c0,0,0.2,0,0.5,0c0.5,0,1.4,0,2.8,0h12.1c5.5,0,9.2,0.2,11.9-0.5l0.9-0.2v0.2c0,0-0.7,0.5-1.4,0.5h-0.2v0.2c0.2,0,0.9,0,1.7-0.2
			c0,0.2-0.7,0.5-1.4,1.2l-1.2,0.2c-0.7,0-0.7,0-0.9,0.2l-0.2,0.2v0.2c1.7,0,9.2-1.9,9.7-3.3c0.2-0.5,0-0.7-0.2-0.7v-0.2H398
			c-0.2-0.2-0.2-0.7-0.2-0.7v-0.7l-1.9,0.2h-4.7c-0.5,0-0.2,0.5-0.9,0.5c-0.9,0-1.9,0-3.8,0.2l-7.3,0.2l-3.3-0.2
			c-0.2,0-0.5-0.2-0.5,0h-0.5v-0.7h1.4c-0.7-0.2-1.2-0.5-1.4-0.5h-1.7l-0.5-0.2l-10.4-0.5h-1.9c-0.5,0-1.2,0-1.7,0
			c-0.2,0-0.5,0-0.5,0c-0.9,0-3.1-0.2-5.7-0.7c-0.7,0-1.4-0.2-2.1-0.2c-0.2,0-0.5,0-0.7,0.2c-0.7-0.2-1.7-0.5-2.4-0.5l14.5-24.2
			c15.4-25.6,22.8-38.9,23-38.9c1.2-0.2,1.7-0.7,1.9-0.9c0-0.2,0.2-0.5,0.5-0.5l1.4,0.2c1.7,0,6.2-0.5,13-1.7
			c0.7-0.2,3.6-0.5,8.1-0.5h3.3c20.6,0,32.2,4,34.9,12.3c1.2,3.6,1.7,6.9,1.7,10.4c0,1.2,0,2.8-0.2,5c-0.5,4-0.9,6.2-0.9,6.4l-5,9.2
			c-0.9,1.9-1.9,3.1-2.6,3.6c-0.2,0-0.5,0.2-0.7,0.7l-1.7,1.9c-12.6,14.2-23.7,26.6-35.8,34.9c-2.1,1.4-3.1,2.4-3.3,2.6
			c-0.5,0.9-11.5,9.2-17.6,13.6l1.8,0.4c4.4-3.3,9-6.8,13.9-10.5c11.1-8.3,20.6-15.9,28.7-22.3c7.8-6.6,12.1-10.7,12.6-12.1v-0.2
			c0.5-0.2,0.7-0.5,0.9-0.9c0-0.2,0.2-0.5,0.7-0.9l0.5-0.5l0.2-1.2l0.5,1.4l2.4-3.3c0.9-1.4,1.4-2.4,1.7-2.4
			c-2.1,4.7-4.5,7.8-7.1,9.5c-0.2,0-0.5,0-0.5,0.2c0.9,0,0.9,0.2,0.9,0.5l-0.5,0.2c-0.5,0-0.7,0-0.9,0.2l-0.2,0.2l0.5,0.5h0.2
			l0.2,0.2h0.2c0,0.2-0.2,0.2-0.5,0.2h-1.2c0.5,0.5,0.5,0.5,0.5,0.7c0.2,0.2,0.2,0.2,0.2,0.5l-1.7,1.4h0.5l-3.8,3.8
			c0-0.2,0.2-0.2,0.5-0.2c-0.7,1.7-2.1,2.8-4,3.8l-1.7,1.4l0.2,0.5c0,0.2-0.2,0.2-0.5,0.2c-0.2,0.2-0.9,0.7-1.7,1.7
			c-0.7,0.9-0.9,1.4-1.4,1.4s-1.4,0.7-3.1,2.4l-2.6,2.6l3.1-2.4l-0.5,0.7c-1.2,1.9-2.4,2.6-2.6,2.6s-0.2-0.2-0.2-0.7v-0.5h-0.2
			l-2.1,1.7c-0.7,0.7-0.9,0.9-1.2,0.9c-0.7,0.5-0.9,0.7-0.9,0.7v0.5h0.7l0.2-0.2l-0.5,0.7c0,0.2-0.7,0.7-0.9,0.9l-0.2-0.2l0.7-0.9
			c-0.2,0-0.5,0.2-0.7,0.5c-0.2,0.2-0.9,0.7-0.9,0.7l-1.2,1.2l0.9-0.5c0.2,0,0.7,0,0.9-0.2v0.5h-0.2l-0.4,0.7
			c-0.2,0.2-0.5,0.2-0.7,0.2s-0.5,0-0.7,0.2l-0.7,0.7c0,0.2-0.2,0.5-0.5,0.7h-0.2l0.7-1.2l-0.2-0.2c-2.1,1.7-3.8,3.1-5,3.8
			c-0.9,0.5-1.2,1.4-1.2,1.7l0.9-0.5v0.5l-1.4,1.2c-0.5,0.2-0.7,0.2-0.9,0.2l-0.2-0.2l1.4-1.2l-0.2-0.2c-4,2.6-5.9,4.3-5.9,5
			l0.2,0.2c0,0.2-0.5,0.5-1.4,1.2l0.7-0.9l-0.2-0.2c-0.9,0-3.1,2.6-4,2.6l-2.4,1.7l-0.5,0.7l0.4,0.1l0.6-0.3
			c-0.1,0.1-0.3,0.2-0.4,0.3l2.3,0.5c0.1,0,0.2-0.1,0.2-0.2c0.7-0.5,1.2-0.7,1.4-1.2l-0.2-0.5l0.2,0.2c0.7,0,2.1-1.2,4.5-3.3
			c2.6-2.4,4-3.1,4.5-3.1c0.2,0,0.5-0.2,0.7-0.7l0.7-1.2c0.2-0.5,0.7-0.7,1.4-0.7c0.9,0,3.8-2.4,3.8-3.3c0-0.2,0.2-0.2,0.5-0.2
			c0.2,0,0.7,0,0.9-0.2c1.2,0,5-4,5.2-5l-0.2-0.2l0.7,0.2c0.2,0,0.7-0.2,0.9-0.5c0.2,0,0.7-0.7,0.9-0.9c0-0.2,0.2-0.7,0.5-0.7
			l-0.2-0.5l0.5,0.2c0.2,0,0.5-0.2,0.7-0.5l1.2-0.9c0.2-0.2,0.7-0.2,0.9-0.2c0.2,0,0.5,0,0.7,0.2l0.2,0.2v0.2h0.2v-0.9
			c0-0.7,0.7-1.4,1.9-2.6l3.6-3.6c3.3-2.6,5.2-5,5.9-6.6c0.2-0.5,0.7-0.9,1.4-1.4c5.2-3.6,16.8-23.5,16.8-30.6v-0.7
			c-0.2-0.2-0.2-0.5-0.2-0.7c0.2-0.2,0.2-0.5,0.2-0.7l0.2-0.2c0.2-0.2,0.5-0.2,0.5-0.2c-0.2-0.2-0.2-0.2-0.7-0.5l0.9-1.4
			c0.2-0.2,0.2-0.7,0.2-0.9c-0.2,0-0.2,0-0.2,0.2l-0.5,1.2c-0.2,0-0.2-0.7-0.2-2.4c0-2.1,0-3.3,0.2-3.6c0-0.2,0-0.5,0.2-0.5l0.5,0.9
			v0.5l0.2,0.7c0.2,0.9,0.5,1.7,0.5,2.8c0,0.5,0,1.2-0.2,2.4v3.3c0.2,0.2,0.2,0.2,0.2,0.5L453,106c-2.4,6.9-5.7,12.8-10,18.3
			c-0.5,0.7-0.7,1.2-0.7,1.4l-1.2,0.9c-1.7,1.2-1.2,1.7-1.4,1.7l0.9-0.2v0.7l-0.5,0.5c-0.7,0-5,4-5.7,4.7l0.5,0.5
			c0,0.2-1.4,0-2.1,0.7v0.5l1.2-0.5c0,0.2,0,0.2-0.2,0.2l-1.7,0.9l-2.1,1.9c-0.2,0.7-0.7,1.4-1.4,1.7l-0.2,0.2h-0.5v0.7
			c0,1.7-9.2,9.7-11.1,9.7c-0.2,0-1.2,0.5-2.4,1.4c0,0.2-1.4,0.7-1.2,0.9c-0.2,0.2-0.5,0.5-0.7,0.5s-0.5,0.2-0.5,0.2l0.2,0.9
			c0,0.5-0.9,1.4-2.6,2.8c-1.9,1.2-3.6,2.1-5.2,2.8c-0.7,0.2-1.2,0.7-1.7,1.4c-0.5,0.9-1.4,1.2-2.4,1.7l-0.9,0.5
			c0,0.7-0.2,1.2-0.9,1.7l-4,3.1l1.5,0.3c0.4-0.2,0.7-0.4,0.8-0.6c0-0.2,0-0.2,0.5-0.7c0.5,0,0.9-0.2,1.4-0.9
			c0.2-0.5,0.7-0.7,1.2-0.7c0.2,0,2.1-1.4,5.9-4.5l12.8-10c12.3-9.5,18.5-15.4,19-17.1c0-0.2,0.5-0.7,1.2-1.2c0-0.2,0.7-0.9,0.9-1.2
			c0.2-0.2,0.2-0.2,0.2-0.5v-0.5c0.2,0,0.2,0,0.5-0.2v-0.2l0.5-0.5c0.2,0,0.5-0.2,0.9-0.9c0.7-1.2,1.2-1.9,1.9-2.6
			c3.8-3.8,6.9-9,10-15.4c1.7-4,2.6-7.1,2.6-9c0-0.7,0-0.9,0-1.4l0.5-0.7c0-0.5,0-0.7,0.2-0.9c0.2-1.2,0.2-2.1,0.2-3.3
			C457.5,90.3,457.3,87,456.6,85.3z M349.6,108.6c0.5-0.7,0.7-0.9,0.9-0.9v0.7l-0.2,0.2c0,0-0.5,0.5-0.7,0.5l-0.5,0.2
			C349.1,109,349.4,108.8,349.6,108.6z M347,112.6l0.9-1.4h0.5v0.2c-0.2,0.7-0.5,0.9-1.2,1.7l-0.5,0.5
			C346.8,113.3,346.8,112.8,347,112.6z M346.1,112.6c0.7-0.9,0.7-0.7,0.7-0.7v0.2l-1.2,1.7c0,0.7-1.7,3.3-2.1,3.3
			C343.5,116.6,344.4,115.2,346.1,112.6z M337.5,127c0-0.2,0.2-0.5,0.5-0.9l0.7-0.2l-0.7,1.2l-0.7,0.5
			C337.3,127.3,337.3,127.3,337.5,127z M319.3,137.2c-0.5,0-0.7-0.2-0.7-0.2h1.9c0.2,0,0.2,0,0.5,0.2H319.3z M321.4,137.5l0.2-0.2
			h0.5l0.9,0.2H321.4z M393.3,137.5h0.5l-0.2,0.5l-0.2-0.2L393.3,137.5L393.3,137.5z M383.3,135.1h0.5l-0.2,0.2h-0.5L383.3,135.1z
			 M371.2,133.7h0.9l0.9,0.5l0.5-0.5c0.2,0.5,0.2,0.5,0.2,0.7l-0.5,0.2l-0.9-0.2l-0.5,0.2l-0.7-0.5v-0.4H371.2z M368.6,133.7
			l0.9,0.5l-0.9,0.2V133.7z M368.6,135.8l2.1,0.7c-0.2,0-0.7,0-2.1-0.2V135.8z M367.6,135.8l0.5,0.5c-0.2,0.2-0.5,0.2-0.5,0V135.8z
			 M365.3,135.6c0.5,0,0.5,0,0.5,0.2h-0.5V135.6z M349.4,116.6c0-0.7,3.6-6.4,4-6.6c-1.2,2.8-2.1,4.5-2.6,5
			c-0.2,0.7-0.7,1.2-0.9,1.4l-0.7,0.5L349.4,116.6z M350.3,119.7v0.2c0,0.2-0.2,0.5-0.5,0.5h-0.5l0.7-0.9
			C350.3,119.5,350.3,119.5,350.3,119.7z M347.3,119.5c0.5-0.7,0.9-1.2,1.2-1.2l-0.2,0.2c-0.2,0.7-0.2,1.4-0.5,1.7
			c-0.2,0.2-1.2,1.7-1.2,1.9c-0.2,0.5-0.7,0.7-0.9,0.7L347.3,119.5z M348.2,123.3l-0.7,1.4c-0.2,0.2-0.2,0.2-0.5,0.2v-0.5
			c0,0,0-0.2,0.2-0.5C347.5,123.7,347.7,123.5,348.2,123.3z M343.9,125.9c0.5-0.7,0.7-1.2,0.9-1.2c0,0.2,0,0.9-0.7,1.7l-0.9,0.9
			L343.9,125.9z M341.1,129.7c0.2,0,0.5,0,0.5-0.2h0.2v0.2l-0.5,0.7h-0.2c-0.5,0-0.7,0-0.7-0.2C340.6,130.1,340.9,129.9,341.1,129.7
			z M339,133.7h0.2c0.2,0,0.2,0,0.2,0.5l-0.2,0.2h-0.7C338.7,134.2,339,133.9,339,133.7z M338.5,135.8c-0.2,0.5-0.5,0.7-0.7,1.2
			c-0.2,0-0.5-0.2-0.7-0.2c0.2-0.2,0.5-0.7,0.7-0.9h0.7V135.8z M337.3,134.2h-0.2l0.5-0.5C337.3,133.9,337.3,134.2,337.3,134.2z
			 M336.3,135.6c-0.2,0.2-0.5,0.7-0.5,1.2c-0.5,0-0.9-0.2-1.2-0.2l0.2-0.5v-0.2l0.2-0.2L336.3,135.6L336.3,135.6z M336.1,139.6
			c-0.7,1.2-1.2,1.7-1.2,1.7c0-0.5,0.5-0.9,0.7-1.7H336.1z M334,135.6h0.5l-0.2,0.2l0.2,0.5l-0.5-0.5V135.6z M326.4,135.3h0.7
			c0.9,0,0.9,0,0.9,0.2L326.4,135.3z M328.5,135.6l0.5-0.2h0.9c0.7,0,1.2-0.2,1.4-0.2v0.2c0,0.2-0.2,0.2-0.2,0.5h-1.4L328.5,135.6z
			 M305.3,194.9l-1.4,2.8c0.5-1.7,0.9-3.1,1.7-4.3C305.5,193.7,305.3,194.6,305.3,194.9z M306.5,200.1c-0.5,0-0.7-0.2-0.7-0.5
			c0.2-0.5,0.7-0.7,0.9-0.7h0.2l0.2,0.5C306.9,199.8,306.7,200.1,306.5,200.1z M307.7,190.6c-0.2,0.5-0.2,0.7-0.2,0.9
			c-0.2,0.2-0.2,0.2-0.5,0.2c-0.2,0-0.2,0.2-0.5,0.5c-0.2,0.5-0.2,0.7-0.2,0.7h-0.5v-0.4l1.4-3.3c0-0.2-0.2-0.2-0.5-0.2l-0.2,0.2
			c-0.7,0-0.9,0.2-0.9,0.7v1.9l-0.2,0.2l-0.7-0.2v1.2c-0.5,0.5-0.7,0.7-0.7,0.9v0.5h0.2l-1.9,4.5c-0.7,1.4-1.2,2.8-1.4,4l-0.7,5
			l-0.5,1.2c-0.7,0-0.9-0.5-0.9-1.2c-0.2-0.5-0.2-0.9-0.2-1.7c0-5,6.6-19.4,9-23.7c2.4-4.5,9-17.5,20.6-39.4c0.9-1.7,1.7-3.1,2.4-4
			h1.9l0.2,0.2c-0.5,0.7-1.4,2.8-2.4,2.8l-0.5-0.5c-0.2,0-0.7,0.9-1.7,2.8c-1.2,2.1-1.7,3.3-1.7,3.6l1.9-2.8
			c0.2-0.5,0.5-0.7,0.7-0.7l-1.4,3.1l0.2,0.5c0.2,0,0.5-0.5,0.9-1.4c0.2-1.2,0.5-1.9,0.5-1.9v-1.2c0-0.7,0.2-0.9,0.5-0.9
			c0.2,0,0.2,0,0.5,0.2v0.5l-0.2,0.2c0.2,0,0.5-0.5,0.9-1.2l2.1-3.1h0.2l0.9,0.2l-1.2,3.1v0.9l1.4-1.9l-0.5,1.7
			c-0.2,0.7-0.7,1.4-1.4,1.7c-0.7,0.2-1.9,1.4-1.9,2.6l-2.1,2.6c-0.2,0.2-0.5,0.7-0.5,0.9l-0.2,0.7c-0.2,0.2-0.2,0.2-0.5,0.2
			l-0.2,0.2h-0.2l0.5,0.9c0,0.2-0.2,0.5-0.7,0.9c-0.5,0.5-0.7,0.7-0.7,1.4v0.5h-0.2c0,0.2-0.2,0.2-0.2,0.2l-1.9,3.3
			c-0.9,0.9-1.4,1.9-1.4,2.8h0.5c0-0.5,0-0.7,0.2-0.7s0.2,0,0.2,0.2c0,0.7-0.7,2.1-1.7,2.1l-0.9-0.5v0.5c0.2,0.5,0.9,1.4,0.7,1.4
			l-0.5,0.7c0,0.2,0,0.5-0.2,0.7l-0.5,0.5l0.2-1.4c0-0.2,0-0.2-0.2-0.2l-0.2,0.7c0,2.8-5.9,14.5-7.8,14.5l-0.2,0.2v0.5l0.2,0.2h0.5
			c-0.5,0.2-0.7,0.9-0.9,1.7l-0.2,0.2c0,0.7-0.2,1.2-0.5,1.2c-0.7,0-0.9,0.2-1.2,0.9c-0.5,1.2-0.5,2.1-1.2,2.8
			C307.9,189.4,307.7,189.9,307.7,190.6z M329,151c0-0.2,0.2-0.5,0.5-0.7l3.1-4.7v0.2c-0.7,0.9-0.9,1.9-2.1,4
			c-0.5,0.7-0.9,1.2-1.2,1.2H329z M329.2,151.7v0.2c0,0.5-0.7,1.7-1.9,3.3c0,0.2,0,0.5-0.2,0.5h-0.2l1.7-4l0.5-0.2
			C329.2,151.5,329.2,151.5,329.2,151.7z M325.2,159.5l-1.2,1.2c0-0.2,0.2-1.2,0.5-1.2l0.2-0.2C325,159.3,325.2,159.3,325.2,159.5z
			 M334.4,150.5l-0.2,0.7L334,151c0.2-0.9,0.2-0.9,0.5-0.9L334.4,150.5L334.4,150.5z M339.4,142.9H339l-0.2-0.2v-0.2
			c0.2-0.2,0.7-0.2,0.7,0v0.4H339.4z M339.9,140.1c-1.2,1.2-2.1,2.8-2.4,4.5c-0.2,1.9-2.4,2.8-2.4,4.5h-0.7c-0.2,0-0.7,0.7-1.2,2.1
			c0,0.5,0,0.7,0.2,0.7c0,0.2,0,0.2-0.2,0.5c-1.2,0.5-1.7,0.9-1.7,1.4l-0.7,1.4c-0.2,0-0.5,0.2-0.5,0.9l0.7-0.5v0.5
			c0,0.2,0,0.5-0.2,0.9c-0.2,0.2-0.2,0.5-0.5,0.5h-0.9c-0.2,0-0.2,0.2-0.2,0.5l0.2,0.9c-0.2,0.2-0.2,0.5-0.5,0.5
			c-0.7,0.2-0.9,0.5-1.2,0.9v0.7l-0.9,2.1l-2.1,3.3c-1.4,2.1-1.9,3.1-1.9,3.3l-5.7,11.1c0,0-0.2,0.7-0.9,1.9c-0.5,0.7-0.9,1.9-2.1,4
			l-3.3,6.6c-0.2,0.2-0.2,0.5-0.2,0.7c-0.2,0.5-0.2,0.7-0.2,0.7c-0.2,1.2-0.5,1.9-0.9,1.9c-0.2,0-0.2-0.2-0.2-0.5l0.7-2.1l-0.7,0.5
			c-0.2,0-0.5-0.2-0.7-0.5v-0.9l0.2-0.2c0.2-0.2,0.7-1.2,1.2-2.6c0.5-1.2,1.2-2.4,2.4-3.3l-0.5-0.7c0.2-0.5,1.4-1.7,2.6-4.3l0.5-0.9
			c0-0.7,0.7-2.4,2.1-4.5l2.1-3.1l-0.9,1.7h0.2c0.5-0.5,0.9-1.7,1.7-3.6c0.7-1.9,0.9-2.8,1.2-2.8h0.7c0-0.5,0.2-1.7,0.9-1.7
			l6.4-11.4c3.8-7.3,6.9-12.8,8.8-16.1h2.1L339.9,140.1z M341.8,136.5l-0.7,0.7c-0.5,0-0.9-0.2-1.4-0.2c0.2-0.2,0.5-0.7,0.7-0.9
			l0.2-0.2h0.9l-0.2,0.2l0.5-0.2c0.2,0,0.5,0.2,0.9,0.2C342.5,136.3,342.3,136.5,341.8,136.5z M341.6,134.6l0.2-0.2v-0.2
			c0.2,0,0.5,0.2,0.9,0.2h0.5l0.2,0.2H341.6z M362,134.6c0,0.2,0,0.5-0.2,0.2c0,0-0.7,0-0.7-0.2H362z M349.9,134.6h5.9
			c0.7,0,0.9,0,0.9,0.2v0.5c0.2,0,0.5,0,0.5-0.2c0-0.5,0.5-0.5,0.5-0.5l-0.5,0.5h0.7l0.2,0.2c0.2,0,0.9,0,0.9-0.2v-0.5l0.2,0.2h0.2
			c0,0.2,0,0.2,0.2,0.5h3.1l0.7,0.2c-0.2,0.2-1.4,0.2-3.8,0.2l-4.7-0.5c-2.4,0-4.3-0.2-5.2-0.2c-0.2,0-0.5,0-0.5,0l-4-0.2
			c0-0.2,0.2-0.5,0.2-0.7c0.2,0,0.5-0.2,0.5-0.5l0.2,0.5L349.9,134.6z M348,127.5l-0.7-0.9l-0.5,0.2l0.7,2.4c0,0.2-0.5,0.5-1.4,0.7
			s-1.4,0.5-1.7,0.9l-0.2-0.2l-0.7,0.2c0.2-0.7,0.9-1.7,1.7-3.1c1.2-1.2,2.1-1.9,2.8-1.9l0.2-0.2c0.2,0,0.2-0.2,0.5-0.9
			c0-0.2,0.5-0.9,1.2-1.7l0.5-0.5C350.3,123.3,348.4,127.5,348,127.5z M351,121.6c0,0.2-0.2,0.5-0.5,0.5l-0.2-0.5l0.5-0.5h0.2V121.6
			z M352,116.4l-0.7,1.4c-0.2,0.2-0.5,0.5-0.7,0.5h-0.2l0.2-0.5c0.7-1.2,0.7-2.1,1.7-2.1C352.2,115.9,352,116.1,352,116.4z
			 M353.9,114.7c-0.5,0.2-0.7,0.5-0.9,0.5h-0.2c0,0,0-0.2,0.5-0.7l0.9-0.9C353.9,114,353.9,114.5,353.9,114.7z M356.3,110.2
			c-0.5,0.7-0.7,1.2-0.9,1.2v-0.5l0.2-1.2v-0.2c0.2-0.5,0.5-0.7,0.7-1.2l0.9-1.2c0.2-0.2,0.5-0.5,0.7-0.5l0.2,0.2L356.3,110.2z
			 M351.8,70.4c0,0,0.2,0,0.5-0.2c0.2,0,0.5-0.2,0.7-0.2v0.5c-0.2,0-0.5,0-0.5,0.2l-0.9,0.2C351.5,70.6,351.5,70.6,351.8,70.4z
			 M345.6,73.2c0.2-0.2,0.5-0.2,0.7-0.2c0,0.2-0.2,0.5-0.7,0.5l-0.7,0.2C344.6,73.7,345.6,73.2,345.6,73.2z M332.8,79.2h0.7
			c-0.7,0.7-0.9,0.7-0.9,0.7h-0.5C332.1,79.6,332.3,79.4,332.8,79.2z M309.1,99.3c0-0.2,0.7-1.2,2.4-2.4c1.2-0.9,2.1-1.7,2.4-2.4
			l0.2-0.2l0.5,0.5C314.5,95.5,309.8,99.3,309.1,99.3z M319.3,98.8c0,0.2-0.2,0.5-0.5,0.5h-0.2l-0.2-0.2c0.2-0.2,0.2-0.2,0.5-0.2
			c0-0.2,0.2-0.2,0.7-0.2L319.3,98.8z M362.2,83.2v0.7l-0.5-0.5c0-0.5,0.5-1.9,1.2-1.9h0.7V82c0,0-0.2,0.2-0.7,0.5
			C362.4,82.7,362.2,82.9,362.2,83.2z M365.5,87.7c-0.2,0.7-0.9,1.4-0.9,1.7c-0.2,0.2-0.2,0.5-0.5,1.2c0,0.5-0.2,0.9-0.5,1.2
			c-0.2,0-0.2-0.2-0.2-0.7c0,0,0.2-0.5,0.5-1.7l0.7-1.2l0.9-0.7V87.7z M359.3,73l-7.4,3.1c-5.9,2.6-9.2,4-10.4,4.7
			c0,0.2-0.5-0.2-3.3,1.4l-12.3,6.6c-7.1,3.8-10.7,5.9-10.9,5.9h-0.2c0-0.2,0-0.2,0.2-0.5c0,0,0.2-0.2,0.5-0.7
			c0.2-0.2,0.5-0.5,0.7-0.5c0.5,0,0.7-0.2,0.9-0.5c0-0.2,0.2-0.2,0.7-0.5c0.5-0.2,0.9-0.5,1.4-0.9c0.2-0.7,5-3.1,5.2-3.1
			c0.5,0,0.7-0.2,0.9-0.5c0-0.7,0.9-1.4,2.8-1.7l1.9-0.9c16.1-8.1,28-14,36-16.1l1.9-0.5l0.2,0.2C368.1,69.2,365.3,70.6,359.3,73z
			 M366.2,67.3l-1.9,0.9c-0.5,0.2-0.9,0.5-1.4,0.5l-0.9-0.2c-0.7,0-1.2,0.2-1.2,0.9c-0.2,0.2-0.5,0.2-0.7,0.2
			c-1.2,0-2.6,0.5-4.3,1.4c-0.7,0.7-1.4,0.9-1.9,0.9c-0.2,0-0.7,0-1.2,0.2c-0.2,0.2-0.5,0.5-0.9,0.5c-0.9,0-1.9,0.5-2.6,1.2
			l-0.7,0.7c-0.2,0-0.2,0-0.2-0.2v-0.2H348c-0.2,0-0.5,0.2-0.9,0.7c-1.4,1.4-3.1,2.1-4.7,2.1h-0.9l0.7,0.7h-1.7
			c-0.2,0-1.4,0.7-3.1,1.7l-1.2,0.7c-0.2,0.2-0.7,0.5-1.4,0.5l-0.5-0.2v0.5l-0.5,0.7c-0.2,0-0.2,0-0.5,0.2h-0.5
			c-0.7,0.5-1.2,0.7-1.9,0.7c-0.2,0-0.7,0.2-0.9,0.5c-0.9,0.9-2.4,1.4-3.8,2.1l-0.2,0.2c-0.2,0.2-0.5,0.2-0.7,0.2H325v0.2
			c0,0.7-0.9,0-3.1,1.9c-0.9,0.9-1.9,1.4-2.6,1.4s-1.7,0.5-2.8,1.4c-0.7,0.5-0.9,0.7-1.4,0.9v0.5l0.2,0.2l-0.5-0.2
			c-0.2,0-0.9,0.5-1.9,1.2c-1.2,0.7-1.9,1.2-2.4,1.4l-1.2,1.2l-0.2-0.7c-0.5,0.7-1.7,1.7-3.3,2.8l-1.9,1.2c-0.7,0.5-0.9,0.5-1.2,0.5
			c0.2-0.2,2.4-2.1,6.6-5.2l6.2-5c0.7,0,2.8-0.5,3.1-1.2c0-0.9,2.1-2.1,2.8-2.1l0.7,0.2l0.2-0.5l-0.2-0.2c0.5-0.2,0.7-0.2,0.9-0.2
			c0-0.2,0-0.5,0.2-0.7h0.7c0.7,0,1.4-0.2,2.6-0.9l0.5-0.7l-0.2-0.5c1.2,0,3.6-0.2,4-1.4c0-0.2,0.5-0.5,1.2-0.5c1.4,0,2.8-0.9,4-2.6
			c0.5-0.5,0.7-0.7,0.9-0.7l-0.5,0.9l0.9-0.2c0.5-0.5,0.9-0.7,1.2-0.7l0.2-1.2l1.4,0.7c0.2,0,0.2,0,0.5-0.2v-0.7
			c2.4,0,5.7-1.9,7.6-3.1l1.2-0.7l-0.9,0.2c0.2-0.5,0.5-0.7,0.9-0.7l0.7,0.2c1.2,0,7.4-2.8,7.4-3.3H357l-1.7,1.2
			c0.9-0.9,3.6-2.8,4.7-2.8v0.2c0,0.2-0.9,1.7-1.4,1.9c0.2,0,0.5-0.2,0.9-0.7c0.9-0.9,1.7-0.9,1.9-0.9h0.5c0.2-0.5,0.2-0.7,0.5-0.7
			h0.5c0.2,0,0.2,0,0.2,0.2v0.5c0.2,0,0.7-0.2,0.9-0.5c0.2,0,0.5-0.2,0.5-0.7h-0.2l-0.2,0.2V66c0.5-0.7,1.4-1.2,2.6-1.2
			c0.7,0,0.9,0,0.9,0.2l-2.1,0.7v0.2l4.3-0.2C369.8,66.1,368.6,66.6,366.2,67.3z M371,65.2c-0.2,0-0.2,0-0.5-0.2
			c0.2-0.7,1.2-0.5,1.2-0.2C371.4,64.7,371.4,65.2,371,65.2z M417,59.9c-0.9,0.2-4,0.2-5.2,0.2c-9.7,0-16.1,0.5-19.2,1.7
			c-0.7,0.2-1.4,0.2-1.9,0.2c-0.2,0-0.2,0-0.5,0.2l-2.2,1.3c-0.2,0-0.5,0-0.5-0.2v-0.5c0-0.9,4-1.9,4.7-1.9l0.2-0.2l7.8-0.9
			c5-0.2,9-0.2,12.6-0.2s5.5,0,5.9,0.2C418.6,59.9,418.1,59.9,417,59.9z M423.4,61.4c-0.2,0-0.2,0-0.2-0.2l0.2-0.9l0.5,0.7
			L423.4,61.4z M442.3,64.5c-5.2-2.6-10-5-14.9-5.2c-1.2-0.2-1.7-0.2-1.7-0.5c-0.2-0.2-0.2-0.2-0.5-0.2c0.2,0-1.2-0.2-1.7-0.2
			c-2.1-1.4-6.9-1.4-9.5-1.4l-1.7,0.2l-0.2,0.2c-0.2,0.2-0.2,0.2-0.5,0.2c-0.2,0-0.5,0-0.7-0.2c-0.5-0.2-0.7-0.2-0.7-0.2
			c-0.2,0-0.5,0-0.9,0.2v0.2l-0.2-0.2v-0.2c0-0.2-0.9-0.2-2.8-0.2c-1.7,0-3.3,0.2-4.5,0.5l-0.2,0.2l2.4,0.2c2.1,0,3.1,0,3.1,0.2
			l-5.5,0.7c-2.4,0-4.3,0.2-5.7,0.5c-1.2,0-2.4,0.2-3.1,0.5l-5.5,0.5l1.4-0.7c0.9-0.5,1.7-0.2,2.1-0.2l8.5-1.2c0.2,0,0.5,0,0.7-0.2
			l0.2-0.2l-0.9-0.2c-3.8,0-7.8,0.7-11.4,1.7l1.4-0.9c0.7-0.5,1.2-0.2,1.7-0.2c7.1-1.7,13.8-2.6,19.7-2.6c10,0,20.4,1.9,29.2,7.1
			c2.6,1.7,3.8,2.6,3.8,2.8L442.3,64.5z M443.8,114c-0.2,0.2-0.2,0.2-0.5,0.2c0.2-0.7,0.5-1.2,0.7-1.2s0.2,0,0.2,0.2L443.8,114z
			 M393,166.4v0.2l-0.2,0.2h-2.1l2.4-1.7c1.2-0.9,2.1-1.2,2.4-1.2C394,165.2,393.3,166.2,393,166.4z M400.8,160l-1.7,0.7
			c-0.5,0.2-0.7,0.5-0.9,0.5l1.2-0.9c0-0.2,0.7-0.7,0.9-0.7l0.7-0.2h0.5L400.8,160z M408.4,153.6c-0.2,0.7-0.9,0.9-1.7,1.9l-1.7,1.2
			l0.2-0.2c0.2-0.7,0.9-1.4,1.7-1.9l1.7-1.2L408.4,153.6z M446.8,111.2c0,0.2-0.5,0.7-0.7,0.7s-0.5,0-0.5-0.2
			c0.2-0.7,0.7-1.4,0.9-1.7c0.2,0,0.2,0.2,0.2,0.7v0.5H446.8z"/>
		<polygon class="st0" points="419.8,147.7 419.1,148.1 420,148.1 420.5,147.7 		"/>
		<path class="st0" d="M345.1,129.4h0.2c0.7,0,1.2-0.5,1.2-1.2V128l-1.2,0.9C345.1,129.2,345.1,129.2,345.1,129.4z"/>
		<path class="st0" d="M348.7,106.7c-0.2,0-0.5,0.5-0.7,1.2h0.2l0.7-1.2H348.7z"/>
		<path class="st0" d="M339,127.5c0,0.7-0.2,1.7-0.2,1.7l0.5-0.9c0.7-1.4,1.2-2.1,1.2-2.4c0.5,0,0.7-0.2,0.7-0.5l-0.5-0.2
			c-0.2,0-0.5,0.2-0.7,0.7C339.7,126.1,339.2,126.8,339,127.5z"/>
		<path class="st0" d="M432.4,131.3L432.4,131.3L432.4,131.3L432.4,131.3z"/>
		<path class="st0" d="M432.1,131.8c0-0.2,0.2-0.5,0.2-0.5l-0.7,0.7C431.9,132,431.9,132,432.1,131.8z"/>
		<path class="st0" d="M355.6,92.9V92c-0.2,0-0.2,0.2-0.5,0.5V93h0.2v0.2C355.6,93.1,355.6,93.1,355.6,92.9z"/>
		<path class="st0" d="M352,101c-0.2,0-0.2,0.2-0.5,0.5c-0.2,0.5-0.7,0.9-1.2,1.2l-0.2,0.5C350.6,103.1,352,101.4,352,101z"/>
		<path class="st0" d="M354.1,97.4v-0.5c-0.5,0-0.7,0.7-0.9,1.4h0.2c0.2,0,0.2,0,0.5-0.2C353.9,97.9,354.1,97.6,354.1,97.4z"/>
		<path class="st0" d="M308.6,186.3h-0.7c-0.5,0-0.9,0.2-1.2,0.9l0.5,0.5l0.5-0.2C308.6,187,308.6,186.6,308.6,186.3z"/>
		<path class="st0" d="M323.8,156.2l-0.2-0.2l-0.9,0.5l-0.5,0.9c0.2,0,0.5,0,0.7-0.2L323.8,156.2z"/>
		<path class="st0" d="M321.4,157.2c0.2,0,0.2-0.5,0.2-0.5l0.2-0.2V156c-0.2,0-0.2,0-0.5,0.2c-0.2,0-0.2,0.5-0.2,0.7
			c-0.2,0.2-0.2,0.2-0.2,0.5h0.2L321.4,157.2z"/>
		<path class="st0" d="M325.2,151.9l0.2,0.5c0.2,0,0.5-0.2,0.7-0.7l0.9-1.4c0.2-0.2,0.2-0.7,0.5-1.2l-0.5-0.2l-0.9,1.4
			c0,0.2-0.2,0.7-0.5,0.9C325.7,151.2,325.4,151.7,325.2,151.9z"/>
		<path class="st0" d="M321.9,159.1c-0.7,0-0.9,0.2-1.2,0.9v0.7C320.9,160.7,321.2,160.2,321.9,159.1z"/>
		<path class="st0" d="M325.2,153.4l-0.5-0.7c-0.5,0.2-0.5,0.2-0.5,0.5v0.7h0.2L325.2,153.4z"/>
		<path class="st0" d="M323.8,152.9v-0.7l-0.5,0.9c-0.2,0.2-0.2,0.5-0.2,0.7h0.2L323.8,152.9z"/>
		<path class="st0" d="M325.9,149.3v-0.7c-0.2,0-0.2,0-0.5,0.2l-0.5,0.5l0.5,0.2C325.7,149.6,325.7,149.6,325.9,149.3z"/>
		<path class="st0" d="M309.3,183.5l0.2-0.2v-0.2l-0.2-0.2c-0.2,0-0.2,0-0.2-0.2l-0.2,0.2l0.2,0.9
			C309.3,183.7,309.3,183.7,309.3,183.5z"/>
		<path class="st0" d="M320.5,161.7l-0.2-0.2c-0.5,0-0.7,0.2-0.7,0.5v0.2c0,0.2,0.2,0.2,0.5,0.2
			C320.2,162.4,320.5,162.1,320.5,161.7z"/>
		<path class="st0" d="M315.2,171.1c-0.2,0-0.5,0.2-0.7,0.9c-0.2,0.2-0.7,1.9-0.9,2.1l-0.5,1.9l0.9-1.4L315.2,171.1z"/>
		<path class="st0" d="M312.2,178c0.2,0,0.2,0,0.2-0.2s-0.2-0.5-0.5-0.5c-0.2,0-0.2,0-0.5,0.2l-0.5,0.7v2.4c0.5,0,0.7-1.2,0.7-1.4
			L312.2,178z"/>
		<path class="st0" d="M310.3,182.3c0.2,0,0.2-0.2,0.2-0.5l-0.2-0.7h-0.5c0.2,0.7,0.2,1.2,0.2,1.2H310.3z"/>
		<path class="st0" d="M319.7,163.6v-0.2c0-0.2-0.2-0.5-0.5-0.5H319v0.2l0.2,0.5H319.7z"/>
		<path class="st0" d="M319.3,87.7l0.9-0.2l0.9-0.9C320.9,86.5,319.3,87.4,319.3,87.7z"/>
		<path class="st0" d="M318.3,163.1l0.5-1.2l-0.9,0.9c-0.2,0.2-0.2,0.5-0.2,0.5l0.2,0.2L318.3,163.1z"/>
		<path class="st0" d="M316.2,167.6l0.7,0.9c0.5-0.5,0.7-0.7,1.2-1.2c0.2-0.2,0.2-0.7,0.5-1.4v-1.2c0-0.2,0-0.5-0.2-0.5v0.7
			c-0.2,0.2-0.2,0.2-0.5,0.2c0,0-0.5-0.5-0.7-0.9v1.4c0.2,0.2,0.5,0.5,0.5,0.9c0,0.2-0.2,0.7-0.5,0.9c0,0-0.2-0.2-0.5-0.2l-0.2-0.5
			c-0.7,0-0.9,0.2-1.2,0.7v0.2c0,0.2,0,0.2,0.2,0.2L316.2,167.6z"/>
	</g>
	<path class="st1" d="M232.3,347.8V229.4h73v117.5c0,25.5,11,38,33.1,38s33.1-12.3,33.1-36.5v-119h73v116.9
		c0,68.1-35.6,102.2-106.8,102.2C267.6,448.5,232.3,415,232.3,347.8z M340.9,165.9l70.9,16l-49.1,35.3h-51.2L340.9,165.9z"/>
	<path class="st1" d="M545.4,229.4h71.8v80.4l61.1-80.4h83.5l-74.9,93.3l76.4,121.5h-85.6l-42-68.1l-18.5,22.4v45.7h-71.8V229.4z"/>
	<path class="st1" d="M824,368.1l-81-138.7h80.4l36.8,70.6l37.1-70.6h79.5l-81,137.8v77H824V368.1z"/>
</g>
</svg>
