<?xml version="1.0" encoding="utf-8"?>
<!-- Generator: Adobe Illustrator 23.1.1, SVG Export Plug-In . SVG Version: 6.00 Build 0)  -->
<svg version="1.1" id="Layer_1" xmlns="http://www.w3.org/2000/svg" xmlns:xlink="http://www.w3.org/1999/xlink" x="0px" y="0px"
	 viewBox="0 0 1000 1000" enable-background="new 0 0 1000 1000" xml:space="preserve">
<g>
	<path fill="#1A0B0C" d="M434,440.8c0-6.6,7.6-25.1,10.9-30.3c0-0.2,0.9-1.7,2.6-4.7c1.7-2.8,3.3-5.7,3.8-6.6l0.5-0.9
		c0.2-0.5,0.9-1.2,1.9-2.4l0.2-1.2l0.7-0.7c0.5-0.5,0.7-0.2,0.7-0.2c0.5,0,0.7,0.2,0.7,0.5v0.2c0,0.2,0.2,0.2,0.5,0.5
		c0.2,0.2,1.4,0.2,3.1,0.2c0.2,0,0.5,0.2,0.5,0.5v0.5c-0.2,0.2-0.2,0.2-0.5,0.2l-1.2-0.2l0.7,0.9c0.5,0.2,0.9,0.5,1.4,0.5
		c1.2,0,2.1,1.9,2.1,3.1c0,0.7,0,1.2-0.2,1.4c0,0.7-0.5,1.7-1.2,2.8l-3.8,6.2c-0.5,0.7-1.7,2.6-3.3,6.2l-4.3,9
		c-1.7,3.8-2.4,5.7-2.6,5.9l-1.4,2.6c-0.5,0.7-0.9,2.4-1.4,4.7l-0.7,2.8c-0.2,0.7-0.2,1.4-0.2,1.9c0,0.2,0,0.5,0.2,0.5l0.9,0.5
		c0.2,0,0.7,0,0.9,0.2c0.5,0,1.2-0.5,1.9-1.2c0.7-0.7,2.6-1.2,6.2-1.9c1.7,0,4.5-2.6,5.7-3.8c-0.5,0-1.2,0.2-2.4,0.9
		c-1.2,0.7-1.9,1.2-2.4,1.2l-0.2-0.2c0-0.5,0.9-1.2,2.8-2.4c3.3-2.4,9-7.3,17.3-14.7l18.5-16.1h0.7l0.9,0.5c0,0.2,0,0.2-0.2,0.2
		l-0.2,0.2c-0.2,0-0.9,0.5-1.2,0.7c0,0.2,0.2,0.2,0.5,0.5l0.2,0.2c0.5,0,0.7,0,0.9-0.2l0.7-0.7c0.2,0,0.5,0.2,0.7,0.5l0.7,0.9
		c0.2,0,0.2,0,0.2-0.2v-0.2c0-0.2,0.2-0.2,0.5-0.2c0.2,0.2,0.2,0.7,0.5,1.4c0,0.9-2.6,2.8-3.3,4.5c0,0.2-0.2,0.5-0.7,1.2l-2.1,2.4
		c-1.7,1.7-2.8,3.1-3.8,4.7l-3.3,4l-5.2,5.2c-0.2,0.2-0.5,0.5-0.7,0.5c-0.2,0-0.2,0.2-0.5,0.5c-4,4-17.3,15.9-20.9,17.1
		c-0.2,0-0.7,0.2-0.9,0.7c-0.2,0-0.2,0-0.5,0.2c-0.2,0-1.2,0.5-1.9,0.5c-1.7,0-3.8,1.2-5.9,1.2C442.1,453.4,434,447,434,440.8z
		 M462.7,437.5l-0.5,0.9c0.2,0,0.7-0.2,0.9-0.5c0,0,1.2-1.2,3.3-2.6l3.1-2.1l15.2-14.5c1.9-1.7,2.8-2.8,2.8-3.1l5.9-5.5
		c0-0.2-0.2-0.5-0.5-0.5c-0.9,0-1.7,0.2-1.9,0.5l-6.9,5.7c-4,3.3-5.9,5.2-6.2,5.5c0,0.2-1.2,1.2-3.6,3.3
		c-10,8.8-14.9,13.3-14.9,13.5v0.2c0.9-0.2,1.7-0.7,1.9-0.9l0.5-0.2h0.7V437.5z M466.1,387.5c-0.2,0-0.2-0.2-0.2-0.9v-0.5
		c0-0.9-0.5-1.4-1.2-1.4c-0.9-0.2-1.4-0.5-1.4-0.5c0-2.6,2.8-10.2,4.5-11.9l4.3-8.8c0.7-0.9,1.2-1.7,1.4-2.4
		c0.2-0.5,0.5-0.7,0.7-0.7l0.7-1.4c0.2-0.9,0.5-1.2,0.7-1.2c0.2,0,0.2,0.2,0.5,0.7c0.2,0.7,3.3,1.9,4.3,1.9c0.5,0,0.9,0,1.7,0.2v0.2
		l-1.2,0.5c-0.7,0-0.9,0.2-0.9,0.7v0.2c0,0.2,0.2,0.2,0.7,0.2l1.9-0.2c0.2,0,0.5,0.2,0.7,0.5c0,0.2,0,0.5,0.2,0.7
		c0,0.5,0.2,0.9,0.7,0.9c0.2,0,0.2,0.2,0.2,0.5c0,3.1-9,15.2-11.1,17.8l-1.4,1.7l-1.4,2.4c-0.2,0.5-1.2,0.7-2.1,0.7H466.1z
		 M467,438.5c1.4-1.7,2.4-2.6,3.1-2.8c1.4,0,17.1-14.5,18.5-17.1c0.2-0.5,0.5-0.7,0.7-0.7c0.2,0,0.7-0.5,0.7-0.7
		c-0.2,0-0.9,0.5-2.1,1.4l-0.9,0.7c-2.6,1.9-4.3,4.3-5.9,5.5c-5.7,5.5-9.5,8.8-11.4,10.2c-0.2,0-0.7,0.2-1.2,0.9L467,438.5z"/>
	<path fill="#1A0B0C" d="M492.8,458.2c-4.5,0-8.5-1.7-11.6-5.2l-2.4-2.6c-0.7-1.7-1.2-3.6-1.2-6.2c0-7.1,3.3-14.9,7.1-20.9l2.4-3.6
		c5.5-8.1,11.6-15.6,18.3-22.5l4.5-4.7c0.9-1.2,2.1-2.1,3.3-2.6l6.6-2.4l1.4-0.2c0.9-0.2,1.7-0.2,2.4-0.2c1.2,0.2,1.9,0.2,2.6,0.2
		c5.5,0,7.6,6.2,7.6,10.7c0,5.2-5.9,15.9-10.4,18.5l-11.6,10c-4.5,3.8-6.9,5.4-7.1,5.4c-0.2,0-1.4,0.2-2.4,1.2
		c-0.9,0.9-2.4,1.4-2.6,1.4c-0.9,0-1.7,0.2-1.9,0.5c-1.9,0-5-2.1-5.4-3.8c0-0.7-0.2-1.2-0.7-1.2c-2.4,0-5.4,14.5-5.4,16.4
		c0,2.6,0.5,5.2,3.6,5.2h0.7c3.3,0,6.6-0.9,10.2-3.1l1.7-0.7c2.6-1.2,4.7-2.6,6.4-3.8c1.2-0.9,2.1-1.4,2.8-1.4l0.5,0.2v-0.5
		c0.2-0.7,0.7-1.2,1.2-1.2l0.7,0.5v-0.2c0.2-0.7,1.7-2.1,5-4c1.7-0.9,3.3-2.4,3.1-2.1c0.7-0.2,1.2-0.5,1.4-0.5l-0.7,1.2l0.7-0.5
		c1.2-1.7,2.6-2.8,4-3.3h0.9c-1.4,1.2-2.1,1.9-2.4,1.9l-1.9,1.4c-0.7,0.2-0.9,0.5-1.2,0.5h-0.2l-0.2,0.5c0,0.2,0.2,0.2,0.5,0.2
		l5.7-4c3.3-2.4,5-3.8,5-4.3l0.2-0.7v0.5l0.9,0.2v-1.7c0.2,0,0.5,0,0.7-0.2h0.2l0.5-0.2c0.2,0,0.5,0,0.9-0.2l0.2,0.2
		c1.2,0,10.2-7.3,10.7-8.8c0.2-0.7,0.2-0.9,0.5-0.9h0.5l-0.7,0.9l0.7-0.2c3.3-2.6,5.2-4,5.7-4.7c-0.2,0-0.7,0.2-0.9,0.5
		c-0.2,0.2-0.7,0.2-0.9,0.2h-0.5c-0.2,0,0,0.2-0.7,0.9c-0.2,0.2-0.9,0.7-1.7,0.9c0.7-0.7,6.9-5.7,7.3-5.7l1.9-0.9l-1.7,1.4
		c-1.4,1.2-2.1,1.9-2.4,2.6c0,0.7-3.1,3.1-8.8,7.8c-2.8,2.4-4.5,4-4.7,5v0.2c-0.2,0.2-0.2,0.2-0.5,0.2c-0.2,0-0.2-0.5,0-0.7v-0.2
		c-0.2,0-0.7,0.2-0.9,0.5c-0.9,0.7-1.7,1.4-1.9,2.1c-0.2,0.5-0.9,1.2-2.4,1.9l0.9-0.7c0.7-0.5,0.9-0.9,0.9-1.2
		c-0.9,0-3.3,1.7-3.6,2.6c-0.2,0.7-0.7,1.2-0.9,1.4l-0.5,0.2l0.5-1.2c0.5-0.2,0.7-0.2,0.7-0.5c-1.7,0.5-2.4,0.9-2.4,1.4
		c0,0.2,0.2,0.2,0.5,0.5l-0.2,0.2c-0.2,0.2-0.5,0.2-1.2,0.2l-1.2,0.9h0.7c0,0.2-0.2,0.2-0.5,0.5l-3.3,2.4l0.7-1.2l-0.9,0.2l-1.7,2.1
		c-2.6,2.1-4.3,3.3-5,3.3l-0.2-0.5h-0.2c-0.2,0-0.2,0.2-0.5,0.5c-0.5,0.7-1.4,1.4-2.8,2.4c-1.9,1.2-2.8,1.9-2.8,1.9v0.5
		c0.5,0,4.5-2.1,5.2-2.6l8.1-5.2c0.7-0.7,1.2-0.9,1.4-0.9l3.1-2.4l4-2.4c0.5,0,0.7,0,0.9-0.2l0.2-0.5v-0.2c0.7,0,1.2-0.2,1.4-0.5
		l1.9-0.9c-3.3,2.6-5.2,4-5.5,4l0.9-1.2l-0.9,0.2c-0.7,0.7-1.2,1.2-1.2,1.4c-0.2,0.5-0.5,0.9-0.9,1.2l-0.2-0.2
		c-0.9,0-4.7,2.8-5.2,3.6v0.2h-1.2c0,0.2,0,0.2,0.2,0.5h0.2c0,0-0.2,0.2-0.9,0.7c-0.9,0-2.1,0.7-2.1,1.7l-0.2,0.5l-0.5-0.2
		c-1.2,0-4.5,2.6-4.7,3.6c0,0.2,0.2,0.2,0.5,0.5l2.1-1.9c0.9,0,4.7-1.9,5.4-2.6l16.1-11.6c7.8-6.2,11.9-9.5,12.1-10.2
		c-0.2,0-1.4,1.2-3.8,2.8c-2.6,1.9-4,2.8-4.5,2.8c0-0.5,0.2-0.7,0.7-0.9l0.5-0.9l-0.2-0.2l0.5,0.2c0.7,0,4-2.4,4.3-3.1
		c0-0.9,1.7-2.8,2.6-2.8v0.5l3.3-3.6l1.4-0.9c7.1-4.7,10.7-8.1,10.9-9.2v-0.5h0.5c0.2,0,0.2,0,0.5-0.2v-0.2l0.5-0.5l0.5,0.5v0.2
		l0.7,0.7c0,0.7-0.9,1.9-2.6,3.6l-6.9,6.6c-1.7,1.4-3.8,4-7.4,7.1c-8.3,7.3-14.9,13-20.2,16.4c-2.6,1.7-4.3,3.3-5.7,4l-0.5,0.2
		c-4.5,2.4-9.5,6.4-15.9,10c-6.2,3.6-11.1,5.5-14.9,6.2H492.8z M480.8,446.1l0.5-0.2l-0.5-1.9c-0.2,0.5-0.2,0.9-0.2,1.2L480.8,446.1
		z M481.5,436.8h-0.2l0.2-0.2l0.2,0.5c-0.5,0.7-0.7,0.9-0.7,0.9C481,437.5,481.2,437.1,481.5,436.8z M481.9,438
		c3.1-8.3,5.5-13.5,7.8-15.4l1.4-1.2c0-0.2-0.2-0.5-0.9-0.5c-0.2,0-0.5,0-0.7,0.2c-0.2,0-0.5,0.5-0.9,1.2l-0.9,1.7
		c-0.5,0.7-0.7,1.2-0.7,1.4c0,0.2-0.7,0.9-0.9,0.9c-0.7,0.7-1.4,2.1-2.6,5.9L481.9,438z M491.7,420c0.2-0.2,0.2-0.7,0.5-1.4
		c0-0.2,0.2-0.2,0.5-0.2c0.7,0,1.2-0.5,1.2-1.2l0.7-0.9c0.9-1.2,1.7-2.1,2.1-2.4c0.2,0,0.5-0.2,0.7-0.5c3.6-4.5,5.2-7.1,5.2-7.6
		v-0.2c-1.4,1.2-2.4,2.1-2.6,2.8c0,0.2-0.2,0.5-0.7,0.5c-0.2,0-0.5,0.2-0.5,0.5l-2.1,2.6c-3.8,4.5-5.9,7.1-6.2,8.1
		c0,0.2,0,0.2,0.2,0.5C490.9,420.5,491.4,420.2,491.7,420z M492.8,417.8c0.5,0,0.7-0.2,0.7-0.5l-0.2-0.5c0,0,0,0-0.2,0.2l-0.2,0.2
		V417.8z M495.7,425.4c0.2-0.2,0.9-0.5,1.9-0.5c0.2,0,0.5,0,0.7-0.2c0.2,0,0.5-0.2,0.9-0.5l0.2,0.2c0.2,0,0.5,0,0.5-0.2
		c0.2-0.5,2.1-2.1,5.4-5c6.6-5,10-7.8,10-8.5c0-0.2,0.5-0.7,1.7-1.4l3.3-4c3.1-3.8,4.7-7.3,4.7-10.9c0-0.7,0-1.4-0.2-1.7l0.2-0.2
		c0-0.5-0.2-0.7-0.5-0.7L523,393c-0.2,0-0.5,0.2-0.9,0.7l-1.2,0.5l-0.7,0.9c-0.7,0.7-1.4,1.4-2.4,1.9c0,0.2-0.5,0.5-0.5,0.5
		l-3.6,3.6c-1.4,1.7-2.6,2.4-2.6,2.6c-0.2,0.5-0.9,1.2-2.1,1.9l-2.8,3.1v0.2c-0.7,0.9-1.2,1.4-1.4,1.4c-0.2,0-0.7,0.5-0.7,0.5
		c0,0.2-0.2,0.5-0.5,0.7l-1.9,2.4c-0.9,1.4-2.4,2.6-3.3,4c-2.1,2.1-3.3,4-3.6,5.2l-0.2,1.4c0,0.7,0.2,1.2,0.7,1.2L495.7,425.4z
		 M500.4,382.8l-0.9,0.2h-1.2c0-0.2,0-0.2,0.2-0.5l1.9-1.7l-0.2-0.7c0.2-0.2,1.2-0.7,1.4-0.7c0.2-0.2,0.2-0.2,0.2-0.7l7.8-3.8
		c2.1-0.9,3.1-1.9,3.1-2.6c0.2-0.2,0.9-0.7,1.7-0.9c4.7-3.1,9-6.6,12.3-9.5c0.2,0,0.9-0.5,1.2-0.7c0.9-0.7,1.9-1.7,2.1-2.4l2.6-2.1
		c0.9-0.7,1.7-1.9,1.9-2.6c0-4.3-0.2-4.3-0.5-5.5l0.5-0.2c0.5-0.2,0.9-0.2,1.2-0.2c0.2-0.2,0.5-0.2,0.5-0.5c-0.2,0-0.2-0.5-0.2-0.7
		c0-0.2,0-0.5,0.2-0.7c0-0.5,0-0.5,0.2-0.5h0.2c0,0.5,0,0.5,0.5,0.5c0,0.2,0.2,0.2,0.5,0.2h0.9l1.7,1.7c0.5,1.4,0.9,1.9,2.4,1.9
		s2.1,0.5,2.8,0.9l0.5,0.2c1.4,0.7,1.2,0.7,1.2,0.7v0.7c0,0.2,0,0.2-0.2,0.5c-0.2,0.2-0.2,0.5-0.2,0.9c-0.5,0-0.7,0.2-0.9,0.5
		l-0.7,1.2c-0.9,1.7-1.7,2.1-2.1,3.1v0.9l-0.2,0.7l-0.2-0.5c-0.2,0-0.2,0-0.2,0.5c0.2,0.2,0.2,0.2,0.2,0.5v0.5c0,0,0.2-0.2,1.2,0.7
		c0.2,0.7,0.5,1.9,0.5,3.8l0.2,2.6l1.4,6.2l-0.2,4.7l-0.5,0.9c-0.7,0-1.4,0-2.4,0.5l-0.5-0.5h-2.4c-0.5,0-0.7,0-0.9-0.2
		c0-0.2,0-0.5-0.2-0.5c-0.5,0-0.9-0.5-1.2-0.9c-0.2-0.2-0.7-0.2-1.2-0.2c-0.5,0-0.7-0.2-0.7-0.7v-1.4c0-0.2-0.5-1.2-0.5-1.4
		c-0.2-0.5-0.2-0.9-0.2-0.9c-0.2-0.7-0.2-1.4-0.2-1.7l0.2-2.1V370c-0.2,0-0.2-0.5-0.2-0.9c0-1.7,0-2.8,0.2-3.1
		c-0.2,0-0.7,0.2-1.7,1.2l-3.1,2.1c-2.8,2.1-4,3.1-4.5,3.1l-0.9,0.7c-0.9,0.2-1.4,0.7-2.4,1.4c-4,2.4-7.8,4-10.9,5l12.3-6.4
		c3.1-2.1,5-3.6,5.2-4.3v-0.2h0.5c0,0,0-0.5,0.5-0.7l1.9-1.7c0-0.2,0-0.2,0.2-0.5v-0.2c-0.5,0.5-1.9,1.7-4.3,3.3l-4,3.1h-0.2
		c-3.3,1.4-5.7,2.8-6.9,3.6c-0.5,0.2-2.8,1.4-8.3,3.8c-3.1,0.9-5.5,2.6-6.6,2.8L500.4,382.8z M502.8,405l0.2,0.2
		c0.9-0.9,1.4-0.9,1.9-2.6l-0.5,0.2L502.8,405z M513.9,414.1l0.2-0.2c0.9,0,7.1-6.4,8.1-7.6l1.4-1.7c2.8-3.3,4-6.6,4-10.2V393
		c-0.2-0.2-0.2-0.9-0.2-0.9c-0.2-0.2-0.2-0.5-0.5-0.5h-0.5c0.2,0.2,0.2,0.5,0.2,0.7c0,0.7-0.2,1.7-0.5,2.6v0.7
		c-0.5,2.4-1.2,4.5-1.9,6.4l-1.9,2.8c-3.1,3.6-5.2,5.9-6.4,6.9L513.9,414.1z M513.9,446.8h0.5l0.9-0.5v-0.5h-0.7l-0.7,0.7V446.8z
		 M525.3,434.2c0.2-0.2,0.5-0.5,0.5-0.5c0.2-0.2,0.5-0.5,0.5-0.7c0.2-0.2,0.2-0.2,0.5-0.2c0,0.2-0.2,0.7-0.7,0.9L525.3,434.2z
		 M527.2,367.3c0.5,0,0.5,0,0.5,0.2l-0.9,0.2L527.2,367.3z M527.7,434.2l-0.2-0.2h0.5l0.2,0.2l0.9-0.9c-0.2,0.7-0.5,1.2-0.9,1.2
		C527.9,434.4,527.7,434.4,527.7,434.2z M528.2,367.1c-0.2,0-0.5,0-0.5-0.2l0.9-0.2L528.2,367.1z M533.2,427.8v0.7l-2.1,1.7
		c-0.7,0.7-1.7,1.2-2.8,1.2L533.2,427.8z M532.9,364.5l0.5-0.2v0.5l-0.5,0.5V364.5z M534.1,363.8c0.2-0.2,0.7-0.2,0.9-0.2l-0.9,0.7
		V363.8z M535.5,427.6h0.2c0.2,0,0.7,0,1.2-0.7l0.2-0.5l-1.2,0.2L535.5,427.6z M538.8,424.7l-0.9,0.2l-0.2,0.5L538.8,424.7z
		 M540.3,350l-0.7-1.7c-0.2-0.7-0.9-1.2-1.4-1.2v0.5c0,0,0.7,0.9,0.9,1.2c0,0.5,0,0.5,0.2,0.7L540.3,350z M539.8,429.2
		c0.2-0.2,0.7-0.5,0.7-0.5c0.2,0,0.5-0.2,0.7-0.5l0.5-0.5v-0.2h-0.2L539.8,429.2z M542.2,427.3c0,0,0.5-0.5,0.7-0.5l0.5-0.5v-0.5
		c-0.5,0.5-1.2,0.7-1.9,0.7c0-0.2,0.2-0.7,0.9-0.9c0.7-0.2,1.2-0.7,1.4-1.2c0-0.5,0.5-0.7,0.9-0.7c0.2,0,0.2,0,0.5-0.2v0.2l-1.4,1.7
		v0.2l0.7-0.2c0.2,0,0.5,0,0.5,0.2l-0.9,0.9c-0.5,0-0.9,0.2-1.4,0.7H542.2z M542.6,421.6c0-0.2,0-0.2-0.2-0.2l-0.7,0.9L542.6,421.6z
		 M543.8,420.7c0.2-0.2,0.5-0.5,0.5-0.5c0.2,0,0.5-0.2-0.2-0.2l-0.5,0.2L543.8,420.7z M546.4,418.3c0.2,0,0.2-0.2,0.5-0.5v-0.7
		c0-0.2,0-0.2,0-0.2l-0.7,1.2v0.5L546.4,418.3z M547.1,422.4l1.4-1.4c0.7-0.7,1.4-0.9,1.7-0.9c0,0.2-2.4,2.4-2.8,2.4H547.1z
		 M550.7,363.8c0-0.7,2.8-2.8,8.5-6.6c3.6-3.1,7.6-5.5,11.6-8.1l0.9-0.9c0,0,0.5,0.5,0.7-0.2c0.2-0.5,0.7-0.5,0.9-0.7l1.2-0.7
		c0.5-0.2,1.7-0.9,3.6-2.4c1.2-0.9,2.1-1.4,2.8-2.1c2.8-1.7,4-3.1,4-3.8c-5.7,0-9,0-9.2,0.2c0,0.2-0.9,0.2-2.1,0.2
		c-1.2,0.2-1.4,0.2-1.7,0.5c0,0-0.7,0.2-2.6,0.2l-3.8,1.2h-1.2l-1.7,0.5c-0.2,0.2-0.5,0.2-0.9,0.2c-0.5,0-0.2-0.2-0.7-0.7l-0.5-0.5
		l0.7-2.4l0.9-1.2c0.2-0.5,0.2-0.7,0.5-1.2l0.2,0.2c0.2,0,0.2,0.2,0.5,0.2v-0.2c2.1,0,3.3-0.2,4.5-0.7h-3.6l3.8-0.2l0.2-0.2
		c1.4-0.2,2.8-0.5,3.8-0.5l2.8-0.5c0.7,0,2.8-0.2,5.9-0.2c2.8,0,4.5,0.2,5,0.5l0.2-0.2c1.4,0,4.3,2.1,4.3,3.8v0.2
		c0,0.5,1.9,1.2,0.5,2.8c-1.9,2.8-5,5.9-10.7,10c-4.5,2.6-7.1,4.5-7.6,4.5c-0.7,0.5-1.2,0.5-1.4,0.5c0,0.2-0.5,0.7-1.2,0.9
		c-0.7,0.7-0.9,1.2-1.2,1.2c0,0-0.7,0-1.4,0.9c-1.4,0.9-2.1,1.2-3.1,1.7c-0.5,0.2-0.9,0.5-1.4,1.2h-0.2c-0.2,0.5-0.5,0.5-0.5,0.5
		l-2.1,1.4c-0.9,0.9-1.9,1.7-3.1,2.1c0-0.5-1.9,0.7-2.6,1.2l-2.4,1.7v-0.2c0.9-0.5,1.4-1.4,2.8-2.4c0.9-0.7,1.9-1.4,2.6-1.9
		c3.8-3.1,5.9-4.3,6.2-4.3c0,0,0.5,0,0.7-0.5c1.2-0.5,1.4-0.5,1.7-0.7c0-0.2,0.2-0.5,0.5-0.7h0.7c0.7-0.7,1.4-1.2,1.9-1.4
		c0.9-0.5,1.2-0.7,1.4-0.9c0.2,0,0.9-0.7,1.9-1.4c0.9-0.7,1.2-0.7,1.4-0.7h0.5l0.2-0.2c0-0.2,0-0.5,0.5-0.7c0.5-0.2,0.5-0.2,0.7-0.5
		V351l0.5,0.2c0.2-0.5,0.5-0.5,1.2-0.9c0.7-0.5,1.2-0.7,1.4-0.9h-0.5c-0.2,0-1.9,0.9-1.9,0.9c-0.2,0.5-0.5,0.5-0.7,0.5h-0.2
		c-0.5,0.5-0.9,0.7-0.9,0.9c-0.5,0-0.9,0.2-0.9,0.5l-2.4,1.4c0,0.2-0.5,0.2-0.9,0.2c-0.2,0.2-0.5,0.9-0.9,0.9l-1.9,1.4
		c-3.8,2.1-6.2,4-7.3,5.2l-0.7,0.2c-0.2,0-5.2,3.3-7.3,4.7c-1.2,0.7,0.7-1.2,0.5-1.2c-0.2,0-0.5,0.2-1.2,0.7l0.5-0.5
		c0.5-0.5,0.9-0.9,1.2-0.9h0.5V364c0.2,0,1.7-0.9,1.9-1.2c2.4-1.7,2.1-0.9,3.1-2.4c-0.2,0.2-0.5,0.5-0.7,0.7l0.7-0.7
		c0.9-0.9,1.9-1.2,2.6-1.2v-0.5l0.2-0.2v-0.2c0.2,0,0.5-0.2,1.4-0.7c0.5-0.2,0.7-0.5,0.9-0.5c0.7,0,0.7-0.2,0.7-0.7
		c0.2-0.2,1.2-0.7,2.6-1.4l-0.9,0.9c0.7-0.7,1.2-0.9,1.4-0.9c0-0.2,0.2-0.7,0.5-0.9c0.9-0.5,1.4-0.9,1.9-0.9
		c0.2-0.7,0.5-0.9,1.4-0.9c0.7-0.5,1.2-0.7,1.4-0.9c0.5-0.5,0.9-0.7,0.9-0.7c0.5,0,0.7-0.2,0.7-0.5c0.2-0.2,0.2-0.5,1.2-0.7
		l-0.5,0.5v0.2c0.2,0,0.5-0.2,0.5-0.5c0.2-0.5,0.2-0.5,0.5-0.7h0.2v-0.7h0.5c0-0.2,0-0.2,0.5-0.2c0.2,0,0.2-0.2,0.2-0.5h0.7
		c0,0,0.2-0.2,0.2-0.5c0.2-0.2,0.5-0.5,0.9-0.5c0.7,0,3.6-2.4,3.6-3.1c0-0.2-0.2-0.2-0.2-0.2c-0.7,0-2.6,1.4-6.4,4h-0.5
		c-0.7,0-1.2,0.2-1.2,0.5c0,0.2,0,0.2,0.2,0.2l-0.2,0.2c-0.7,0.9-1.2,1.2-1.7,1.2c-0.7,0.2-1.2,0.5-1.7,0.9
		c-0.5,0.5-0.9,0.7-1.2,0.7h-0.2c-0.5,0.2-0.7,0.5-0.7,0.7l-0.7,0.5c-0.5,0.5-0.7,0.7-0.9,0.7v-0.7l-0.2,0.5v0.2
		c-0.2,0.2-0.5,0.2-0.9,0.2l-0.5,0.5v0.2c-0.2,0.2-0.5,0.2-1.2,0.2c-0.2,0.5-2.1,2.1-2.8,2.4l-0.2-0.2c-0.2,0.2-0.5,0.7-0.9,1.2
		h-0.5c0,0.2-0.2,0.7-0.9,0.9l-0.9,0.2c-0.2,0-0.2,0-0.2,0.2h-0.2l0.2-0.5l-0.7,0.7c0.2,0,0.2,0,0.2,0s0,0-0.2,0l-0.2,0.5
		c-0.2,0.2-0.5,0.7-1.2,1.4c-1.2,0.9-1.9,1.7-1.9,1.7c-0.2,0-0.5,0-0.9,0.2l-1.4,1.2l-0.7,0.2l-0.2,0.2l-1.2,0.7
		c0-0.2,0.2-0.2,0.2-0.5C550.2,363.8,550.5,364,550.7,363.8z M550.9,364.3c0.7-0.7,1.7-1.2,2.1-1.4l2.4-1.9c0.5-0.7,1.2-1.2,1.4-1.4
		c0.2-0.2,0.5-0.2,0.5-0.5c-0.5,0.2-1.2,0.7-2.6,1.9c-2.8,2.4-4.5,3.6-5,3.8L550.9,364.3z M552.6,415.7c0.2,0,0.7,0,0.9-0.2
		l-0.9,0.9c-0.2,0.2-0.5,0.5-0.7,0.5C551.9,416.9,551.9,415.9,552.6,415.7z M556.4,411.7c1.2-0.7,1.7-1.2,1.7-1.2h-0.2L556.4,411.7z
		 M559.2,360.2c0,0,0.2-0.5,0.9-0.7l-0.9,0.9V360.2z M564,404.3c0.2-0.2,0.2-0.2,0.2-0.2l0.7-0.7c-0.2,0.2-0.2,0.2-0.5,0.2
		c-0.2,0.2-0.5,0.2-0.5,0.2c-0.2,0.2-0.2,0.2-0.2,0.5v0.2L564,404.3z M566.6,336.8c0,0-0.5,0.5-0.7,0.5l3.3-0.7
		c0.7-0.5,0.9-0.5,1.2-0.5c1.2-0.2,1.7-0.2,1.9-0.2c0-0.2,1.4-0.5,4.5-0.9h1.9c0.7,0,1.2-0.2,1.7-0.2h0.2c0,0.2,0.2,0.2,0.2,0.2
		c0.2,0,0.7-0.2,0.7-0.5c0-0.2,0-0.5-0.7-0.5h-0.5c-0.9,0-1.4,0-1.4,0.2c0,0.2,0,0.2-0.5,0.2h-0.2v-0.5h-0.7c0,0.5,0,0.5-0.2,0.7
		c-0.5,0-0.5,0-0.5-0.2h-0.2l-0.5-0.7c0,0.5-0.2,0.7-0.5,0.7h-0.9v0.2c-0.5,0-0.9,0.2-1.4,0.2c-1.2,0-3.1,0.5-5,0.7
		c-0.5,0-1.4,0.2-2.6,0.5v0.5l2.6-0.7L566.6,336.8z M565.6,353.8c0,0,0,0,0.2-0.2L565.6,353.8z M570.4,352.9
		c0.2-0.2,0.5-0.7,0.9-0.7c0,0.2,0,0.5-0.5,0.7H570.4z M574.6,337.2h-0.5c0-0.2,0.2-0.5,0.5-0.5V337.2z M576.3,337.2
		c0.9,0,3.1-0.2,5.9-0.5c1.2,0,1.7-0.2,1.9-0.2c0-0.5-0.5-0.7-1.9-0.7c-0.7,0-2.4,0.5-4.7,0.7c-1.7,0.2-2.1,0.2-2.1,0.5L576.3,337.2
		z M586.5,334.6c0-0.2-0.5-0.2-0.7-0.2h-0.5l-0.2-0.7c-0.2,0.5-0.2,0.7-0.5,0.7v-0.2c0-0.2,0.2-0.5-0.9-0.5c-0.9,0-1.7,0.2-1.9,0.9
		c0,0,0.7,0.2,2.1,0.2C585.6,334.9,586.3,334.6,586.5,334.6z M582.5,334.6c0,0,0-0.2,0.2-0.7c-0.2,0-0.2,0.2-0.2,0.5h-0.2
		L582.5,334.6z M587.9,335.3c-0.5-0.5-0.7-0.5-0.7-0.7l0.2-0.2c0.7,0.2,0.7,0.5,0.7,0.7v0.2H587.9z"/>
	<path fill="#1A0B0C" d="M545,454.1c-0.2-1.2-0.5-1.7-0.7-1.7c-0.2,0-0.5,0.2-0.7,0.7l-0.2,0.2c-0.2,0-0.2-0.2-0.5-0.5l-1.2-2.6
		c0-0.2-0.5-0.7-1.2-0.9c-0.7-0.2-0.9-0.5-1.2-0.9c-0.2-0.5-0.2-1.2-0.2-2.4l1.9-6.4c2.8-5.7,10.2-17.3,22.3-34.9
		c4-5.9,7.4-11.1,9.7-15.6c1.7-3.1,3.3-5.5,4.5-7.1l3.3-3.6c1.7-1.2,2.6-1.9,2.8-1.9c0.2,0,0.5,0,0.5,0.2l-0.2,0.2l0.5,0.5v0.2h0.2
		l-0.2-0.7c0.5-0.7,0.7-1.2,0.9-1.2c0.2,0,0.5-0.2,0.5-0.5l-0.2-1.4c0.2-0.2,0.5-0.5,0.7-0.5l2.4,0.9c0.2,0,0.7-1.2,1.4-1.2l0.7,0.7
		c0.2,0.2,0.7,0.5,1.2,0.5l0.7-0.2v0.2c0.5,0.7,0.9,0.9,1.7,1.2c1.2,0.2,1.9,1.7,1.9,4.3c0,2.1-1.2,5.9-2.1,7.6
		c-0.7,1.2-1.9,2.8-4,5.2c-3.6,4.3-6.4,8.3-8.8,12.1c-0.5,1.2-1.7,2.6-3.3,4.3c-1.7,2.6-4.3,5.9-7.6,10l-7.8,11.6
		c-1.9,2.8-2.8,4.5-3.3,5.2l-1.4,2.1v0.5h0.2c0.7,0,8.1-6.6,22.5-20.2l5.9-5.5c3.8-3.8,23.5-23,28.5-23.5l2.1-0.2
		c1.2,0,1.7,0.2,1.7,0.9l-0.2,1.9v0.2h0.2l2.1-0.2c0.7,0,0.9,0.2,0.9,0.5c0,0.7,0.2,1.2,0.7,1.4c0.5,0,0.7,0,0.9,0.2l0.2,0.7
		c0,0.2,0,0.5,0.2,0.7l0.7,0.7c0.2,0.2,0.2,0.5,0.2,0.9c0,1.4-0.5,4-0.9,7.8l-0.9,6.2c-1.2,5-2.8,10.9-5,17.3v1.2
		c0.2,0,0.9-0.5,1.9-1.4c1.4-1.7,3.1-3.1,4.7-4.3c2.1-1.7,3.6-2.8,4.5-3.8c0.7-0.7,1.2-1.2,1.4-1.2c0.2,0,0.7-0.2,1.4-0.9l12.6-10.7
		c2.1-1.2,3.8-1.9,5-2.1c1.2,0,2.1,0,2.6,0.2c0.2,0.2,0.5,0.5,0.5,0.7v0.9h-0.5c-0.2,0-0.5,0-0.5,0.2l0.2,0.5
		c0.2,0.5,0.5,0.7,0.7,0.7l2.4-0.5c0.2,0,0.5,0.2,0.5,0.5c0,0.2,0,0.5,0.2,0.7c0.2,0,0.5,0.2,0.5,0.5c0.5,0.2,0.9,1.4,1.2,3.1
		c0.2,0.2,0.2,0.7,0.2,0.9c0,1.2-0.2,2.1-0.5,3.1c-0.2,0.2-0.2,0.5-0.2,0.7c-0.5,2.1-1.2,4-1.7,6.2l-2.4,9c0.2,0.2,0.2,0.5,0.5,0.5
		h0.5c0.9,0,2.1-0.9,4.3-2.4c1.7-1.2,2.6-1.9,3.1-1.9c0.2,0,0.7,0,0.9-0.2l3.8-2.4c4.7-3.1,8.5-5,11.1-6.2l4.3-2.8
		c2.4-1.2,3.8-1.9,4.5-1.9h0.2c0.2,0,0.2,0,0.2,0.2l-0.2,0.2c0,0.2-0.2,0.7-0.5,0.9c-0.2,0.5-0.5,0.9-0.5,1.2c0,0.2-0.2,0.5-0.9,0.7
		c-0.7,0.2-1.2,0.7-1.2,0.9c0,0.2-0.5,0.5-1.4,1.2l-4,2.6c-0.7,0.7-1.2,1.2-1.2,1.4c0.2,0,2.4-1.4,5.9-3.8l4.3-2.8v-0.5h-0.5
		c0-0.7,3.1-2.1,3.8-2.1l0.2,0.5c-0.2,0.2-0.7,1.4-0.9,2.1l-2.4,2.8c-0.9,1.2-1.9,2.4-3.1,3.6c-1.2,1.2-1.9,1.7-2.4,1.9
		c-0.7,0.2-2.8,1.7-6.4,4.3c-5,3.6-8.1,5.4-9.2,6.2c-2.8,1.7-4.7,2.8-5.5,3.6c-1.2,0.9-3.3,1.4-6.2,1.4c-2.1,0-3.6-0.2-4.3-0.5
		l-2.1-1.7h-0.5c-1.2,0-2.8-3.3-2.8-5.9c-0.2-1.9-0.2-3.3-0.5-4l-0.2-0.9l0.2-0.2v-0.5l-0.5-0.2c-0.2,0-0.2,0-0.2-0.2v-0.2h0.2
		c0.5,0,0.7-0.2,0.9-0.9l-0.2-0.2l-0.5,0.2c-0.2,0-0.2-0.2,0-2.8v-3.1l-20.2,19.2c-1.9,1.9-3.6,2.8-4.7,2.8c-0.5,0-0.7-0.2-0.9-0.7
		v-0.2h-0.5l-1.7,0.9c-0.5,0-0.9,0-1.7-0.7l-0.7-1.2c-0.2-0.5-0.2-0.9-0.5-1.2c-0.7-0.9-1.4-1.4-2.1-1.7c-2.8,0-3.6-7.3-3.6-9.2
		c0-1.2,0.9-5.7,2.8-13.5c1.4-6.2,2.1-10,2.1-11.4c0-0.5-0.2-0.7-0.5-0.7c-4.7,3.1-13.5,10.9-26.1,23l-24.4,23.2
		c-2.1,1.9-3.6,3.3-4,4.3c-0.2,0.5-0.7,0.9-1.7,1.2c-0.7,0.2-1.7,0.5-3.1,0.9c-1.4,0.5-2.6,0.7-3.8,0.7
		C546.7,456.5,545.3,455.8,545,454.1z M541.9,445.1c0.7-3.1,1.7-5.2,2.4-5.9c0-0.2,0.7-1.2,0.7-1.4v-0.2c0.2-0.9,0.7-1.9,1.7-2.8
		c0.9-0.9,1.4-1.7,1.4-2.4l5-7.8c0.2-0.7,0.5-1.4,0.7-1.7c0.2-0.2,0.5-0.7,0.5-1.2c0.2-0.5,0.9-1.7,2.6-3.8l0.7-0.9
		c0.5-0.7,1.2-2.1,1.4-2.4c0.5-0.9,0.7-1.4,0.7-1.7c0.2-0.5,0.5-0.7,0.9-0.7c0.2,0,0.9-0.5,1.2-1.4c0.2-0.7,1.4-2.1,2.6-4l4.3-6.6
		c1.4-2.4,2.1-3.8,2.1-4.5c0-0.2,0-0.2-0.2-0.2l-7.6,12.1c-0.7,1.2-1.4,0.7-1.7,1.7l-1.2,1.9c-0.5,0.9-2.1,2.6-3.8,5.7l-7.8,12.1
		c-2.1,3.1-8.3,13.5-8.3,17.1c0,0.7,0.2,0.9,0.7,0.9C541.2,446.8,541.7,446.3,541.9,445.1z M545.3,441.8l2.1-3.3
		c1.7-2.6,3.1-5.2,4.7-7.8l1.9-3.1c0.5,0,1.2-0.9,2.1-2.6c1.2-2.4,2.1-4.3,3.1-5.5l3.1-4c3.8-5,5.2-8.1,5.2-8.5v-0.2h-0.2l-8.5,12.1
		c-2.4,3.3-12.8,19.2-13.5,22.5V441.8z M546.4,446.3c0.2,0,0.7-0.7,1.4-2.4c2.1-3.6,3.1-5.7,3.6-6.9h0.5c0.2,0,0.7-0.2,0.9-0.5v-0.2
		l-0.2,0.2h-0.7c2.8-4.7,4.5-7.1,5-7.1l0.7-0.9c0,0,0-0.2,0.2-0.7c0.2,0,0.2,0,0.5-0.2v-0.2c0-0.2,0.2-0.2,0.2-0.5
		c0-0.7,0.9-1.7,1.9-3.1l1.4-1.9v-0.2c0.5-0.9,1.9-3.3,4.3-6.9l1.7-2.6c1.4-2.1,2.1-3.1,2.4-3.3c0.7-0.5,0.9-0.9,0.9-1.4
		c0-0.2-0.2-0.5-0.5-0.5c-1.2,0-3.6,2.6-7.1,8.1l-10.7,16.1c-3.3,5-5.2,8.1-5.7,9.2l0.2,0.2l0.9-0.7l0.2,0.2l-0.9,2.6
		c-0.7,1.2-1.4,2.6-1.7,3.8C546.2,446.5,546.2,446.5,546.4,446.3z M569,435.9l-0.7,0.2l-0.7,0.9v0.2c0,0.2,0,0.2,0.2,0.2L569,435.9z
		 M568,435.2h0.7c0.7,0,1.4-0.2,1.9-0.9c0.2-0.5,0.5-0.7,1.2-0.7c1.7,0,2.4-0.9,2.8-2.4c0-0.2,0.2-0.9,0.2-0.9
		c1.4,0,2.8-1.2,3.3-2.6v-0.9l0.2,0.2c1.2,0,8.3-6.9,9.2-7.8l1.7-2.4c0-0.5,0.2-0.7,0.5-0.9c0.2-0.2,0.5-0.2,0.5-0.2l-0.7,0.9
		l0.2,0.2c0.5,0,1.9-1.7,4.7-4.3l3.6-3.3c5-4.7,7.6-7.3,7.6-8.1v-0.5l0.2-0.2l0.9,0.2c0,0,0.2,0,0.7-0.2l0.9-0.5
		c0.7-0.2,0.9-0.9,1.4-1.2l1.4-1.2l1.7-2.1v-0.2c0-0.5-0.2-0.7-0.5-0.7c-0.2,0-0.7,0.2-0.9,0.5c-0.2,0.7-1.9,1.4-3.8,3.1
		c-1.4,1.2-4.3,3.6-8.5,7.6c-4,3.8-6.2,5.7-6.6,5.7h-0.2v0.2c0.2,0.2,0.2,0.5,0.2,0.7c0.2,0,0.2,0.7,0.2,0.7c-0.5,0-0.9,0.5-1.7,0.7
		c-0.7,0.2-2.4,1.7-5,4c-0.5,0-1.4,0.2-2.1,1.7l-0.7,1.4l-0.5,0.2c-0.5,0-11.4,10.4-12.6,12.1c-0.9,1.2-1.7,1.7-1.9,1.7L568,435.2z
		 M572.5,404.3l0.9-1.4H573c-0.5,0.2-0.7,0.7-0.9,1.2L572.5,404.3z M616.6,425.4l0.5-0.2c0.2,0,0.2,0,0.5-0.2l0.2-0.2
		c0-0.2-0.2-0.2-0.7-0.2c-0.2,0-0.5,0.2-0.5,0.5V425.4z M635.8,423.1l0.9-0.5c0-0.2,0.2-0.2,0.5-0.5c0.2-0.2,0.2-0.2,0.2-0.5
		l-1.4,0.7c-0.2,0.2-0.2,0.2-0.5,0.7H635.8z M646.7,435.9c0-0.2-0.5-0.7-1.7-1.4l0.7,0.7c0.2,0.7,0.7,0.9,0.9,0.9V435.9z
		 M647.7,438.9v-0.2c0-0.5,0-0.7-0.2-0.9l-0.7-0.5L646,438c0,0.2,0.5,1.2,0.7,1.2c0,0.2,0,0.5,0.2,0.5S647.4,439.4,647.7,438.9z"/>
	<path fill="#1A0B0C" d="M710.8,471.9c-0.5-0.2-0.7-0.5-0.9-0.5c-0.2,0-0.5,0.7-1.2,0.7c-0.7,0-1.2-0.5-1.2-1.2c0-0.2,0-0.7-0.2-0.9
		l-0.7,0.7c-0.7,0-0.2-3.3-0.9-4.5V466c0.2,0,0.5-0.5,1.2-1.4l5.2-11.4c0.2-0.7,1.7-2.8,3.8-6.9l6.6-11.9c0.5-0.7,2.8-5.2,7.6-13
		c5-8.3,7.6-12.3,7.8-12.3l-0.2,0.2c-0.2,1.2-3.6,6.4-9.5,16.8l-5.5,9.5c-1.7,3.1-2.6,4.7-2.6,5l-3.6,5.9c0,0.2-0.2,0.5-0.5,1.2
		l-5,10.2v0.2c0,0.7,0,0.7,0.7-0.5l2.6-5.2c0.2,0,0.2-0.2,0.5-0.5l-0.2-0.7l0.5-0.7c0.5-0.9,1.2-1.7,2.1-3.1
		c0.5-0.7,0.7-0.9,0.7-1.2l0.7-1.9c0.7-0.9,0.9-1.4,1.2-1.4l0.2,0.2l-2.8,5.5c0,0.5,0,0.7,0.2,0.7c0,0.5,0.2,0.5,0.5,0.9
		c0.2,0,0.7-0.2,0.9-0.9c0-0.7-0.5-0.5-0.9-0.9c0.5-1.2,1.9-2.8,3.3-5l1.4-2.1v-0.2l-0.9,0.5l1.2-1.2c0.2,0,0.2,0,0.2-0.2
		c-0.9,0-2.4,1.4-2.4,2.1c-0.2,0.2-0.2,0.2-0.5,0.2l-0.2-0.7l2.4-3.6c0.7-0.7,1.2-1.4,1.4-1.9l-0.7,2.8l0.5-0.5l0.5,0.2
		c0.5,0,0.9-0.2,0.9-0.9h-1.2l0.2-0.2c0-0.5,0.7-0.9,1.2-0.9c0.2,0,0.5-0.2,0.7-0.9l-0.5-0.5l0.5-0.9c0.5-0.7,0.9-0.9,1.2-0.9
		c0.5,0,0.7-0.2,0.7-0.5l-0.5-0.9c0.2-0.5,0.7-1.2,1.7-1.9l1.7-1.4h-0.5c-0.2-0.2-0.2-0.5-0.2-0.9c0.5,0,0.7,0,0.7,0v-0.5
		c0-0.5,0.2-0.7,0.5-0.7s0.5-0.2,0.7-0.5l-0.2-0.5h-0.5v-0.2c0-0.2,0.2-0.5,0.5-0.5c0-0.2,0-0.5,0.2-0.7c0.2,0,0.2-0.2,0.2-0.5h0.7
		c0-0.2-0.2-0.2-0.5-0.5h-0.7c0-0.2,0.2-0.5,0.5-0.5c0.5,0,0.7,0,0.7-0.2c0.5-0.9,0.9-1.4,1.2-1.4l0.2,0.5h0.9
		c0,1.2-0.9,3.3-1.9,4.3l-0.2,0.7l-1.2,1.2l0.5,0.9h-0.7c-0.2,0-0.2,0.2-0.5,0.7l-2.4,4.5c-0.7,1.2-1.4,1.9-1.7,2.1l-0.9,1.7
		c-0.5,0.7-0.7,0.9-0.7,1.2h0.5c-0.2,0.5-0.7,1.2-0.9,2.1h-0.2c-0.5,0.5-0.5,0.7-0.5,1.2c0,0,0.2,0,0.5,0h0.2v0.5
		c-0.2,0.2-0.2,0.5-0.5,0.5c0,0.2,0,0.2-0.2,0.5V443c0-0.2-0.9-1.2-2.8,2.6l-0.7,1.4l0.2,0.2h0.5c-1.9,3.1-2.6,3.6-3.1,4.7
		c-0.2,0.7-0.7,1.7-1.7,3.1L716,456c-0.2,0.2-0.5,0.5-0.5,0.7v0.5c0,0,0.2,0,0.2,0.2v0.9l2.6-4.5c0.5-0.7,0.7-1.2,0.7-1.4
		c0.5-1.2,0.7-1.9,0.9-2.1l1.2-1.7c0,0,0,0,0.2,0.2c0.2,0,0.5-0.2,0.7-0.5l-0.5-0.7l1.4-2.1c0,0,0,0.2,0,0.5c0,0.2,0,0.5,0.2,0.5
		l0.7-0.5v-0.2h-0.2v-0.5c0,0,0,0,0.2-0.2l0.5,0.5l0.2-0.5c0-0.7,5.2-10.4,5.7-11.1c0.7-1.7,1.2-2.6,1.2-3.1l0.2-0.2v0.2
		c0.2,0,0.2-0.2,0.5-0.5c0,0,0.2-0.7,0.5-0.9c0.2-0.5,0.2-0.7,0.2-0.9c0-0.2,0.2-0.5,0.7-0.5c0.2,0,0.5,0.2,0.5,0.5
		c-0.9,1.4-2.1,4.3-2.6,6.2v0.5h-0.5l-0.5,1.4h-0.2c-0.2,0-0.2,0.5-0.5,1.2l-0.5,0.9c-0.7,0.5-1.4,1.4-2.4,2.8l-1.4,3.6
		c0,0.5,0,0.7,0.2,0.7s0.5-0.2,0.7-0.7l-0.5-0.5h-0.2l1.7-0.9l-0.2-0.2l-0.5,0.2c0.2-0.7,0.2-0.9,0.5-0.9c0.5,0,0.7,0,0.7-0.2
		c0.2,0,0-0.5,0.5-1.7c0.2-0.5,0.2-0.7,0.5-0.7c0.2,0,0.5,0,0.5,0l0.2-0.2c0-0.2,0-0.2,0.2-0.5h0.2c0.2,0,0.2,0.2,0.2,0.7l-1.9,3.1
		c0.2,0.2,0.5,0.2,0.7,0.2v0.5c0.5,0,3.3-5.2,8.8-15.9c2.1-4.3,3.3-6.4,3.6-6.4c0.2,0,0.2,0,0.5-0.2l-0.7-0.5
		c0.2-0.2,0.5-0.5,0.7-0.5c1.2,0,1.7-2.8,1.7-3.8c-0.2,0-1.2,1.2-2.4,3.3c-0.5,0.9-0.7,1.4-0.9,1.4c0.5-1.7,0.7-2.8,0.7-3.1v-0.5
		c0.5-0.2,3.1-4.5,3.3-5.2l0.2-0.9c0,0-1.4,1.4-1.7,1.4l-0.7,0.5h0.7l-0.2,0.2c0,0.2-0.2,0.7-0.5,0.9l-3.3,5.7
		c-2.1,4.5-3.6,6.6-4.5,6.9v-0.5l1.7-3.8c0.2,0,0.9-0.9,1.7-2.6c0.9-2.6,1.9-4.3,2.8-5c0.2-0.7,0.2-1.4,0.2-1.7
		c-0.2-0.2-0.2-0.2-0.2-0.2c-0.2,0-1.2,1.2-2.4,3.8c0,0.7-0.2,0.9-0.9,0.9l-0.2,0.7c-0.5,1.2-0.9,1.9-1.7,1.9
		c-0.5,0-1.2-0.5-1.2-0.9h0.7V419h0.5l-0.2,0.5c0.2,0,0.5-0.2,0.5-0.5c0-0.5,0.5-0.7,1.2-0.7l-0.5-0.2c0,0,0-0.2-0.2-0.5l1.7-4.3
		c-0.2,0.9-0.5,1.4-0.5,1.7c0,0.5,0,0.7,0.2,0.7l0.5-0.2l0.5,0.2c0.2,0,0.2,0,0.2-0.2l0.2-0.2v-0.9c-0.2-0.2-0.2-0.5-0.2-0.5v-0.9
		c0-0.9,0.2-0.9,0.5-0.9h0.5v0.2l-0.5,1.4c0,0,0.2-0.2,0.7-0.7l0.9-1.4c0-0.2,0.5-0.9,0.5-0.9h-0.2l-0.7,0.7c-0.2,0-0.2,0-0.2-0.2
		v-0.2c0-0.2,0.7-1.2,1.4-1.2v0.5c0.2,0,0.5-0.5,0.7-1.7c0.2-1.2,0.7-1.9,0.9-2.4c0.2-0.7,0.9-0.5,0.9-0.2v0.7
		c0.2,0,0.7-0.5,0.9-1.2l0.2-0.5v-0.5h-0.2l-0.5,0.9c-0.2,0-0.2-0.2-0.2-0.9l-0.2-0.5c0.7-0.7,1.4-0.5,1.4-0.5v-0.2c0,0,0,0,0.2-0.2
		l0.5-0.5c0-0.2,0-0.2,0.2-0.5h-0.5c-0.2-0.5-0.2-0.5-0.2-0.7l-4.5,6.2c0.2-0.2,0.5-0.9,0.7-1.7c1.2-1.7,1.9-3.1,2.4-3.8
		c0.5-0.2,0.9-0.7,1.2-1.4l0.2-0.2h0.5c0.2,0,0.2-0.2,0.5-0.5h0.9l-0.2-1.4c1.2-1.7,1.4-2.1,1.7-2.1l0.2,0.5l0.7-2.6l-1.2,1.7
		c0-0.9,1.2-2.4,1.9-2.8l0.5-0.2c-0.2,0-0.5,0-0.5-0.2V392c0-0.2,0-0.2,0.2-0.2v-0.5c0.5-0.2,0.9-1.2,1.2-2.4l1.2-2.1c0,0,0,0-0.2,0
		v-0.2l-0.2-0.2c0-0.5,0.5-0.7,0.7-0.7h0.2c0.2,0,0.2,0,0.2,0.2l-0.2,0.2h0.2c0.2,0,0.5-0.2,0.5-0.5c0.2-0.2,0.5-0.9,0.5-1.2
		l0.5-0.9l0.5,0.2l0.5-2.1c0.2,0,0.9-1.9,0.9-2.4c-0.9,1.2-1.4,0.5-1.7,2.4c-0.2,0.2-0.2,0.7-0.5,1.2c0,0-0.2,0.5-0.2,0.7v0.2h-0.5
		c-0.7,0-0.9,0.2-0.9,0.9c-0.9,0.5-2.8,4-3.1,4.5c-0.2,0.9-0.5,1.4-0.7,1.4c-0.5,0-1.9,2.4-1.9,2.8c0,0.7,0.2,0.7,0.2,0.7
		c-0.9,0-1.7,0.5-1.9,1.4c-0.2,0.2-0.2,0.2-0.5,0.2l3.1-5.9l4.3-6.9c0-0.2,0-0.2,0-0.2h-0.7v-0.5l2.1-3.3l0.2,0.2
		c-0.7,0.9-1.2,1.9-1.4,2.6v0.2c0,0,0,0,0.2,0l0.7-0.2l0.5,0.2v0.2c0,0,0,0,0.2,0V382l-0.2-1.2l1.2-3.3c0,0.2-0.2,0.5-0.5,0.5
		s-0.2,0-0.2-0.2l3.1-5.5c0.2,0,0.2,0,0.5-0.2l-0.5-1.2c0.2-0.7,0.5-1.7,1.2-2.4c0.7-0.9,1.2-1.7,1.2-2.1v-0.5
		c0.2-0.9,0.2-1.7,0.5-1.9h-0.5c0,0,0.2-0.9,0.2-1.4c0.2-0.7,0.2-1.2,0.5-1.4c0-0.2,0.2-0.5,0.5-0.7l0.5-0.9l0.7-3.3v0.2h-0.7
		l-0.2-0.7c0.2-0.7,0.5-1.4,1.2-2.1l0.7-2.1h-0.5c0,0,0-0.2,0-0.5c0-0.5-0.5-2.8,1.2-6.2c0.2-0.5,0.2-0.7,0.2-0.7
		c0-0.2,0-0.5-0.2-0.7v-0.2l0.5-1.2v-0.5c-0.2,0-0.2,0-0.2-0.2l0.2-0.9c0.2-0.7,0.2-1.2,0.2-1.2l-0.2-0.2l0.2-0.9
		c0-1.2-0.5-2.6-0.5-3.3c0-5-1.9-8.8-5-11.9c-1.2-1.2-2.1-1.7-2.4-1.7c-0.5,0-1.7-0.7-3.6-1.9c-4.5-2.8-7.6-4.3-8.8-4.3
		c-6.9,0.7-12.6,1.4-17.1,2.4l-9.2,2.1c-2.1,0.5-3.6,0.9-4.7,0.9c-0.9,0-1.7-0.2-2.6-1.2c-0.7-0.7-1.7-2.1-3.3-4.5v-0.5
		c0-0.2,0.2-0.9,0.9-1.7l0.5-1.2h-0.7c-0.5,0-0.9-1.4-0.9-1.9c0-0.2,0.2-0.5,0.7-0.5h0.5l0.2-0.2v-0.5c0.2-1.2,3.3-2.1,9.2-3.3
		c2.1-0.2,4-0.5,5.9-0.5l0.2,0.2c0,0.2-0.2,0.2-0.5,0.2c-0.2,0.2-0.5,0.2-0.9,0.5c-0.2,0-0.2,0.2,0,0.2c0.2,0.2,0.2,0.2,0.5,0.2
		c0.5,0,0.9,0,1.7-0.2l1.4,0.9c0.2,0,0.5,0,0.7-0.2v-0.2h-0.5l0.7-0.2c5.5-1.9,9-2.8,10.7-2.8c0.7,0,0.9,0.2,0.9,0.5l0.9-0.2
		c0.5,0,1.4-0.2,2.4-0.7c0.7,0,1.7-0.2,2.8-0.5c0.9-0.2,1.7-0.2,1.9-0.2l0.7,0.2c-0.2,0.2-0.5,0.2-0.7,0.2l0.7,0.5
		c0,0.2-0.2,0.2-0.5,0.2l-0.7,0.2h-0.9l-0.2,0.2l2.1,0.2c0.2,0,0.5-0.2,0.5-0.5l0.2-0.2c0-0.2,0.2-0.2,0.5-0.2
		c0.2,0.2,1.2,0.5,2.4,0.5h1.9c0.7-0.2,1.4-0.2,1.7-0.5c0.2-0.2,0.5-0.2,0.5-0.2v-0.2c0-0.2-1.2-0.2-3.3-0.2h-3.6
		c0.2-0.2,1.7-0.5,4.3-0.9l9.5-1.7c2.6-0.2,7.8-1.4,9.7-1.7c2.8-0.2,4.3-0.5,4.3-0.7l4-0.5c5.5-0.7,8.3-0.9,8.5-0.9
		c6.4-0.2,11.9-0.9,12.1-0.9l0.2,0.2c0.2,0,0.5-0.2,0.7-0.5c0.2-0.2,0.5-0.5,0.9-0.9c0.2-0.2,3.6-0.9,4.3-0.9c0.2,0,0.5,0,0.5,0
		c0,0.2,0,0.2,0.2,0.5l0.5,0.5c0.2,0,0.2,0,0.5-0.2l0.2-0.2c0.2,0,0.5,0,0.7,0.2c2.1,0,6.4-0.2,12.8-0.5c9.5-0.7,15.6-0.9,18.3-0.9
		c2.1,0,3.3,0.2,3.3,0.5c-1,0.2-1.7,0.2-2.1,0.2l0.9,0.5l-0.5,0.2c0,0-0.7-0.5-0.9-0.5s-0.9-0.2-0.9-0.2h-3.3
		c-1.7,0.2-2.6,0.2-2.8,0.5l-5,0.5v-0.2c-1,0.5-3.8,0.7-4.5,0.7h-3.8l-0.5-0.5v0.5l-0.2,0.2c0,0,0,0-0.2,0h-0.7
		c-0.2,0-0.2-0.2-0.5-0.5c-0.7,0-1.2,0.2-1.7,0.5c-0.7,0.2-1.2,0.2-1.4,0.2l-0.7-0.5l-0.5,0.2c0,0.2-0.2,0.2-0.9,0.2
		c-0.2,0-0.7,0-1.2-0.2l-0.5,0.7c0,0.7,0,0.9,0,0.9c0,0.2,0.2,0.5,0.5,0.5l1.4-0.2l0.2,0.2c-0.5,0.5-0.7,0.5-1,0.5
		c0,0.2,0.2,0.2,0.5,0.2c0.2,0.2,0.7,0.5,1.4,0.5l0.5-0.5v0.7c0,0.2-0.5,0.5-1.2,0.5c-1.2,0.2-1.7,0.7-1.9,0.9v0.2
		c0,0.2,0.2,0.5,1,0.7c0.7,0,1.2,0.2,1.2,0.5l-0.5,0.2h-1l-0.7,0.2c0.7,0,1.4,0,1.9-0.2c0.5,0,0.9-0.2,1.2-0.7
		c1.2,0,1.9-0.2,2.4-0.2l1.7-0.2v0.2c0,0,0,0,0.2,0.2h0.2c0,0.2,0.5,0.2,1.7,0.5c2.6,0,3.8-0.2,4-0.9c0-0.2,0.5-0.5,1.2-0.5l2.1,0.2
		c-0.2,0-0.5,0-0.5,0.2c0,0.2,0,0.5-0.2,0.5h0.7c0.2,0,0.5-0.2,0.5-0.5v-0.2h-0.2c1.7,0.2,3.6,0.5,5.9,0.5h1.4
		c0.2,0,0.7-0.2,1.4-0.9v0.2l0.2,0.2c0,0.2,0,0.2,0.2,0.2c0.5,0,0.5,0,0.7-0.2c0.2-0.5,0.2-0.5,0.5-0.7c0.2,0,0.2,0,0.5,0.2v0.2
		c0,0.2,0.7,0.2,2.1,0.2c-0.2,0-0.9,0-0.9-0.2c-0.9,0-1.2-0.5,0.9-0.5c1.2,0,1.9,0,1.9,0.2l-0.2,0.2c0,0.2,0.2,0.2,0.5,0.2h0.9
		c0.5,0,0.7,0,0.9,0.2l0.5,0.2c0.2,0.2,0.2,0.2,0.2,0.5v-0.2l1.7-1.2c0.5-0.2,0.9-0.5,1.4-0.5c0.2,0,0.2,0,0.2,0.2v0.5
		c0,0,0.2,0,0.5,0c0-0.2,0-0.2,0.5-0.7l11.4,0.2v-0.5h0.5v0.5l7.3,0.5c0,0.2,0,0.2,0,0.2c0.5,0,0.5,0,0.7-0.2h0.7l0.5,0.2v-0.2
		c0.7,0.2,1.4,0.2,1.9,0.2c1.2,0,1.7-0.2,1.7-0.5h-1.7c0,0,0,0,0-0.2l2.4-0.2l16.1,0.5h11.1l14.7,0.5c0-0.2-4-0.9-12.1-2.1
		c-8.3-0.9-14.9-1.4-19.4-1.4c-1.9,0-3.1,0.2-3.8,0.5c-4.5,0-7.4,0-8.8-0.2h-6.9c-2.8,0-4.7,0-5.7-0.2c-1.7,0-2.4,0-2.4,0
		c0.2-0.2,0.9-0.2,2.4-0.5h2.4c5.9,0,9.3,0,10-0.2c0.9,0,1.7,0,2.1-0.2v-0.5c0.7,0,0.9,0,1.2,0.2c0,0.5,0,0.7,0.2,0.9l2.4-1.2
		l0.2,0.2l-0.5,0.5c0,0,0.5,0,1.2,0.2l1.2,0.2l2.8-0.2l-0.2-0.2H885l-0.7-0.2c-0.2,0-0.5,0-0.5-0.2l0.5-0.2l2.8,0.2h23.7
		c2.8,0.2,4.3,0.2,4.5,0.5l0.2,0.2c0.7,0,1.2,0,1.2-0.2c0-0.7,0-0.9-0.2-0.9c-0.2,0-0.2,0-0.2-0.5l-12.8-0.5c-3.6,0-5.4-0.2-5.4-0.5
		c0.5-0.2,7.3-0.5,20.6-0.5l-0.2,0.2h0.9c1.7,0,3.1,0.7,4.3,1.9v0.5l-2.1-0.2v0.2c0.2,0.2,0.5,0.5,0.5,0.5c0.2,0,2.4,0.9,2.4,1.2
		l-0.7,0.5c0,0.7,0.2,1.7,0.9,2.8l0.7,1.4c0.2,0.7,0.2,1.4,0.2,1.7c-0.2,0.5-0.7,0.9-1.4,1.4v-0.2c-0.7,0.2-2.4,0.2-5.2,0.2
		c-4.7,0-11.9,0-21.3-0.2c-16.4-0.5-31.1-0.7-44.3-0.7c-11.2,0-20.9,0-29.2,0.7c-8.3,0.7-13.3,1.7-14.5,3.1l-5.5,9.5
		c-5.2,8.3-8.1,12.6-8.3,12.8c0,0-0.5,0.5-0.7,1.2c-0.2,0.7-1.4,2.4-2.1,3.1l-3.8,6.4c-1.7,2.8-3.1,4.7-3.8,5.5
		c-0.2,0.2-0.2,0.5-0.2,0.9c-0.7,0.2-1.9,1.9-3.6,4.5c-3.3,5-6.9,11.6-11.6,19.2l-3.1,5c0,0.2,0,0.5-0.2,0.7c-0.5,0-0.7,0.5-0.7,1.2
		l-0.2,0.5c-0.5,0.2-0.5,0.2-0.7,0.2l-0.7,1.7c-0.2,0.2-0.2,0.5-0.7,1.2l-0.9,1.4c-0.7,1.7-1.4,2.6-2.4,2.6c-0.2,0-0.5,0-0.5-0.2
		v-0.2c0.7-1.7,1.7-3.3,2.6-5l0.5-0.7c1.7-2.6,2.4-4,2.4-4.7l0.2-0.5c-0.2,0-0.7,0-0.9,0.2v0.5c-0.2,0-0.2,0-0.2,0h-0.2v0.5
		c-0.2,0.2-0.2,0.2-0.2,0.5c-0.2,0.5-0.2,0.5-0.5,0.5l0.5,0.9l-0.5,0.7c-0.2,0.2-0.5,0.5-0.7,0.5l-0.5,0.2v-0.5
		c-0.2,0-0.2,0.5-0.9,1.4l-1.2,1.7l-0.2,0.9c-0.5,1.7-0.9,2.4-1.2,2.4h-0.5v0.2h0.2l0.2,0.2c0,0.2-0.2,0.5-0.5,0.7
		c-0.7,0.5-0.9,1.2-1.4,2.1l-0.5,1.2l1.2-1.4h0.2v0.2l-0.9,1.9c-1.2,4.3-2.6,6.9-3.8,7.8c0,0.5,0,0.9-0.2,1.4v0.2l-0.9,0.9
		c0.2,0.2,0.2,0.5,0.2,0.7v0.7c-0.2,1.2-0.7,1.9-1.4,1.9l0.2-0.7c-0.2,0-0.2,0.2-0.5,0.5c-0.5,0.7-0.7,0.9-0.7,0.9l-0.5,0.7
		c-0.2,0.2-0.2,0.5-0.2,0.5l-0.2,0.2c0.2,0,0.5-0.2,0.9-0.5l0.7-0.5h0.2c0,0,0,0.5-0.5,1.4l-2.1,4.7c-0.5,0.9-0.7,1.4-0.9,1.4
		c-0.2-0.5-0.2-0.7-0.2-1.2v-0.7l-0.9,1.2c-0.9,1.2-1.2,1.9-1.2,2.4v0.7c0,0.2,0.2,0.5,0.7,0.7v-1.2l-0.2-0.7l0.2-0.5l0.2,0.9
		l0.9-0.2v0.2c0,0.2-0.5,1.2-1.2,3.1l-0.9,2.1c-0.9,2.1-2.8,5-4.5,8.5l-1.7,2.8v1.2l-0.7,1.4l-0.9,0.9c-0.2,0-0.5,0.2-0.7,0.9
		c-1.9,2.6-2.8,4.5-2.8,5.5c-0.2,0.7-0.5,1.2-0.9,1.7L716,469.3l0.5-0.2c-0.2,0.2-0.2,0.2-0.2,0.5l-0.7,0.7
		c-0.2,0.2-0.5,0.5-0.5,0.5l-0.2-0.2l0.2-0.5c0,0-0.2-0.2-0.7,0.2l-1.4,1.4h1.2c-0.2,0.9-0.9,1.2-1.7,1.2
		C712.2,472.9,711.7,472.4,710.8,471.9z M707.4,459.3l-0.7,3.3c-0.7,1.9-0.9,2.8-1.2,2.8L707.4,459.3z M708.9,462.7l1.7-3.6h-0.2
		l-0.5,0.7c-0.2,0.2-0.5,0.9-0.5,1.7L708.9,462.7z M712.4,450.1c-0.2,1.2-0.5,1.9-0.7,2.1c-0.7,0.9-0.9,1.4-1.2,1.4L712.4,450.1z
		 M712.4,462.2l-0.7-0.7v0.2l0.5,0.5H712.4z M713.1,458.4c0,0-0.2,0.2-0.5,0.2c-0.2,0.2-0.2,0.7-0.2,0.9c-0.2,0.5-0.2,0.7-0.2,0.9
		c0.2,0.2,0.2,0.5,0.2,0.5L713.1,458.4z M712.9,448.7c0.2,0,0.2,0,0.2,0v0.5c0,0.2-0.2,0.2-0.5,0.2L712.9,448.7z M715.5,455.3
		l0.2-0.2v-0.2H715c0-0.2,0.2-0.5,0.5-0.7l0.7-0.7c0.2-0.2,0.5-0.2,0.5-0.5c-0.5-0.2-0.7-0.2-0.7-0.2l0.2-0.2V452
		c0-0.2,0-0.2-0.2-0.2l-0.5,1.4v0.2c0,0,0,0,0.2,0l-1.7,1.7l0.2,0.2c0.2,0.2,0.2,0.2,0.5,0.2C715,455.5,715.3,455.5,715.5,455.3z
		 M714.6,457.4l0.5-0.7l-0.2-0.5c-0.2,0-0.2,0.2-0.2,0.5V457.4z M714.6,459.8l0.5-0.5v-0.5h-0.2L714.6,459.8z M719.1,456.3
		c-0.5,0-1.4,1.2-1.4,1.7c0,0.2,0,0.5-0.2,0.5L719.1,456.3z M719.3,459.6v-0.2c-0.7,0-1.7,1.4-1.7,2.1
		C717.9,461.5,718.6,460.8,719.3,459.6z M720.2,435.9l0.5-0.2c-0.5,0.9-1.2,1.9-1.9,2.6L720.2,435.9z M720,454.6l1.4-1.9
		c0-0.2,0.5-0.7,0.5-0.9v-0.5c0,0-0.2,0.2-0.7,0.7c0,0-0.2,0.5-0.9,1.4l-0.5,1.2H720z M720.5,458.6l1.4-2.1l0.9-2.1
		c-0.2,0-0.2,0-0.2-0.2c0-0.2,0-0.2,0.2-0.5l0.2-0.2c0.2-0.2,0.2-0.5,0.2-0.7c0.2-0.2,0.2-0.2,0.5-0.2l0.2,0.5
		c0.2,0,0.2-0.5,0.5-1.2c0.2-1.4,0.5-2.1,0.7-2.1l0.5,0.9c0-0.2,0.2-0.7,0.2-0.7v-0.7l0.9-0.7c0-0.2,0-0.2-0.2-0.5l-0.2-0.2
		c0.2,0,0.7-0.2,0.9-0.5c0.2,0,0.5-0.2,0.7-0.7l0.5-0.9v-0.7l-0.7,0.5l-0.2-0.2l0.7-0.9l-0.2-0.2l-1.2,2.1
		c-4.3,7.6-6.6,11.1-6.6,11.9l0.7-0.5v0.2l-0.5,0.7V458.6z M722.1,449.6l0.2-0.5c-0.2,0-0.5,0.2-0.5,0.5H722.1z M722.1,452.2
		l0.2-0.2c0.2,0,0.2,0,0.2,0v-0.2c0-0.2,0-0.2,0-0.2c-0.2,0-0.2,0-0.5,0.5V452.2z M724,448.2h-0.5l-0.2,0.2l-0.2-0.5l-0.2,0.5
		c0,0.9,0.5,1.4,0.7,1.4c0.5,0,0.9-0.5,0.9-0.9C724.5,448.7,724.3,448.4,724,448.2z M725.2,427.8l-1.2,1.4c-0.2,0.2-0.2,0.2-0.5,0.2
		L725.2,427.8z M724,444.4c-0.2-0.2-0.2-0.2-0.2-0.5l0.5,0.2l0.7-0.5c0,0.2,0,0.2-0.2,0.5c0,0.2-0.2,0.5-0.5,0.5L724,444.4z
		 M725.2,446.1v-0.5c0,0-0.2-0.2-0.7,0.7l-0.2,0.5c0,0.2,0,0.2,0.2,0.2L725.2,446.1z M724.5,435.4c0.2-0.7,0.5-1.4,1.2-1.9l0.2,0.2
		L724.5,435.4z M725.2,447.7l0.2-0.9c-0.5,0.5-0.5,0.5-0.5,0.7L725.2,447.7z M725.2,426.9c0,0,0,0,0.2-0.2l0.5-0.5v0.5
		c0,0.2,0,0.5-0.2,0.5c-0.2,0.2-0.2,0.2-0.5,0.2V426.9z M726.6,431.8v-0.5l0.9-1.2l-0.2,0.2c-0.2,1.2-0.5,1.7-0.9,1.7L726.6,431.8z
		 M726.6,441.8l0.9-2.1l-0.7,0.9L726.6,441.8z M727.4,306.2l-0.5,0.2L727.4,306.2z M728.1,421.9l0.9-0.9v0.2c0,0-0.2,0.2-0.2,0.5
		c-0.2,0.2-0.2,0.2-0.5,0.2H728.1z M729.5,306.2l1.7-0.5c-1.2,0-1.9,0-1.9,0.2L729.5,306.2z M730.4,425.4l-0.2-0.2
		c0.2-0.7,0.7-1.2,0.9-1.2h0.5L730.4,425.4z M730.4,438c0,0,0,0,0.2-0.5h0.2l0.5-0.5c0-0.2,0.2-0.9,0.7-1.9c1.2-2.1,2.1-3.1,2.4-3.1
		c0.2,0,0.2,0,0.2,0.2l-0.2,0.9h0.2l0.2-0.2l-0.5,0.5c-0.7,0.7-1.7,1.4-2.4,3.1c-0.7,1.7-1.4,2.4-1.7,2.4V438z M730.7,418.3v-0.2
		l0.7-1.2h0.2L730.7,418.3z M730.9,440.4h-0.2v-0.5l0.5-0.7c0-0.2,0.2-0.2,0.5-0.2l0.2,0.5L730.9,440.4z M731.2,434v-0.7
		c-0.2,0-0.2,0.2-0.2,0.7H731.2z M732.3,437.3l-0.2,0.9L732.3,437.3z M732.6,433.5l-0.2-0.5c0-0.2,0-0.2,0.2-0.2V433.5z
		 M734.5,309.5c5.5-0.5,11.1-1.2,17.5-2.1l15.9-2.1c4.7-0.7,7.3-0.9,7.6-0.9v0.9v-0.5c0.5-0.7,1.4-0.9,2.8-0.9l1.2,0.2v0.2l0.5,0.2
		l0.2-0.7c0.2-0.2,1.9-0.5,4.7-0.5c5,0,7.6-0.2,8.1-0.9l0.5-0.2c0,0,0.2,0,0.5,0.2l0.5,0.2c0,0.2,0,0.2,0,0.2c0.2,0,0.2-0.2,0.5-0.5
		c0.2-0.2,0.5-0.2,0.7-0.2l-0.7,0.9c1.2,0,1.7-0.2,1.7-0.5v-0.2l-0.2,0.2h-0.2v-0.5h1.7c0.7,0,1.4-0.2,1.9-0.9v-0.5
		c0-0.5-0.2-0.7-0.5-0.7l-0.7,0.2c-0.7,0.2-1.2,0.5-1.4,0.5c-9,0-21.6,1.2-30.3,2.8c-0.2,0.2-2.8,0.7-7.8,1.2l-10.7,1.2
		c-0.2,0-0.7,0-1.7,0.2c-1.4,0.5-4,1.2-7.6,1.9c-3.8,0.7-5.7,1.2-5.9,1.4H734.5z M733.8,413.6h-0.2v-0.2l0.7-1.2L733.8,413.6z
		 M734.9,411.2h-0.5l0.7-0.7h0.2L734.9,411.2z M734.7,431.4v-0.2c0-0.7,0.5-1.7,1.2-2.4l1.2-2.1c1.4-3.6,2.4-5.2,2.8-5.2l0.2,0.5
		l-0.5,1.7v0.7c0,0.2-0.2,0.2-0.5,0.5c-0.5,0.2-0.7,0.5-0.9,1.2l-0.2,0.2v0.2h0.5v0.7c-0.2,0-0.7,0.2-0.9,0.5L734.7,431.4z
		 M734.7,428.7l0.7-0.9c0.2,0,0.2,0,0.2,0.2c0,0.5-0.2,0.9-0.7,0.9L734.7,428.7z M735.2,305.5c0.2,0,0.5,0,0.7-0.2
		c0.2-0.2,0.5-0.2,0.9-0.2h0.9c0.2,0,0.2,0,0.2-0.2s-0.2-0.2-0.5-0.2c-0.2,0-0.7,0-0.9,0.2c-0.2,0-0.7,0-1.2,0.2
		c0,0-0.2,0.2-0.5,0.5H735.2z M737.6,408.1l0.5-0.5c0.7-0.7,1.2-1.4,1.7-1.7h0.2l-0.7,1.2l-0.9,0.7c-0.2,0.2-0.2,0.2-0.5,0.2H737.6z
		 M738.7,420l0.2-0.9h-0.2l-0.2,0.7L738.7,420z M738.7,304.5c-0.2,0-0.5,0.5,0.2,0.5C739.2,305,741.1,304.5,738.7,304.5z
		 M738.7,404.1l0.7-0.7v0.5c-0.5,0.5-0.5,0.7-0.7,0.7V404.1z M739.7,405c0.2-0.7,1.4-2.8,3.8-6.4l0.9-1.4c0.5-0.7,0.7-1.2,0.9-1.2
		l0.2,0.5v0.2l-1.2,1.7c-0.9,1.2-1.2,1.9-1.7,2.1l-0.7,2.1c-1.2,1.7-2.1,2.6-2.4,2.6V405z M741.3,399.8l0.2,0.2L741.3,399.8z
		 M741.8,408.6h-0.5v-0.7c0.2,0.2,0.2,0.2,0.7,0.5L741.8,408.6z M741.6,412.2c0.5,0,0.7-0.5,0.7-1.4v-0.5c0,0,0,0-0.2,0l-0.7,1.2
		L741.6,412.2z M742.3,419.7l0.2-0.9c0.2-0.7,0.5-0.9,0.9-0.9L742.3,419.7z M744,304.3l0.7-0.5c0-0.2,0-0.2,0-0.2h-0.5
		c-0.7,0-0.5,0.5-0.5,0.5l-0.9-0.2l-0.2,0.7c0,0,0,0,0.2,0L744,304.3z M744,416.4c0.2,0,0.5-0.2,0.7-0.5v-0.5c0,0-0.2,0-0.7,0v0.7
		V416.4z M744.2,410.7l0.5-0.5c0-0.2,0-0.2-0.2-0.2L744.2,410.7z M745.1,409.3v-0.5c0-0.2-0.2-0.5-0.5-0.5l-0.2,0.2l0.5,0.7H745.1z
		 M747,404.1c0.2-0.2,0.2-0.7,0.5-1.2l-0.5-0.2l-1.2,2.8c0,0.2,0.2,0.5,0.7-0.5L747,404.1z M746.6,399.3l-0.2-0.2l0.5-0.7
		c0.2-0.2,0.2-0.2,0.2-0.2v0.2L746.6,399.3z M746.8,396l-0.2,0.2L746.8,396z M747.3,405l0.2-0.2v-0.5c-0.2,0-0.5,0.2-0.7,0.5
		L747.3,405z M776.2,342.4c3.6-4.5,9.2-14,16.6-28.7c1.2-2.4,2.1-3.8,2.4-4l0.2,0.2c0.5,0,0.7-0.7,0.7-2.1l-1-0.2
		c-4,0-24.4,2.4-27.7,3.6c-0.2,0-3.8,0.5-10.2,1.7c-6.6,1.2-10,1.7-10.2,1.7c14.7,1.2,22.5,7.3,23.5,18.3v3.3c0,3.1-0.2,5.9-0.9,9
		l-1.7,6.9c-0.5,1.2-0.7,2.1-0.7,2.6l-0.9,4.3c0,0.2,0,0.2,0.2,0.2C767,359,770.3,353.6,776.2,342.4z M747,390.6l0.7-0.9l0.2,0.2
		c-0.5,0.5-0.5,0.7-0.7,0.7H747z M747.5,408.4c0-0.5,0.2-0.9,0.7-0.9l0.5-0.5c0.2,0,0.2,0,0.2-0.2l-0.5-0.7c-0.5,0-1.4,2.6-1.4,3.1
		C747,408.8,747.5,408.4,747.5,408.4z M748,395.6h-0.2c-0.2,0-0.2,0-0.2-0.2h-0.2v-0.5c0-0.2,0.2-0.2,0.7-0.2c0.2,0,0.2,0.2,0.2,0.5
		L748,395.6z M747.5,397.5h-0.2l0.2-0.2h0.5L747.5,397.5z M748.5,404.1v-0.2c0-0.2-0.2-0.5-0.5-0.5l-0.5,0.5c0,0.2,0.2,0.2,0.5,0.2
		H748.5z M748.2,400.5l0.5-0.5v-0.5c0,0,0,0-0.2,0L748.2,400.5z M748.5,388.4v-0.2l0.7-0.5c0,0.5-0.2,0.7-0.5,0.7H748.5z M749.2,401
		l-0.2-0.5c-0.2,0-0.2,0-0.2,0v0.5c0,0.2,0,0.5,0.2,0.5C749.2,401.5,749.2,401.2,749.2,401z M752,392.5v-0.2l-0.2,0.5
		c0,0-0.5,0.5-0.5,0.7c0,0.7,0.5,0.7,0.5,0C751.8,393.2,751.8,393,752,392.5z M752.3,387.7L752,387l0.5-0.2L752.3,387.7z
		 M753.2,390.6l-0.2-0.2l-0.5,0.2v-0.2l-0.2,0.2H753.2z M753.4,394.8l0.7-0.7l-0.2-0.2L753.4,394.8z M755.6,390.6l-0.2-0.2h-0.5
		c0,0.2,0,0.5-0.2,1.2L755.6,390.6z M756.5,302.8c0.2,0,0.2-0.2,0.2-0.7c0.2,0,0.5,0.5,1.2,0.5l2.1-0.7l1.4,0.2l0.9-0.5
		c0.2-0.2,0.5-0.2,0.5-0.2v0.2c0,0.2,0.2,0.5,0.5,0.7c0.5,0.2,0.9,0.2,1.2,0.2h0.2c0-0.2,0-0.2,0-0.2h-0.5c-0.2,0-0.2,0-0.2-0.2
		v-0.2l0.7,0.2l1.2-0.7l0.9,0.2l0.5-0.2l-0.2-0.2c0-0.2,0.2-0.2,0.5-0.2h3.3v-0.5l0.2-0.2h0.7l0.7,0.2c0.2,0.2,0.5,0.2,0.9,0.2
		c0.7,0,1.2-0.2,1.7-0.9v-0.5l-6.9,0.9c-0.7,0-0.7-0.5-1.7-0.5c-0.7,0-0.9,0-0.9,0.2c-0.2,0-0.2,0.5-0.2,0.5c-0.2,0-0.2,0-0.5,0.2
		l-6.2,0.5l0.5-0.5c-0.7,0-1.9,0.7-2.4,1.2l-0.7,0.7L756.5,302.8z M756.8,303.6c0.7,0,1.9-0.2,3.6-0.5L756.8,303.6z M757.7,389.9
		l-0.2-0.7c0.5-1.2,0.9-1.7,1.2-1.7l0.2,0.5c-0.2,0.2-0.5,0.9-0.5,1.2L757.7,389.9z M757.9,377.5l0.5-0.2v-0.5
		c-0.2,0-0.5,0.2-0.7,0.7H757.9z M758.2,386.5l-0.2-0.2l1.2-0.7c0,0.2,0,0.2-0.2,0.5L758.2,386.5z M758.2,364.7l0.2-0.2h0.2v0.5
		c0,0.2-0.5,0.2-0.5,0V364.7z M758.7,381.6c0.5,0,0.9-0.9,1.7-2.8v0.5c-0.2,0.2-0.5,0.9-1.2,1.7l-0.5,0.5V381.6z M759.6,387h-0.5
		l-0.2-0.7c0.2-0.5,0.5-0.7,1.2-0.7v0.5L759.6,387z M760.1,366.9l-0.2-0.2l0.2-0.7V366.9z M760.8,324.9l-0.5-0.7
		c0.5,0,0.7,0.2,0.7,0.5L760.8,324.9z M766,369.5c2.8-5.5,5-9,6.6-10.9l1.2-1.9c0.9-1.4,1.4-2.6,1.7-2.8c0.5-0.2,0.7-0.9,0.7-1.9
		c0.2-0.2,0.7-0.7,0.9-1.9c0.5-0.9,0.7-1.4,0.7-1.4l-3.1,4.7l-0.2-0.2c0-0.2,0.9-1.7,2.8-4.7l2.6-4.3v0.5c0,0-0.5,0.7-0.9,1.7
		c-0.7,1.2-1.2,1.9-1.2,2.1c0.5,0,0.9-0.5,1.2-1.2l2.4-5.7c0-0.2,0-0.7,0.2-0.9l0.2-0.5c0,0,0,0,0.2-0.5l1.2-1.2
		c0-0.7,0.7-1.2,0.9-1.4l0.2-0.2c0.5-1.4,1.2-3.1,2.4-4.3c0.2-0.2,0.7-0.9,0.9-1.9v-0.2c0-0.2,0-0.5-0.2-0.5h0.2
		c-0.2,0-0.5-0.2-0.5-0.5v-0.2c-0.2,0-1,0.9-1.9,2.6c-2.6,4.5-5,8.3-7.1,11.4l-3.1,5.5l-0.2,1.9v0.5c-0.2,0.2-0.5,0.2-1.2,0.2
		c-0.5,0-0.7,0.5-0.9,1.2v0.7l-0.2,0.2c0,0-0.9,1.2-2.6,3.8c-5.2,7.6-8.1,14.2-9.5,19.7l-0.2,0.9c0,0.2,0,0.2,0.2,0.2
		C761,378,762.9,375.2,766,369.5z M760.5,358.1c0.2-0.2,0.5-0.2,0.7-0.5c0,0.2-0.2,0.2-0.5,0.5H760.5z M763.2,303.1l-2.4-0.2
		l0.7,0.2H763.2z M760.8,383.2c0.2,0,0.5-0.2,0.7-0.5c0.2-0.5,0.5-0.9,0.5-1.2L760.8,383.2z M761.7,358.8c-0.2,0-0.2-0.2-0.2-0.5
		l0.2-1.2V358.8z M761.5,359.5h0.2c0-0.2,0.2-0.2,0.2,0v0.2c0,0.2-0.5,0.2-0.5,0V359.5z M762.2,361.7v-0.5h-0.5c0,0,0,0,0,0.5H762.2
		z M763.6,354.8h-0.2v0.5c0,0.2,0,0.5,0.2,0.5V354.8z M766.5,361.7l9-15.2l-2.1,3.3c-5.9,9.2-9,14.2-9.5,15.4
		C764.1,365.2,765.1,364,766.5,361.7z M765.1,350v-0.2l-0.5-0.5h-0.7L765.1,350z M764.3,361.9l0.5-0.5v-0.5h-0.2L764.3,361.9z
		 M765.3,346.5l0.5-0.2l-0.2-0.5L765.3,346.5z M765.3,369.2V369c0,0,0.2-0.5,0.5-0.7c0-0.2,0.2-0.5,0.5-0.9c0.2-0.2,0.2-0.5,0.5-0.5
		L765.3,369.2z M767.4,302.6l-0.5-0.2c-0.2,0-0.5,0-0.7,0.2H767.4z M767.4,371.1c0.2,0,0.5-0.2,0.7-0.9c0.2,0,0.2-0.2,0.2-0.5h-0.2
		c-0.2,0-0.5-0.2-0.5-0.5l0.2-0.2c-0.2,0-0.2,0-0.5,0.2c0,0.2-0.5,0.5-0.5,0.7l-0.2,0.5c0,0,0,0,0,0.2l0.5-0.2c0.2,0,0.2,0,0.2,0
		V371.1z M767.7,365c0-0.2,0.2-0.5,0.5-0.5c0.2,0.2,0.2,0.2,0.2,0.5H767.7z M771.2,365.4l1.2-2.4c0.2-0.2,0.2-0.7,0.2-1.7l0.2-0.2
		c0.2,0,0.5,0,0.7-0.2c0.2-0.2,0.2-0.7,0.5-1.4c0,0,0-0.2,0.2-0.5v-0.2c0.2-0.2,0.2-0.2,0.5-0.2l0.2-0.5c0-0.2,0-0.2-0.2-0.2
		c-0.5,0-4.5,6.2-4.7,7.1c0,0.5,0,0.9-0.2,1.7c-0.5,0.5-0.7,0.9-0.7,1.4v0.5c0,0,0,0.2,0.7-0.9C769.8,367.6,770.5,366.2,771.2,365.4
		z M770.3,361.7c0.5-0.7,0.2-0.9,0.2-0.9c0-0.2,0-0.2-0.2-0.2l-0.2,0.2c-0.2,0.5-0.2,0.7-0.2,0.9c0,0-0.5,0.7,0,0.7L770.3,361.7z
		 M771.9,301.9l0.2-0.2h-0.9c0,0.2,0.2,0.2,0.5,0.2H771.9z M773.1,301.4l4.5-0.2l0.2-0.5c0,0,0,0-0.2,0L773.1,301.4z M773.8,305.7
		c0.2,0,0.5,0,0.7-0.2h0.5c0-0.2-0.2-0.5-0.7-0.5c-0.2,0-0.5,0-0.7,0.2L773.8,305.7z M776,300.2l4-0.7l0.2-0.7
		c0-0.2-0.2-0.5-0.9-0.5c-0.2,0-0.5-0.2-1.2,0.2l-0.9,0.7l-0.2,0.5c-0.2,0-0.5-0.2-0.5-0.5l-0.5,0.2c-0.2,0.2-0.2,0.2-0.2,0.5
		L776,300.2z M777.9,354.3c0-0.2-0.5-1.2-0.5-1.2l-0.2,0.7c-0.2,0-0.5,0.9-0.5,0.9c-0.2,0.7-0.2,0.9-0.2,1.2c0,0.2,0,0.5,0.2,0.5
		C776.9,356.4,777.1,355.7,777.9,354.3z M778.1,345.3h-0.2v-0.5c0,0,0.2-0.2,0.5-0.5l1.2-0.9c-0.7,0.9-1.2,1.4-1.2,1.7L778.1,345.3z
		 M778.6,355.2V355c0-0.2,0-0.5-0.2-0.5l-0.5,0.2c0,0,0,0,0.2,0.2l0.2,0.2H778.6z M779,301l3.3-0.7c0-0.2-0.2-0.2-0.5-0.2l-3.3,0.7
		L779,301z M778.6,352.4l0.2-0.9c0,0,0,0-0.2,0V352.4z M780.2,298.1l-0.2-0.7c-0.2,0-0.2,0-0.2,0.2v0.5H780.2z M780,348.4
		c0.5,0,0.7-0.2,0.7-0.7l-0.9,0.5L780,348.4z M786.2,299.3c0.7,0,0.9-0.5,0.9-1.4c0-0.2,0-0.2-0.2-0.2l-0.5,0.2
		c-0.7,0.2-1.2,0.2-1.7,0.2c-0.9,0-1.7,0-1.9,0.2l-0.9,0.5h0.7v0.2c0,0.2,0,0.2,0.2,0.2H786.2z M781.9,346c0.2,0,0.5-0.2,0.7-0.5
		v-0.5h-0.5l-0.2,0.5V346z M783.1,340.6v-0.5h-0.2c-0.2,0-0.2,0-0.2,0.2L783.1,340.6z M785.9,300.2l-0.7-0.2c-0.5,0-0.7,0-1,0.2
		h-0.9c-0.2,0.2-0.2,0.2-0.5,0.2L785.9,300.2z M787.3,299.3v-0.2l0.7-0.2l-0.2-0.2c-0.5,0-0.7,0.2-0.7,0.5L787.3,299.3z M790,298.8
		c0.2,0,0.5,0,0.7-0.2c0.5-0.5,0.5-1.2-1-1.2c-1.4,0-2.1,0.2-2.1,0.5c0,0.5,0.2,0.7,0.7,0.7c0.5,0,0.7-0.2,1-0.5
		c0.2-0.2,0.2-0.5,0.5-0.5l-0.2,0.7c0,0.2,0,0.2,0.2,0.2L790,298.8z M788.5,329.2v-0.5c0-0.2,0-0.2-0.5-0.2l0.9-1.2
		c0.2-0.5,0.2-0.9,0.2-1.2l0.9-1.2c0.2-0.5,0.2-0.7,0.2-0.9l-1,0.9c-1.4,1.4-1.7,2.8-1.7,3.6c0,0.5,0.2,0.7,0.5,0.7H788.5z
		 M788.8,323.5l0.7-0.7v-0.5c-0.2,0-0.2,0-0.5,0.2c-0.2,0.2-0.2,0.5-0.5,0.9H788.8z M791.9,299.5l1.4-0.5l0.7,0.2v-0.2h0.2
		c0-0.2,0-0.2-0.2-0.2h-1.7l1-0.7v-0.5c0.2,0.2,0.9,0.5,1.9,0.5c0.7,0,1.7,0,2.8-0.2l2.6-0.7c0.7-0.2,1-0.2,1.2-0.5
		c0-0.2-0.7-0.5-1.9-0.5v0.2H799l-0.2,0.2c0,0,0,0-0.5,0.2l-1.2-0.5c-0.2,0-0.2,0-0.5,0.2l-0.2,0.2c0,0,0,0-0.2,0h-2.8
		c-0.2,0-0.5,0.2-0.5,0.5h-1.4l0.5,0.7v0.7l-0.2,0.5L791.9,299.5z M791.4,322.3c0.7,0,0.9-0.2,1.2-0.7v-0.2l-0.5-0.2l-0.2,0.2
		c-0.2,0.2-0.5,0.5-0.5,0.7V322.3z M796.6,299.1v-0.5c-0.2,0-0.5,0-0.7,0.2c-0.2,0.2-0.5,0.2-0.5,0.2H796.6z M796.6,309l0.2-0.7
		c0-0.2,0-0.2-0.2-0.2V309z M821,303.3c3.6-0.7,7.1-0.9,10.7-0.9l7.6,0.2l0.5-0.9c0.2-0.2,0.5-0.2,0.9-0.5c0-0.2-0.7-0.5-1.9-0.5
		l-7.1,0.5c-3.8,0-6.9,0-9.5,0.2c-6.2,0.7-9.5,1.2-10,1.9c0,0.2,0.9,0.5,3.1,0.5C817.2,303.8,819.1,303.8,821,303.3z M817.7,297.4
		c-0.2,0-0.5-0.2-0.7-0.5c-0.7-0.2-0.9-0.5-1.2-0.5c0-0.2,0.7-0.5,1.9-0.5h0.7c0.2,0.2,0.2,0.2,0.2,0.2v0.2L817.7,297.4z
		 M819.3,297.9c-0.5-0.2-0.7-0.7-0.7-0.9c0.7-0.9,0.7-0.9,0.7-0.9c0.2,0,0.2,0,0.5,0.2c0.2,0,0.2,0.2,0.2,0.7
		c0.2-0.2,0.2-0.2,0.2-0.2v-0.5c0-0.2,0.2-0.5,0.9-0.5c1.7-0.2,3.3-0.2,5-0.2c1.4-0.2,2.1-0.2,2.1-0.2c0.2,0,0.5-0.2,0.5-0.7
		l0.5-0.5v0.5c0,0.2,0.2,0.5,0.9,0.5h3.6l-1.2,0.7c-0.5,0-0.7,0-1,0.2c-0.2,0-0.2,0.2-0.5,0.7c-0.2,0.5-0.5,0.7-1,0.7
		c-0.2,0-0.2,0-0.5-0.2l-0.5-0.2c0.2-0.2,0.2-0.2,0.2-0.5c0,0,0.2,0,0.5,0s0.5,0,0.9-0.2c0-0.2,0-0.5-0.9-0.5
		c-1.2,0-2.1,0.2-2.4,0.5v0.2h1.2c-0.2,0-0.2,0-0.2,0.2l0.2,0.9l-0.5-0.2c-0.2-0.2-0.7-0.2-1.2-0.2c-0.2,0-0.5,0-0.7-0.2
		c0.2-0.2,0.5-0.7-0.5-0.9c0,0-0.2,0-0.9,0c-0.2,0-0.5,0.5,0.2,0.5l0.7,0.5c-0.2,0-1.2,0.5-1.2,0.5c-0.7,0.2-1.4,0.2-1.7,0.5
		c-0.7,0.2-1.7,0.2-2.4,0.2C820.1,298.1,819.6,298.1,819.3,297.9z M820.5,297.4l0.5-0.2c0.2-0.2,0.2-0.2,0.2-0.5l-0.2-0.2
		c-0.2,0-0.2,0.2-0.5,0.7V297.4z M821,300l0.5-0.2v0.5c0,0.2-0.2,0.2-0.5,0.2V300z M823.9,300c0-0.2,0.2-0.2,0.9-0.5l0.2,0.2
		L823.9,300z M829.5,299.5h0.2H829.5z M831.7,297.2c0-0.7,0.5-0.9,1.4-0.9c0.7,0,1,0.2,1,0.5l-0.2,0.2c-0.2,0-0.7,0.2-0.7,0.2
		c-0.2,0-0.9,0.2-0.9,0.2C831.9,297.4,831.7,297.4,831.7,297.2z M833.1,299.5l-0.5-0.2c0-0.2,0-0.2,0.2-0.2l1.7,0.2L833.1,299.5z
		 M835,296.9h-0.9l0.7-0.2h0.2V296.9z M834.3,295.3c0.2-0.2,1.4-0.2,3.6-0.2c1.9,0,3.1,0,3.8-0.2c1.2-0.2,1.9-0.5,2.1-0.9
		c0-0.2,0.5-0.2,0.7,0c0.2,0,0.2,0.5,0.2,0.5v0.5l-1.7,0.2c-0.7,0-1.9,0.2-3.6,0.2H834.3z M844,301.2c0.2,0,0.7-0.2,1-0.5l-0.5-0.2
		h-1c-0.2,0-0.9,0.2-1.2,0.2l-0.7,0.5c0,0.2,0.2,0.5,0.9,0.5C842.8,301.7,843.3,301.4,844,301.2z M845.7,301l0.2-0.2l-0.2-0.5
		c-0.2,0-0.5,0-0.5,0.2v0.2c0,0.2,0,0.2,0.2,0.2H845.7z M846.1,302.6l1-0.2l-0.7-0.5l-0.7,0.2v0.2L846.1,302.6z M848,292.9
		c-0.2-0.2-0.2-0.5-0.5-0.5h-1.7c0-0.2,0.7-0.5,2.4-0.5l3.8,0.2c-0.2,0-1.4,0-1.7,0.2c-0.7,0-1.2,0-1.4,0.2l-0.7,0.5c0,0,0,0-0.2,0
		V292.9z M846.1,296c0-0.2,0.7-0.5,1.9-0.7h0.9c0.2,0,0.2,0,0.2-0.2l-0.5-0.2c0.2-0.2,0.5-0.2,0.9-0.2c0.2,0,0.5,0,0.7,0.2
		c0.2,0,0.5,0,0.5,0.2c0.2,0.2,0.5,0.2,1,0.2h1.4c0.5,0.2,0.9,0.2,1.7,0.2l0.7,0.2c0,0-0.2,0-0.7,0l-2.8,0.2c-0.9,0-2.4,0.2-4.3,0.5
		C846.6,296.4,846.1,296.2,846.1,296z M846.9,301v-0.5c-0.5,0-0.5,0-0.7,0.2c0,0.5,0.2,0.5,0.5,0.5S846.9,301.2,846.9,301z
		 M850.7,301.2c0.7,0,0.9,0,1.2-0.2c-0.5-0.5-1-0.7-1.2-0.7h-1.4c-0.2,0-1,0.2-1,0.2l-0.5,0.2v0.2c0,0.2,0.2,0.5,0.9,0.5
		L850.7,301.2z M849.7,302.4c0.5,0,0.7-0.2,0.7-0.5l-0.2-0.2l-0.7,0.5L849.7,302.4z M854,301c-0.2-0.2-0.2-0.2-0.2-0.5v-0.2h-0.9
		c0,0,0,0.2-0.2,0.5c0,0.2,0.5,0.7,0.5,0.7C853.7,301.4,854,301.2,854,301z M853,294.8h1.4c0.2,0,0.5,0,0.5,0.2L853,294.8z
		 M856.3,296c0-0.2,0.2-0.2,0.5-0.5c0,0,0.2,0,0.5-0.2h1c0.9,0,1.4,0.2,1.4,0.5l-0.5,0.2H858c-0.2,0.2-0.5,0.2-0.9,0.2L856.3,296z
		 M862.5,301.9l-0.2-0.2h-0.7l0.2-0.7c0-0.5-0.5-0.7-1.2-0.7l-3.8,0.2c-0.2,0-0.2,0-0.2,0.2c0,0,0.5,0.9,0.7,1.2
		c0.2,0.2,0.5,0.2,0.7,0.2c0.2,0,0.2,0,0.7-0.5l0.2-0.5h0.5v0.5c0,0.2,0,0.2,0.2,0.2s0.2,0,0.5-0.2c0-0.5,0.2-0.7,0.5-0.7v0.5
		c0.2,0.5,0.7,0.7,1.4,0.7C862.3,302.1,862.3,302.1,862.5,301.9z M857.5,292.4l-0.2-0.2c0.2-0.2,0.2-0.2,0.2-0.2v-0.2h0.7
		c0.2,0,0.5,0,0.5,0L857.5,292.4z M861.3,292.2c-0.9,0-1.4,0-1.4-0.2l2.4-0.2c1.2,0,1.7,0.2,1.7,0.5H861.3z M861.3,299.3v-0.2h-1.2
		L861.3,299.3z M865.1,301.4c1.2-0.2,1.7-0.5,1.9-0.5c0-0.2-1-0.2-2.9-0.2c-1.2,0-1.7,0-1.7,0.2c0.2,0.5,0.5,0.7,1.2,0.7
		C863.9,301.7,864.4,301.7,865.1,301.4z M867.2,292.4h-1.4l-1.4-0.2c0-0.2,0.5-0.5,1.2-0.5l2.1,0.5L867.2,292.4z M869.4,300.5
		c-0.2,0-0.5,0-0.7,0.2c0.2,0.2,0.2,0.2,0.5,0.2L869.4,300.5z M869.4,292.4v-0.2c0,0,0,0,0.2-0.2h1.2l-0.2,0.2
		c-0.2,0-0.7,0.2-0.7,0.2H869.4z M872.7,294.8l-0.5-0.2l0.2-0.2c0.2,0.2,0.5,0.2,0.7,0.2L872.7,294.8z M872.5,299.3
		c-0.2,0-0.2,0-0.2,0v-0.2l0.5-0.2c0.2,0,0.2,0.2,0.2,0.5H872.5z M875.3,292.4h-0.7l-1-0.2h1.7V292.4z M887.2,292.4
		c-1.7,0-3.1,0-4.3-0.2h-4.3c-1.2-0.2-1.9-0.2-1.9-0.2l8.3-0.2h3.8c1,0.2,1.4,0.2,1.4,0.5c0,0-0.2,0-0.7,0.2H887.2z M889.3,302.1
		c-0.2,0-0.2,0-0.5-0.2l-0.2-0.2l0.2-0.7c-0.7,0,0.5,0.7-3.3,0.7c0-0.2,1.7-0.5,1.7-0.5c0-0.2-0.2-0.2-0.5-0.5h-1.2l-1.7,0.2
		l-0.2,0.2l0.9,0.2l-0.2,0.2c-0.5,0.2-1.2,0.2-2.1,0.2c0,0.2,0.9,0.2,3.1,0.5L889.3,302.1z M897.6,302.8l0.7-0.2v-0.2h-0.5
		c-0.2,0-0.2,0-0.5-0.2l-0.2-0.5c-0.2-0.2-0.5-0.2-0.7-0.2c-0.5,0-0.7,0-0.7-0.2l0.2-0.2l-0.5,0.2c-0.2,0.2-1.2,0.5-1.7,0.5
		c-0.7,0-2.8-0.2-3.3-0.7l-1-0.2l0.2,0.5h0.5v1.2l0.5-0.2c0.2,0,0.7,0,1.2,0.2c0.2,0.2,0.7,0.5,0.9,0.5l1.2-0.5L897.6,302.8z
		 M893.8,295.5l-0.5-0.2c-0.7,0-2.8,0-3.1,0.2c0,0.2,0.5,0.2,1.2,0.2L893.8,295.5z M893.6,292.7c-0.9,0-1.4,0-1.4-0.2l1.2-0.2
		l1.7,0.2h1.9L893.6,292.7z M894.8,295.7v-0.5l-0.7,0.2l0.5,0.2H894.8z M898.1,295.5c-0.2,0-0.2,0-0.2-0.2h-0.7
		c0,0.2,0.2,0.5,0.7,0.5L898.1,295.5z M900.2,301.7l0.2,0.2v0.2c0,0.2,0,0.2,0.2,0.2l0.5-0.2c0.2-0.2,0.5-0.2,0.5-0.5v-0.2l-0.7-0.2
		c-1,0-1.4,0.2-1.4,0.5v0.5c0,0.2,0,0.5,0.2,0.5L900.2,301.7z M900,296l0.2-0.2h0.2c0,0,0,0,0-0.2v-0.2c-0.2,0-0.5,0.2-0.7,0.7H900z
		 M903.1,295.5h-0.5c0.2,0.2,0.5,0.2,0.9,0.2L903.1,295.5z M904,302.6l0.2-0.2l-0.5-0.5l-0.2,0.5L904,302.6z M908.7,296l-0.2-0.2
		c-0.2,0-0.2,0-0.5-0.2c-0.2,0-1.2,0-1.2-0.2h-1.2c-0.2,0-0.5,0-0.7,0.2c0,0.2,0.2,0.2,0.5,0.2c0.2,0.2,0.5,0.2,1,0.2H908.7z
		 M907.6,301.9l0.2-0.2v-0.5h-0.5c-0.2,0.2-0.2,0.2-0.2,0.5c0,0.2,0,0.2,0.2,0.2H907.6z"/>
	<path fill="#1A0B0C" d="M755.1,447c0-0.7,0-1.7,0.2-3.1c1.4-5.9,9-16.8,12.8-22l4.7-6.2c0.7-1.2,1.2-1.7,1.4-1.7
		c0.2,0,0.5-0.7,1.4-2.1c1.7-2.6,0.9-1.4,3.8-4.3c0.9-0.9,1.7-1.7,1.9-2.4l1.4-1.2c0.7-1.2,1.7-2.4,2.4-3.1c1.2-1.2,3.1-2.4,5.2-4.5
		l4.3-4c0.2-0.2,0.5-0.5,0.7-0.5l0.7,0.5c0.2,0.2,0.5,0.2,0.7,0.2h0.5c0.2,0,0.5-0.2,0.9-0.9l-1.2,0.5l-0.7-0.2v-0.2
		c0-0.5,1.7-0.7,4.7-0.7h2.8c1.9,0.2,2.4,0.7,4,2.6l3.3,5.7v2.1c0.7,0,5-4,5.2-4.7s0.5-0.9,1.2-0.9c0.5,0,0.9-0.7,1.7-2.1l-0.2-0.2
		l2.8-3.1c0.2-0.7,0.7-1.2,1.4-1.9l0.5-1.2h-0.2c0,0-0.2-0.2,0.5-0.5c0.2,0,0.9-0.2,1.2-0.2h1.7c1.2,0,1.9,0,2.6,0.2
		c0.5,0.2,0.7,0.5,0.7,0.7l-1.4,1.7c0,0.5,0,0.7,0.5,0.9l1.4-0.9h0.7c0.5,0,0.7,0.2,0.7,0.5l-0.2,0.7l1,0.7v0.7
		c-0.2,1.2-1.9,4.5-5.7,9.2c-2.4,3.1-4.7,7.3-8.1,12.3c-3.3,5-5.7,9.2-7.4,12.3c-0.9,1.7-1.4,2.4-1.7,2.4l-1.9,3.6
		c-1.4,2.6-4.3,9.5-4.3,12.6c0,0.2,0,0.2,0.2,0.2h0.7c1.2-0.2,1.7-0.2,1.7-0.2c0.2,0,0.7,0,0.9-0.2l0.5-0.5c0,0,0-0.2,0.2-0.5
		c0.2,0,0.7-0.5,1.4-0.9l6.6-4.5c0.2-0.2,0.5-0.5,0.7-0.5c0.2,0,0.5-0.5,1.2-1.2c0.7-0.7,1.2-1.2,1.4-1.2c1.2,0,3.6-2.4,3.6-3.6
		l0.7,0.5l0.7-0.7c1.7-1.7,2.4-2.8,3.3-2.8c0.7-1.2,1-1.4,1-1.7l0.9-0.5v-0.2l0.7-0.9c0.7-0.2,1.2-0.7,1.2-1.2l0.2-0.2
		c0.7,0,1-0.2,1-0.9l0.5,0.2c0,0.7-1.9,2.6-5.9,6.2l-2.6,2.4c-3.3,2.8-4.7,4.7-4.7,5c0.9,0,4.5-2.8,10.4-8.8l1-1.4
		c0.5-0.2,1.4-1.2,3.1-2.8l12.3-10.9l0.7-0.9v-0.5h0.5c0.7-0.7,1.2-1.2,1.2-1.4l0.7-0.7c0.2,0,0.2,0,0.5-0.2v-0.2l-0.2-0.2h-1v-0.2
		l1-0.2c0.5,0,1.2,0,1.2,0.7c0,0.5-2.8,3.3-3.3,3.6c-0.7,0.2-1,0.7-1.2,1.4c-0.2,0.5-0.7,0.7-1.4,1.4c-1,0.9-1.7,1.7-1.9,2.1
		l-0.5,0.7l-1.2,0.5l-1.4,1.7h0.7c0,0.2-1.4,1.9-2.1,1.9l-0.2-0.2l0.5-0.5c-0.2,0-0.7,0.5-0.9,0.5c-0.2,0.5-0.5,0.7-0.7,0.7
		c-0.2,0.2-0.5,0.2-0.5,0.2l-0.2-0.2v0.2c0.5,0.2,1.2,0.5,2.1,0.5c1.2,0,1.7-0.2,1.9-0.5v-0.2h-0.7c0-0.5,0-1.2,0.7-1.2
		c0.5-0.2,0.7-0.7,0.7-1.4c0.2-0.2,0.5-0.5,0.7-0.5c0.2,0,0.7-0.2,1.4-0.9l1.9-1.9c4.3-4.3,7.1-5.9,7.8-5.9l0.2,0.5l-1.4,2.4h0.2
		l-1.9,1.7c-1.2,1.2-2.1,2.6-2.4,3.8c0,1.2-2.1,3.3-5.7,7.1l-5.9,6.2c-5,5.2-12.1,11.6-17.5,16.1c-4.7,3.8-7.8,5-13.8,5h-2.6
		c-1.2,0-1.9-0.2-2.1-0.9c-0.7-0.7-0.9-0.9-1.2-0.9c-0.7-0.2-1.4-1.7-2.1-4.3c0-1.2-0.2-1.9-0.5-1.9c-0.5,0-0.7-0.7-0.7-2.4
		c0-0.9,0.5-2.4,0.7-4c0.2-1.4,0.5-2.4,0.5-3.1c0-0.2,0-0.2-0.2-0.2l-0.2,0.7c-0.2,0.2-0.2,0.2-0.5,0.2l1.9-6.2v-0.9l-0.9,0.7
		c-3.8,2.8-7.8,8.1-13.5,13.3c-4.3,3.8-14.2,13-20.4,13C758.9,455.8,755.1,451.3,755.1,447z M766.2,431.6c0.5-0.9,0.9-1.2,0.9-1.4
		c0,0-0.2,0-0.5,0.2l-1.4,2.1c-0.9,1.4-1.4,2.1-1.4,2.4L766.2,431.6z M766,444.9c0.5,0,0.9-0.2,1.4-0.5c0.9-0.2,0.9-1.2,1.7-1.9h0.2
		l-0.5,0.7l5.2-4.7c1.4-1.2,2.4-1.9,2.6-1.9c0,0,0.7-0.9,2.6-2.4l3.8-3.1l4-4c0.2-0.2,0.2-0.5,0.5-0.5v0.5c0,0.7-1,1.4-2.8,3.3
		c-1.2,1.2-1.9,2.1-2.1,2.6c0,0.2,0.2,0.5,0.5,0.5l1.9-1.7c6.2-5.4,8.8-8.8,9-9c0-0.2,1.9-2.4,5.7-6.2l6.9-7.3
		c0.9-1.2,1.4-1.7,1.7-1.7h0.2c0,0,0-0.2,0.2-0.5l-0.2-0.2c-0.2,0.2-0.5,0.2-0.9,0.2l-2.1,1.7c-0.2,0.7-1,1.2-1.9,1.9
		c-0.2,0.2-0.7,0.5-0.9,1.2c-0.2,0.5-0.7,0.7-1,0.7c0-0.2,0.7-1.7,2.6-3.6l2.1-2.4l-0.7-0.2c-2.4-0.7-3.1-1.9-3.1-2.1
		c0.2-0.9,0.5-1.4,0.5-1.4c0.2-0.5,0.2-0.7,0.2-0.7l0.5,0.7c0,0.2,0,0.2,0.2,0.2l-0.2-1.7c-0.7-0.9-0.5-1.2-1.2-1.2
		c-8.5,2.4-34.6,37.2-36.5,44.1V444.9z M767.4,429.2v0.2l0.5-0.2l0.9-1.4l-0.2-0.2L767.4,429.2z M771.9,423.3l1.7-2.1
		c-0.7,0-1.9,1.2-1.9,1.9L771.9,423.3z M774.8,419l0.7-1.2c0.2,0,0.2,0,0.2,0.2L775,419H774.8z M776,417.4l0.7-0.5
		c0.5-0.2,0.9-0.7,1.2-1.2c-0.5,0-1.2,0.5-1.2,0.9L776,417.4z M776.7,442c0.7,0,10.2-9,11.6-10.4c0.7-0.7,1.7-1.2,2.8-1.7l-0.2,0.5
		l0.2,0.2c0.5,0,0.7-0.5,0.7-1.2c0.5-2.1,3.3-5.5,8.3-10c1.2-0.7,1.9-1.7,2.1-2.4c0-0.2,0.7-0.9,2.1-2.4c2.6-2.6,4-4.3,4-5l0.2-0.2
		h-0.2l-0.7,0.7c-5.2,5.2-9.2,9-12.1,12.6c-1.2,1.4-2.1,2.4-2.6,2.6c-3.1,3.6-5,5-5.5,5.5c-0.5,0.5-0.7,0.9-0.7,1.2l-0.5,0.7
		c-0.7,0-7.8,7.1-8.8,8.1l-0.9,0.9V442z M781.4,434.7l0.2,0.2c0.2,0,0.5,0,0.5-0.2c0.2,0,0.2-0.2,0.2-0.5c0-0.2-0.2-0.5-0.7-0.5
		l-0.2,0.7V434.7z M784,438.7l-1.9,1.7l0.9-0.5c0.7-0.2,1-0.7,1-0.9V438.7z M788.5,382.8l-0.9,0.2h-1.2c0-0.2,0-0.2,0.2-0.5l1.9-1.7
		l-0.2-0.7c0.2-0.2,1.2-0.7,1.4-0.7c0.2-0.2,0.2-0.2,0.2-0.7l7.8-3.8c2.1-0.9,3.1-1.9,3.1-2.6c0.2-0.2,1-0.7,1.7-0.9
		c4.7-3.1,9-6.6,12.3-9.5c0.2,0,0.9-0.5,1.2-0.7c1-0.7,1.9-1.7,2.1-2.4l2.6-2.1c1-0.7,1.7-1.9,1.9-2.6c0-4.3-0.2-4.3-0.5-5.5
		l0.5-0.2c0.5-0.2,0.9-0.2,1.2-0.2c0.2-0.2,0.5-0.2,0.5-0.5c-0.2,0-0.2-0.5-0.2-0.7c0-0.2,0-0.5,0.2-0.7c0-0.5,0-0.5,0.2-0.5h0.2
		c0,0.5,0,0.5,0.5,0.5c0,0.2,0.2,0.2,0.5,0.2h1l1.7,1.7c0.5,1.4,0.9,1.9,2.4,1.9c1.4,0,2.1,0.5,2.8,0.9l0.5,0.2
		c1.4,0.7,1.2,0.7,1.2,0.7v0.7c0,0.2,0,0.2-0.2,0.5c-0.2,0.2-0.2,0.5-0.2,0.9c-0.5,0-0.7,0.2-0.9,0.5l-0.7,1.2
		c-0.9,1.7-1.7,2.1-2.1,3.1v0.9l-0.2,0.7l-0.2-0.5c-0.2,0-0.2,0-0.2,0.5c0.2,0.2,0.2,0.2,0.2,0.5v0.5c0,0,0.2-0.2,1.2,0.7
		c0.2,0.7,0.5,1.9,0.5,3.8l0.2,2.6l1.4,6.2l-0.2,4.7l-0.5,0.9c-0.7,0-1.4,0-2.4,0.5l-0.5-0.5h-2.4c-0.5,0-0.7,0-0.9-0.2
		c0-0.2,0-0.5-0.2-0.5c-0.5,0-1-0.5-1.2-0.9c-0.2-0.2-0.7-0.2-1.2-0.2c-0.5,0-0.7-0.2-0.7-0.7v-1.4c0-0.2-0.5-1.2-0.5-1.4
		c-0.2-0.5-0.2-0.9-0.2-0.9c-0.2-0.7-0.2-1.4-0.2-1.7l0.2-2.1V370c-0.2,0-0.2-0.5-0.2-0.9c0-1.7,0-2.8,0.2-3.1
		c-0.2,0-0.7,0.2-1.7,1.2l-3.1,2.1c-2.8,2.1-4,3.1-4.5,3.1l-1,0.7c-0.9,0.2-1.4,0.7-2.4,1.4c-4,2.4-7.8,4-10.9,5l12.3-6.4
		c3.1-2.1,5-3.6,5.2-4.3v-0.2h0.5c0,0,0-0.5,0.5-0.7l1.9-1.7c0-0.2,0-0.2,0.2-0.5v-0.2c-0.5,0.5-1.9,1.7-4.3,3.3l-4,3.1h-0.2
		c-3.3,1.4-5.7,2.8-6.9,3.6c-0.5,0.2-2.8,1.4-8.3,3.8c-3.1,0.9-5.5,2.6-6.6,2.8L788.5,382.8z M788.1,434.9c0.2,0,0.2-0.2,0.5-0.5
		c0.2,0,0.7-0.5,1-0.5l0.7-0.7c0.5-0.5,0.7-0.7,0.7-0.9c0,0.2-0.7,0.7-1,0.9c0,0-0.9,0.5-1.2,0.7L788.1,434.9z M789.7,424.2
		c0.2-0.7,0.7-1.2,1.9-1.4v0.2c0,0.7-1.4,1.2-1.9,1.4V424.2z M793.3,431.8v-0.7c0,0,0.2-0.7,0.5-0.9c0-0.2,0.5-0.7,0.5-0.7l1.2-1.2
		c0.5-0.2,0.5-0.7,0.5-0.7v-0.5h-0.2l-0.5,0.5c-0.7,0.7-0.9,1.2-1.2,1.2c-0.2,0-0.5,0-0.5,0.2c-0.2,0.2-0.2,0.7-0.2,0.9v0.2
		c-0.2,0.2-0.2,0.5-0.5,0.5l-0.2-0.7l-0.7,0.7v0.7c0,0.2,0.7,0.2,1,0.5H793.3z M792.6,421.6c0-0.2,0-0.2,0.2-0.5l1.2-0.7l0.2,0.2
		c0,0.2-0.7,1.2-1.7,1.4V421.6z M795.2,419l2.1-2.4c0.7-0.2,0.9-0.5,0.9-0.5v0.5c-0.2,0.5-2.6,2.6-3.1,2.6V419z M796.8,441.1
		l0.2-0.5c0.2,0,0.2,0,0.2,0v0.9c-0.2,0.2-0.2,0.5-0.5,0.5V441.1z M797.5,438.7c-0.2,0.2-0.5,0.2-0.5,0v-0.2c0-0.2,0-0.2,0.2-0.2
		v-0.7l0.2-0.2V438.7z M798.5,425c0-0.2-0.2-0.5-0.7-0.5h-0.2l-0.2,0.7c0,0.5,0,0.7,0.2,0.7C798.3,425.9,798.5,425.7,798.5,425z
		 M798.7,434.4h-0.5c-0.5,0.7-0.7,1.4-0.7,2.4L798.7,434.4z M799.4,424.2V424l-0.5-0.5c-0.2,0-0.7-0.5-0.9-0.5h-0.2
		c0,0.2,0.2,0.5,0.5,0.5L799.4,424.2z M799,432.5c0.2,0,0.2,0,0.5-0.2l1-1.4l-0.5-0.2c-0.2,0-0.2,0-0.5,0.2l-0.7,1.2v0.5H799z
		 M801.8,419.3l-0.7,0.2c-0.7,0.2-1.2,1.2-1.7,2.6L801.8,419.3z M802.3,429.7v-0.5c0.2-0.2,0.5-0.5,0.5-0.5l-0.2,1.2L802.3,429.7z
		 M803.5,425.2l0.2-0.2v-0.2c0-0.2-0.2-0.2-0.5-0.2c-1.2,0-1.2,0.9-0.2,0.9C803.2,425.4,803.2,425.4,803.5,425.2z M803.2,427.1
		l0.5-0.7v0.9c0,0.2-0.2,0.2-0.5,0.5V427.1z M808.4,418.1c0-0.2,0-0.2-0.2-0.2l-0.2,0.5c-0.2,0.5-1.2,1.9-2.1,4.5L808.4,418.1z
		 M811.8,403.1l0.5,0.5c0.7,0,1.2-0.5,1.2-1.2c0-0.2-0.2-0.2-0.5-0.2c-0.2,0-0.7,0-1,0.7L811.8,403.1z M813.4,400.8c0-0.2,1-0.2,1,0
		c-0.2,0.5-0.5,0.7-0.7,0.7L813.4,400.8z M815.3,367.3c0.5,0,0.5,0,0.5,0.2l-0.9,0.2L815.3,367.3z M816.3,367.1
		c-0.2,0-0.5,0-0.5-0.2l0.9-0.2L816.3,367.1z M821,364.5l0.5-0.2v0.5l-0.5,0.5V364.5z M822.2,363.8c0.2-0.2,0.7-0.2,1-0.2l-1,0.7
		V363.8z M824.1,436.1c0-0.2,0-0.2,0.2-0.5h0.2c0.2,0,0.2,0.2,0.2,0.5c-0.2,0.2-0.2,0.5-0.5,0.5
		C824.1,436.3,824.1,436.3,824.1,436.1z M826.7,434.4c1.2-0.9,1.9-1.7,1.9-1.9v-0.9c0-0.7-0.7-0.7-1.2-0.7v0.2c0,0,0.2,0.2,0.2,0.5
		c0.2,0.2,0.2,0.5,0.2,0.7c0,0.7-0.2,0.9-0.7,0.9h-0.5c-0.2,0-0.7,0.2-1,0.9l-0.2,0.2c0,0.2,0,0.2,0.2,0.2L826.7,434.4z M828.4,350
		l-0.7-1.7c-0.2-0.7-0.9-1.2-1.4-1.2v0.5c0,0,0.7,0.9,0.9,1.2c0,0.5,0,0.5,0.2,0.7L828.4,350z M826.5,439.4c1.4-1.4,2.6-2.6,3.6-3.3
		l3.6-3.3c0.2,0,0.5-0.2,0.7-0.7c0-0.5,4.3-4.3,4.7-4.7l3.1-3.1l-0.7,0.2h-0.2v-0.2l0.7-1.4c-0.2,0.2-0.7,0.5-1.4,1.2l-1,0.9
		l0.5-0.2c0.7,0,0.9,0,0.9,0.2c0,0.5-0.5,0.7-1.4,0.7c-0.5,0-0.7,0-0.7,0.2v0.5c-0.5,1.7-2.6,2.8-4.3,2.8l0.5,1.2
		c-0.2,0.2-0.2,0.2-0.5,0.2c-0.7,0-0.5,0-0.9,0.9l-0.5,0.9c-0.2,0-0.2,0-0.5,0.2c-0.2,0.2-1.2,0.5-1.4,0.5c-0.2,0.2-0.5,0.5-0.5,0.7
		c-0.2,1.2-1,1.9-2.4,1.9l-0.2,0.7c0,0.9-0.5,1.4-1.2,1.4c-0.2,0-0.5,0.5-0.7,1.4H826.5z M829.3,432.8l0.2,0.2
		c0.7,0,1.4-1.7,1.7-2.4c0-0.5,1.4-1.2,1.9-1.2l0.2-0.2c0-0.5,0-0.7-0.2-0.7l-2.6,1.4c1.4-1.4,2.1-2.4,2.4-3.1
		c-0.5,0-1.2,0.5-1.9,1.2l-0.9,1.7v1.2c-0.2,0-0.2,0.2-0.5,0.5l0.7,0.5L829.3,432.8z M833.8,427.8c0,0,0.2-0.2,0.5-0.2l0.2-0.5
		l0.5,0.7l0.5-1.4l0.7-0.7h0.5l0.7,0.9c0.2,0,0.5,0,0.7-0.2c0,0-0.2-0.5-0.2-0.7v-1.4l0.5,0.2c0.2-0.2,0.5-0.5,0.5-0.7
		c0-0.2-0.5-0.2-1.2-0.2c-1.2,0-1.9,0.2-2.1,0.5l-1.2,1.9c-0.5,0.7-0.7,1.4-1.2,2.1C833.3,428,833.6,428,833.8,427.8z M836.7,420
		c0,0,0,0,0.2-0.2v-0.2c-0.2-0.2-0.2-0.2-0.5-0.2H836c0,0.2,0.2,0.5,0.5,0.7H836.7z M836.4,427.8c0-0.9,0.9-0.7,0.9-0.5l-0.2,0.2
		c-0.2,0.2-0.2,0.2-0.2,0.2l-0.5,0.2V427.8z M839,416.9c0.2-0.7,0.9-0.9,1.7-1.4c0.7-0.5,0.9-0.9,1.2-1.7c0.2-0.7,1.9-0.2,1.9-0.9
		c0-0.2,0.2-0.7,0.5-0.9h0.2l-0.2,0.5c-0.2,0.7-1.9,2.4-5,4.7L839,416.9z M842.6,423.3v-0.5l0.2-0.5h0.2l0.2,0.5
		c0,0.2-0.2,0.5-0.5,0.5H842.6z M843.5,419.7h0.2v-0.2h0.2l0.5-0.7c0-0.2,0-0.5-0.2-0.5l-0.7,0.9V419.7z M847.3,415.9
		c0.2,0,0.2,0,0.2,0.2l-2.4,1.9L847.3,415.9z M845.4,411.7c1.4-2.1,2.4-3.3,3.1-3.3l0.2,0.5l-0.2,0.5c-0.5,0-1.4,0.9-3.1,2.6V411.7z
		"/>
	<path fill="#1A0B0C" d="M842.1,454.1c-0.2-1.2-0.5-1.7-0.7-1.7c-0.2,0-0.5,0.2-0.7,0.7l-0.2,0.2c-0.2,0-0.2-0.2-0.5-0.5l-1.2-2.6
		c0-0.2-0.5-0.7-1.2-0.9c-0.7-0.2-0.9-0.5-1.2-0.9c-0.2-0.5-0.2-1.2-0.2-2.4l1.9-6.4c2.8-5.7,10.2-17.3,22.3-34.9
		c4-5.9,7.4-11.1,9.7-15.6c1.7-3.1,3.3-5.5,4.5-7.1l3.3-3.6c1.7-1.2,2.6-1.9,2.8-1.9c0.2,0,0.5,0,0.5,0.2l-0.2,0.2l0.5,0.5v0.2h0.2
		l-0.2-0.7c0.5-0.7,0.7-1.2,0.9-1.2s0.5-0.2,0.5-0.5l-0.2-1.4c0.2-0.2,0.5-0.5,0.7-0.5l2.4,0.9c0.2,0,0.7-1.2,1.4-1.2l0.7,0.7
		c0.2,0.2,0.7,0.5,1.2,0.5l0.7-0.2v0.2c0.5,0.7,0.9,0.9,1.7,1.2c1.2,0.2,1.9,1.7,1.9,4.3c0,2.1-1.2,5.9-2.1,7.6
		c-0.7,1.2-1.9,2.8-4,5.2c-3.6,4.3-6.4,8.3-8.8,12.1c-0.5,1.2-1.7,2.6-3.3,4.3c-1.7,2.6-4.3,5.9-7.6,10l-7.8,11.6
		c-1.9,2.8-2.8,4.5-3.3,5.2l-1.4,2.1v0.5h0.2c0.7,0,8.1-6.6,22.5-20.2l5.9-5.5c3.8-3.8,23.5-23,28.5-23.5l2.1-0.2
		c1.2,0,1.7,0.2,1.7,0.9l-0.2,1.9v0.2h0.2l2.1-0.2c0.7,0,0.9,0.2,0.9,0.5c0,0.7,0.2,1.2,0.7,1.4c0.5,0,0.7,0,0.9,0.2l0.2,0.7
		c0,0.2,0,0.5,0.2,0.7l0.7,0.7c0.2,0.2,0.2,0.5,0.2,0.9c0,1.4-0.5,4-1,7.8l-0.9,6.2c-1.2,5-2.8,10.9-5,17.3v1.2
		c0.2,0,0.9-0.5,1.9-1.4c1.4-1.7,3.1-3.1,4.7-4.3c2.1-1.7,3.6-2.8,4.5-3.8c0.7-0.7,1.2-1.2,1.4-1.2c0.2,0,0.7-0.2,1.4-0.9l12.6-10.7
		c2.1-1.2,3.8-1.9,5-2.1c1.2,0,2.1,0,2.6,0.2c0.2,0.2,0.5,0.5,0.5,0.7v0.9h-0.5c-0.2,0-0.5,0-0.5,0.2l0.2,0.5
		c0.2,0.5,0.5,0.7,0.7,0.7l2.4-0.5c0.2,0,0.5,0.2,0.5,0.5c0,0.2,0,0.5,0.2,0.7c0.2,0,0.5,0.2,0.5,0.5c0.5,0.2,0.9,1.4,1.2,3.1
		c0.2,0.2,0.2,0.7,0.2,0.9c0,1.2-0.2,2.1-0.5,3.1c-0.2,0.2-0.2,0.5-0.2,0.7c-0.5,2.1-1.2,4-1.7,6.2l-2.4,9c0.2,0.2,0.2,0.5,0.5,0.5
		h0.5c1,0,2.1-0.9,4.3-2.4c1.7-1.2,2.6-1.9,3.1-1.9c0.2,0,0.7,0,0.9-0.2l3.8-2.4c4.7-3.1,8.5-5,11.1-6.2l4.3-2.8
		c2.4-1.2,3.8-1.9,4.5-1.9h0.2c0.2,0,0.2,0,0.2,0.2l-0.2,0.2c0,0.2-0.2,0.7-0.5,0.9c-0.2,0.5-0.5,0.9-0.5,1.2c0,0.2-0.2,0.5-1,0.7
		c-0.7,0.2-1.2,0.7-1.2,0.9c0,0.2-0.5,0.5-1.4,1.2l-4,2.6c-0.7,0.7-1.2,1.2-1.2,1.4c0.2,0,2.4-1.4,5.9-3.8l4.3-2.8v-0.5h-0.5
		c0-0.7,3.1-2.1,3.8-2.1l0.2,0.5c-0.2,0.2-0.7,1.4-0.9,2.1l-2.4,2.8c-0.9,1.2-1.9,2.4-3.1,3.6c-1.2,1.2-1.9,1.7-2.4,1.9
		c-0.7,0.2-2.8,1.7-6.4,4.3c-5,3.6-8.1,5.4-9.2,6.2c-2.9,1.7-4.7,2.8-5.5,3.6c-1.2,0.9-3.3,1.4-6.2,1.4c-2.1,0-3.6-0.2-4.3-0.5
		l-2.1-1.7h-0.5c-1.2,0-2.8-3.3-2.8-5.9c-0.2-1.9-0.2-3.3-0.5-4l-0.2-0.9l0.2-0.2v-0.5l-0.5-0.2c-0.2,0-0.2,0-0.2-0.2v-0.2h0.2
		c0.5,0,0.7-0.2,1-0.9l-0.2-0.2l-0.5,0.2c-0.2,0-0.2-0.2,0-2.8v-3.1l-20.2,19.2c-1.9,1.9-3.6,2.8-4.7,2.8c-0.5,0-0.7-0.2-1-0.7v-0.2
		h-0.5l-1.7,0.9c-0.5,0-0.9,0-1.7-0.7l-0.7-1.2c-0.2-0.5-0.2-0.9-0.5-1.2c-0.7-0.9-1.4-1.4-2.1-1.7c-2.8,0-3.6-7.3-3.6-9.2
		c0-1.2,0.9-5.7,2.8-13.5c1.4-6.2,2.1-10,2.1-11.4c0-0.5-0.2-0.7-0.5-0.7c-4.7,3.1-13.5,10.9-26.1,23l-24.4,23.2
		c-2.1,1.9-3.6,3.3-4,4.3c-0.2,0.5-0.7,0.9-1.7,1.2c-0.7,0.2-1.7,0.5-3.1,0.9c-1.4,0.5-2.6,0.7-3.8,0.7
		C843.8,456.5,842.4,455.8,842.1,454.1z M839,445.1c0.7-3.1,1.7-5.2,2.4-5.9c0-0.2,0.7-1.2,0.7-1.4v-0.2c0.2-0.9,0.7-1.9,1.7-2.8
		c0.9-0.9,1.4-1.7,1.4-2.4l5-7.8c0.2-0.7,0.5-1.4,0.7-1.7c0.2-0.2,0.5-0.7,0.5-1.2c0.2-0.5,0.9-1.7,2.6-3.8l0.7-0.9
		c0.5-0.7,1.2-2.1,1.4-2.4c0.5-0.9,0.7-1.4,0.7-1.7c0.2-0.5,0.5-0.7,0.9-0.7c0.2,0,1-0.5,1.2-1.4c0.2-0.7,1.4-2.1,2.6-4l4.3-6.6
		c1.4-2.4,2.1-3.8,2.1-4.5c0-0.2,0-0.2-0.2-0.2l-7.6,12.1c-0.7,1.2-1.4,0.7-1.7,1.7l-1.2,1.9c-0.5,0.9-2.1,2.6-3.8,5.7l-7.8,12.1
		c-2.1,3.1-8.3,13.5-8.3,17.1c0,0.7,0.2,0.9,0.7,0.9C838.3,446.8,838.8,446.3,839,445.1z M842.4,441.8l2.1-3.3
		c1.7-2.6,3.1-5.2,4.7-7.8l1.9-3.1c0.5,0,1.2-0.9,2.1-2.6c1.2-2.4,2.1-4.3,3.1-5.5l3.1-4c3.8-5,5.2-8.1,5.2-8.5v-0.2h-0.2l-8.5,12.1
		c-2.4,3.3-12.8,19.2-13.5,22.5V441.8z M843.6,446.3c0.2,0,0.7-0.7,1.4-2.4c2.1-3.6,3.1-5.7,3.6-6.9h0.5c0.2,0,0.7-0.2,0.9-0.5v-0.2
		l-0.2,0.2H849c2.8-4.7,4.5-7.1,5-7.1l0.7-0.9c0,0,0-0.2,0.2-0.7c0.2,0,0.2,0,0.5-0.2v-0.2c0-0.2,0.2-0.2,0.2-0.5
		c0-0.7,1-1.7,1.9-3.1l1.4-1.9v-0.2c0.5-0.9,1.9-3.3,4.3-6.9l1.7-2.6c1.4-2.1,2.1-3.1,2.4-3.3c0.7-0.5,0.9-0.9,0.9-1.4
		c0-0.2-0.2-0.5-0.5-0.5c-1.2,0-3.6,2.6-7.1,8.1L850,431.1c-3.3,5-5.2,8.1-5.7,9.2l0.2,0.2l0.9-0.7l0.2,0.2l-1,2.6
		c-0.7,1.2-1.4,2.6-1.7,3.8C843.3,446.5,843.3,446.5,843.6,446.3z M866.1,435.9l-0.7,0.2l-0.7,0.9v0.2c0,0.2,0,0.2,0.2,0.2
		L866.1,435.9z M865.1,435.2h0.7c0.7,0,1.4-0.2,1.9-0.9c0.2-0.5,0.5-0.7,1.2-0.7c1.7,0,2.4-0.9,2.9-2.4c0-0.2,0.2-0.9,0.2-0.9
		c1.4,0,2.8-1.2,3.3-2.6v-0.9l0.2,0.2c1.2,0,8.3-6.9,9.3-7.8l1.7-2.4c0-0.5,0.2-0.7,0.5-0.9c0.2-0.2,0.5-0.2,0.5-0.2l-0.7,0.9
		l0.2,0.2c0.5,0,1.9-1.7,4.7-4.3l3.6-3.3c5-4.7,7.6-7.3,7.6-8.1v-0.5l0.2-0.2l0.9,0.2c0,0,0.2,0,0.7-0.2l1-0.5
		c0.7-0.2,0.9-0.9,1.4-1.2l1.4-1.2l1.7-2.1v-0.2c0-0.5-0.2-0.7-0.5-0.7c-0.2,0-0.7,0.2-1,0.5c-0.2,0.7-1.9,1.4-3.8,3.1
		c-1.4,1.2-4.3,3.6-8.5,7.6c-4,3.8-6.2,5.7-6.6,5.7h-0.2v0.2c0.2,0.2,0.2,0.5,0.2,0.7c0.2,0,0.2,0.7,0.2,0.7c-0.5,0-0.9,0.5-1.7,0.7
		c-0.7,0.2-2.4,1.7-5,4c-0.5,0-1.4,0.2-2.1,1.7l-0.7,1.4l-0.5,0.2c-0.5,0-11.4,10.4-12.6,12.1c-0.9,1.2-1.7,1.7-1.9,1.7L865.1,435.2
		z M869.6,404.3l0.9-1.4h-0.5c-0.5,0.2-0.7,0.7-0.9,1.2L869.6,404.3z M913.7,425.4l0.5-0.2c0.2,0,0.2,0,0.5-0.2l0.2-0.2
		c0-0.2-0.2-0.2-0.7-0.2c-0.2,0-0.5,0.2-0.5,0.5V425.4z M932.9,423.1l1-0.5c0-0.2,0.2-0.2,0.5-0.5c0.2-0.2,0.2-0.2,0.2-0.5l-1.4,0.7
		c-0.2,0.2-0.2,0.2-0.5,0.7H932.9z M943.8,435.9c0-0.2-0.5-0.7-1.7-1.4l0.7,0.7c0.2,0.7,0.7,0.9,0.9,0.9V435.9z M944.8,438.9v-0.2
		c0-0.5,0-0.7-0.2-0.9l-0.7-0.5l-0.7,0.7c0,0.2,0.5,1.2,0.7,1.2c0,0.2,0,0.5,0.2,0.5C944.3,439.7,944.6,439.4,944.8,438.9z"/>
	<path fill="#6A1D0F" d="M12.6,671.5l38.4-45.7c21.8,16.9,47,25.2,75.2,25.2c12.3,0,18.4-3.1,18.4-9.2v-0.6
		c0-5.5-9.8-10.1-29.8-14.1c-29.2-5.8-50-12.9-63.2-21.2c-18.1-11.4-27.3-27.3-27.3-47.9v-0.6c0-21.2,7.7-38.4,23.3-51.6
		c16.6-13.8,39.3-20.9,67.8-20.9c39.9,0,72.1,9.8,97,29.5l-35,48.5c-19.3-14.1-40.8-21.2-64.4-21.2c-10.4,0-15.7,3.1-15.7,8.9v0.6
		c0,5.5,9.5,10.1,28.5,13.8c30.4,5.5,52.8,12.9,66.6,22.1c16.9,11.4,25.2,27,25.2,47.3v0.6c0,22.4-8.6,40.2-25.8,53.4
		c-16.9,12.9-39.9,19.3-69,19.3C77,707.7,40.2,695.7,12.6,671.5z"/>
	<g>
		<path fill="#1A0B0C" d="M456.6,344.8c-0.2-1.2-0.2-1.9-0.2-2.4c0-1.2-1.4-4-4.3-9c-8.5-15.2-24.4-19.2-41-19.2
			c-5,0-11.1,0.5-18,1.4c-2.1,0.2-4,0.5-5.7,0.5c0.5-2.1,0.7-3.8,0.7-4.7c-0.2-1.2-0.7-1.9-1.7-2.6c-0.2,0-0.5,0-0.5-0.2v-0.5
			c0-0.2-0.7-0.5-2.1-0.5l0.2-0.7c0-0.2-0.5-0.2-1.7-0.2c-2.6,0-3.1,0.2-3.3,0.2h-0.2l-0.2,0.2h-0.5l-0.2,0.7c0,0.7-0.2,1.7-0.9,3.3
			c-0.7,1.4-1.4,2.4-1.7,3.1l0.2,0.2h0.2v0.2l-2.1,5c-0.2,0.7-0.5,1.2-0.7,1.2c-0.2,0-0.2,0-0.2-0.2v-0.2l0.5-1.4l-0.2,0.2
			c-1.2,3.3-19.2,8.8-22.1,9.5l-0.9,0.2l-6.4,3.1c-17.3,8.3-26.3,12.8-26.8,14c0,0.7-0.2,0.9-1.2,0.9c-0.2,0-0.2,0-0.5,0.2
			c-0.2,0.5-0.9,1.2-2.6,1.9c-1.2,0.5-2.4,1.4-3.3,2.4c-0.7,0.5-1.2,0.7-1.9,0.7c-0.2,0-0.2,0.2-0.2,0.5v0.5h-0.5
			c-0.2,0-0.5,0.5-1.2,0.9l-4,2.8c-0.7,0.2-1.2,0.5-1.4,0.5v0.2c-0.2,0.2-0.5,0.2-0.7,0.2l0.2-0.7c-0.7,0.5-1.2,0.7-1.7,0.7
			l-0.5-0.2l0.2,0.5v0.2h0.7v0.9h-0.7c-0.5,0-1.4,0.9-3.3,2.1l-2.1,1.4c-0.7,0.5-1.2,0.7-1.4,0.7c-0.2,0-0.5,0.2-0.7,0.7
			c0,0.2-0.2,1.4-0.2,1.7l-0.2,1.7l-0.2-0.2v-0.2c0-0.2-0.2-0.5-0.5-0.5c-0.5,0-0.9,0.5-1.4,2.1l-0.5,4c0,0.5,0.2,0.7,0.5,0.7
			c0.2,0,0.5,0.2,0.5,0.7l-0.2,0.5c0,0.9,1.2,0.5,1.9,1.7c0,0.2,0.2,0.5,0.7,0.7l3.3,1.7c0.5,0.2,0.7,0.2,0.9,0.2
			c0.2,0,0.5,0,0.7-0.2c0.2,0,0.7-0.2,0.9-0.2l4.7-2.1l3.3-2.1c0.7,0,1.7-0.9,2.4-1.2l5.2-2.6l3.8-1.4h0.2c0.7-0.2,1.2-0.2,1.4-0.5
			c0.2,0,0.5,0,0.5-0.2c0,0,0.2-0.2,0.7-0.5c0.5-0.2,1.2-0.5,1.9-1.2c1.9-0.7,2.8-1.2,2.8-1.7v-0.2c0,0-0.9,0.5-0.9-1.2
			c0.2-0.7,0.7-1.4,1.2-2.1c0-0.2-0.2-0.5-0.5-0.7l-0.2-0.9v-0.5l-1.2-0.2c-0.9,0-1.4-0.2-1.4-0.5l0.5-0.5l-0.5-0.7
			c0.5-0.7,1.9-1.7,4.5-2.8c0.2,0,2.6-1.4,6.9-4c2.6-1.2,5.2-2.8,6.2-3.6l10-4.7c5.5-2.6,10.4-4.5,14.5-5.9l1.9-0.7h0.2v0.5
			c0,0.7-0.2,0.2-0.2,3.8c0,0.2,0,0.5-0.2,0.5c0,0.2-0.2,0.2-0.5,0.2c-0.5,0-0.9,0.2-1.4,0.7c0,0.2-0.2,0.5-0.5,0.5h-0.5
			c0,0.2,0.7,1.4,0.7,2.1l-0.2,0.2c-0.7,0-0.9,0-0.9,0.2l-0.2,0.2c-0.2,0.5-0.2,0.7-0.5,1.2l-0.7-0.2l-0.2,0.2
			c0.2,0.5,0.5,0.7,0.5,0.9c0,0.2,0.2,1.2,0.5,1.2c-0.2,0.9-1.4,1.2-1.4,1.4v0.2c0,0.5,0.7,0.7,2.1,1.4l0.9,0.5l-0.5,0.5
			c-0.2,0.2-0.5,0.2-0.5,0.2c-0.2,0.2-0.2,0.2-0.2,0.5c0.7,0,0.9,0,1.2-0.2c0-0.2,0.7-1.4,0.9-1.4l0.5,0.7c-0.2,0.7-0.2,1.2-0.5,1.2
			c0,0.2-0.5,0.7-0.5,0.7l-1.7,2.8c0,0.7-0.2,1.7-0.9,2.4c-0.2,0.2-0.2,0.7-0.5,1.2c0,0.2,0,0.5-0.2,0.7c0,0.2-0.2,0.5-0.5,0.5
			c-0.7,0.2-0.9,0.7-0.9,1.2h0.5c-0.2,0.7-0.2,1.2-0.5,1.4l-0.2-0.2l0.2-0.5c0-0.2,0-0.5-0.2-0.5c-1.4,0-13.8,21.3-15.4,25.1
			l-1.4,1.7h-3.1c0.5-0.7,1.4-2.4,2.8-4.7c0.9-1.7,1.7-3.1,2.6-4.3c0.9-1.2,0.9-1.7,1.2-1.7v0.2l-2.1,4l0.2,0.2c0.2,0,0.5,0,0.7-0.2
			l0.9-1.7c0.2-0.2,0.5-0.9,0.7-1.7c0.7-2.4,2.1-3.6,2.1-4h-0.9c0.7-1.2,1.2-1.7,1.4-1.7h0.2v0.5c0.2,0,0.7-0.5,1.2-1.4
			c0.5-1.2,0.9-1.9,1.4-2.4c0.9-0.9,1.7-2.1,1.9-3.6l-0.2-1.2l2.4-4.7l0.5-0.5c0,0.2-0.5,1.2-1.2,2.8l-0.9,2.1h0.2v0.2
			c0.5,0,0.7-0.5,0.9-1.4l1.9-3.8c2.8-5.7,4.7-8.5,5-9.2v-0.2c-0.2,0-0.2,0.2-0.7,0.9l-2.8,4.5c-0.5,0.7-0.7,1.2-0.9,1.7
			c-0.2,0.5-0.2,0.7-0.5,0.7c0-0.2,0.2-0.5,0.5-0.9c2.1-4,3.1-6.2,3.1-6.9l-0.2,0.5c0-0.2,0-0.2-0.2-0.2v-0.2l-0.2-0.2h-0.5v2.1
			l-0.5,0.2l-4.3,7.8c-0.5,0.7-0.9,1.4-1.4,1.7v0.2h0.5l0.2,0.2c-0.9,0.7-1.4,1.7-1.7,2.4c-0.2,0.7-0.9,1.7-1.7,2.8l-1.4,2.1
			l0.5-2.4c-0.5,0.5-0.7,0.9-0.7,1.2c-0.2,0.7-1.4,2.4-3.1,5.2c-2.8,5-6.2,9.7-9,14.5h-0.5c0,0.2,0.2,0.2,0.2,0.5h-2.1
			c0-0.2,0-0.2-0.7-0.2h-0.5v-0.2c0-0.2-0.2-0.2-1.2-0.2l0.7,0.2l-0.7,0.2h-0.5l0.2-0.5h-0.5l0.2,0.2l-2.1-0.2h-0.7v-0.5
			c0,0-0.2,0-0.5,0.5H324c-0.9-0.5-1.2-0.5-1.2,0l-1.2-0.5c-0.9-0.5-2.4-0.7-4.7-0.7c-0.2,0-0.5,0-0.9,0c-0.7,0-1.7,0.2-1.9,0.5
			l-0.9,0.7v0.2c-0.5,0.2-1.4,0.5-1.4,0.7l-0.9,0.7c-0.5,0-0.5,0-0.5,0.2c-0.2,0.9-0.2,1.2,0,1.4c0,0-0.2,0.2-1.2,0.5h-0.2
			c0,0.2,0,0.2-0.2,0.2v0.7c0,0.2-0.2,0.5-0.2,0.5v0.7c0.2,0.9,0.7,0.5,0.5,1.2l1.2,0.5l2.6,0.5l10.9,0.9c0.2,0,2.1,0.2,5.7,0.5
			c-10.2,17.3-25.1,43.2-30.6,62.1l-1.2,6.6v1.4c0.7,0,1.2,0.2,1.4,0.5l1.9,0.5v1.9l0.5,0.9c0,0.2,0,0.5,0.2,0.5l1.2-0.5
			c0.1,0.1,0.3,0.2,0.4,0.3l2.6-4.6c0-0.1,0-0.1,0-0.2c0,0,0.2-1.9,0.7-3.3l-0.1,2.6l0.6-1.1c0,0,0,0,0-0.1l0.7-1.4
			c0.5-0.9,0.2-1.4,0.5-1.4h0.2l0.2,0.1l2.2-3.8c-0.3-0.2-0.4-0.5-0.4-0.9c0-1.7,1.4-5.2,4.3-10.7c4.5-8.5,9.5-16.8,14.5-25.4
			l3.1-5.5c0-0.2,0.2-0.2,0.5-0.2l-0.5-0.9c0-0.2,0-0.2,0.2-0.2h1.2v-0.2c-0.2-0.2-0.2-0.7-0.5-1.4c0.2-0.7,0.7-1.2,0.9-1.2
			c0.2,0,0.2,0,0.2,0.2c0,0.2-0.2,0.5-0.5,0.7l1.2-0.7l-0.7-0.9l0.2-0.2c0.2,0,0.2,0,0.5-0.2c0.2,0,0.5-0.5,0.7-1.2
			c0.2-0.9,1.2-1.7,1.4-1.7v-1.7h0.5l0.2,0.2l0.5-0.5l0.5-1.4c0,0,1.2-2.1,3.6-6.2h1.4c0.2,0.2,1.7,0.2,5.5,0.5l7.8,0.5h0.5
			c2.1,0.2,5.5,0.2,10,0.2c0.5,0,0.7,0,1.2,0c0.9,0,1.7,0,1.9,0h1.9c0,0,0.2,0,0.7-0.2h-0.2c-0.2-0.2-0.2-0.2-0.5-0.2
			c-0.2,0-0.7,0.2-1.2,0.2H371l-0.2-0.5c0,0.2-0.5,0.2-0.9,0.2c-0.5,0-1.2,0-2.4-0.2c-0.7,0-1.9-0.2-3.1-0.2l-5.2-0.2
			c-1.7,0-2.4-0.5-3.3-0.5c0-0.2-3.8-0.7-11.4-1.9h-0.7c0-0.2,0.2-0.7,0.5-0.9c3.3,0,5.7,0.2,7.1,0.2l3.1,0.2c5.9,0.5,9,0.2,10,0.5
			c0,0,0.2,0,0.5,0c0.5,0,1.4,0,2.8,0h12.1c5.5,0,9.2,0.2,11.9-0.5l0.9-0.2v0.2c0,0-0.7,0.5-1.4,0.5h-0.2v0.2c0.2,0,0.9,0,1.7-0.2
			c0,0.2-0.7,0.5-1.4,1.2l-1.2,0.2c-0.7,0-0.7,0-0.9,0.2l-0.2,0.2v0.2c1.7,0,9.2-1.9,9.7-3.3c0.2-0.5,0-0.7-0.2-0.7v-0.2H398
			c-0.2-0.2-0.2-0.7-0.2-0.7V393l-1.9,0.2h-4.7c-0.5,0-0.2,0.5-0.9,0.5c-0.9,0-1.9,0-3.8,0.2l-7.3,0.2l-3.3-0.2
			c-0.2,0-0.5-0.2-0.5,0h-0.5v-0.7h1.4c-0.7-0.2-1.2-0.5-1.4-0.5h-1.7l-0.5-0.2l-10.4-0.5h-1.9c-0.5,0-1.2,0-1.7,0
			c-0.2,0-0.5,0-0.5,0c-0.9,0-3.1-0.2-5.7-0.7c-0.7,0-1.4-0.2-2.1-0.2c-0.2,0-0.5,0-0.7,0.2c-0.7-0.2-1.7-0.5-2.4-0.5l14.5-24.2
			c15.4-25.6,22.8-38.9,23-38.9c1.2-0.2,1.7-0.7,1.9-0.9c0-0.2,0.2-0.5,0.5-0.5l1.4,0.2c1.7,0,6.2-0.5,13-1.7
			c0.7-0.2,3.6-0.5,8.1-0.5h3.3c20.6,0,32.2,4,34.9,12.3c1.2,3.6,1.7,6.9,1.7,10.4c0,1.2,0,2.8-0.2,5c-0.5,4-0.9,6.2-0.9,6.4l-5,9.2
			c-0.9,1.9-1.9,3.1-2.6,3.6c-0.2,0-0.5,0.2-0.7,0.7l-1.7,1.9c-12.6,14.2-23.7,26.6-35.8,34.9c-2.1,1.4-3.1,2.4-3.3,2.6
			c-0.5,0.9-11.5,9.2-17.6,13.6l1.8,0.4c4.4-3.3,9-6.8,13.9-10.5c11.1-8.3,20.6-15.9,28.7-22.3c7.8-6.6,12.1-10.7,12.6-12.1v-0.2
			c0.5-0.2,0.7-0.5,0.9-0.9c0-0.2,0.2-0.5,0.7-0.9l0.5-0.5l0.2-1.2l0.5,1.4l2.4-3.3c0.9-1.4,1.4-2.4,1.7-2.4
			c-2.1,4.7-4.5,7.8-7.1,9.5c-0.2,0-0.5,0-0.5,0.2c0.9,0,0.9,0.2,0.9,0.5l-0.5,0.2c-0.5,0-0.7,0-0.9,0.2l-0.2,0.2l0.5,0.5h0.2
			l0.2,0.2h0.2c0,0.2-0.2,0.2-0.5,0.2h-1.2c0.5,0.5,0.5,0.5,0.5,0.7c0.2,0.2,0.2,0.2,0.2,0.5l-1.7,1.4h0.5l-3.8,3.8
			c0-0.2,0.2-0.2,0.5-0.2c-0.7,1.7-2.1,2.8-4,3.8l-1.7,1.4l0.2,0.5c0,0.2-0.2,0.2-0.5,0.2c-0.2,0.2-0.9,0.7-1.7,1.7
			c-0.7,0.9-0.9,1.4-1.4,1.4c-0.5,0-1.4,0.7-3.1,2.4l-2.6,2.6l3.1-2.4l-0.5,0.7c-1.2,1.9-2.4,2.6-2.6,2.6c-0.2,0-0.2-0.2-0.2-0.7
			v-0.5h-0.2l-2.1,1.7c-0.7,0.7-0.9,0.9-1.2,0.9c-0.7,0.5-0.9,0.7-0.9,0.7v0.5h0.7l0.2-0.2l-0.5,0.7c0,0.2-0.7,0.7-0.9,0.9l-0.2-0.2
			l0.7-0.9c-0.2,0-0.5,0.2-0.7,0.5c-0.2,0.2-0.9,0.7-0.9,0.7l-1.2,1.2l0.9-0.5c0.2,0,0.7,0,0.9-0.2v0.5h-0.2L412,411
			c-0.2,0.2-0.5,0.2-0.7,0.2c-0.2,0-0.5,0-0.7,0.2l-0.7,0.7c0,0.2-0.2,0.5-0.5,0.7h-0.2l0.7-1.2l-0.2-0.2c-2.1,1.7-3.8,3.1-5,3.8
			c-0.9,0.5-1.2,1.4-1.2,1.7l0.9-0.5v0.5l-1.4,1.2c-0.5,0.2-0.7,0.2-0.9,0.2l-0.2-0.2l1.4-1.2l-0.2-0.2c-4,2.6-5.9,4.3-5.9,5
			l0.2,0.2c0,0.2-0.5,0.5-1.4,1.2l0.7-0.9l-0.2-0.2c-0.9,0-3.1,2.6-4,2.6l-2.4,1.7l-0.5,0.7l0.4,0.1l0.6-0.3
			c-0.1,0.1-0.3,0.2-0.4,0.3l2.3,0.5c0.1,0,0.2-0.1,0.2-0.2c0.7-0.5,1.2-0.7,1.4-1.2l-0.2-0.5l0.2,0.2c0.7,0,2.1-1.2,4.5-3.3
			c2.6-2.4,4-3.1,4.5-3.1c0.2,0,0.5-0.2,0.7-0.7l0.7-1.2c0.2-0.5,0.7-0.7,1.4-0.7c0.9,0,3.8-2.4,3.8-3.3c0-0.2,0.2-0.2,0.5-0.2
			c0.2,0,0.7,0,0.9-0.2c1.2,0,5-4,5.2-5l-0.2-0.2l0.7,0.2c0.2,0,0.7-0.2,0.9-0.5c0.2,0,0.7-0.7,0.9-0.9c0-0.2,0.2-0.7,0.5-0.7
			l-0.2-0.5l0.5,0.2c0.2,0,0.5-0.2,0.7-0.5l1.2-0.9c0.2-0.2,0.7-0.2,0.9-0.2c0.2,0,0.5,0,0.7,0.2l0.2,0.2v0.2h0.2v-0.9
			c0-0.7,0.7-1.4,1.9-2.6l3.6-3.6c3.3-2.6,5.2-5,5.9-6.6c0.2-0.5,0.7-0.9,1.4-1.4c5.2-3.6,16.8-23.5,16.8-30.6v-0.7
			c-0.2-0.2-0.2-0.5-0.2-0.7c0.2-0.2,0.2-0.5,0.2-0.7l0.2-0.2c0.2-0.2,0.5-0.2,0.5-0.2c-0.2-0.2-0.2-0.2-0.7-0.5l0.9-1.4
			c0.2-0.2,0.2-0.7,0.2-0.9c-0.2,0-0.2,0-0.2,0.2l-0.5,1.2c-0.2,0-0.2-0.7-0.2-2.4c0-2.1,0-3.3,0.2-3.6c0-0.2,0-0.5,0.2-0.5l0.5,0.9
			v0.5l0.2,0.7c0.2,0.9,0.5,1.7,0.5,2.8c0,0.5,0,1.2-0.2,2.4v3.3c0.2,0.2,0.2,0.2,0.2,0.5l-1.7,5.7c-2.4,6.9-5.7,12.8-10,18.3
			c-0.5,0.7-0.7,1.2-0.7,1.4l-1.2,0.9c-1.7,1.2-1.2,1.7-1.4,1.7l0.9-0.2v0.7l-0.5,0.5c-0.7,0-5,4-5.7,4.7l0.5,0.5
			c0,0.2-1.4,0-2.1,0.7v0.5l1.2-0.5c0,0.2,0,0.2-0.2,0.2l-1.7,0.9l-2.1,1.9c-0.2,0.7-0.7,1.4-1.4,1.7l-0.2,0.2h-0.5v0.7
			c0,1.7-9.2,9.7-11.1,9.7c-0.2,0-1.2,0.5-2.4,1.4c0,0.2-1.4,0.7-1.2,0.9c-0.2,0.2-0.5,0.5-0.7,0.5c-0.2,0-0.5,0.2-0.5,0.2l0.2,0.9
			c0,0.5-0.9,1.4-2.6,2.8c-1.9,1.2-3.6,2.1-5.2,2.8c-0.7,0.2-1.2,0.7-1.7,1.4c-0.5,0.9-1.4,1.2-2.4,1.7l-0.9,0.5
			c0,0.7-0.2,1.2-0.9,1.7l-4,3.1l1.5,0.3c0.4-0.2,0.7-0.4,0.8-0.6c0-0.2,0-0.2,0.5-0.7c0.5,0,0.9-0.2,1.4-0.9
			c0.2-0.5,0.7-0.7,1.2-0.7c0.2,0,2.1-1.4,5.9-4.5l12.8-10c12.3-9.5,18.5-15.4,19-17.1c0-0.2,0.5-0.7,1.2-1.2c0-0.2,0.7-0.9,0.9-1.2
			c0.2-0.2,0.2-0.2,0.2-0.5v-0.5c0.2,0,0.2,0,0.5-0.2v-0.2l0.5-0.5c0.2,0,0.5-0.2,0.9-0.9c0.7-1.2,1.2-1.9,1.9-2.6
			c3.8-3.8,6.9-9,10-15.4c1.7-4,2.6-7.1,2.6-9c0-0.7,0-0.9,0-1.4l0.5-0.7c0-0.5,0-0.7,0.2-0.9c0.2-1.2,0.2-2.1,0.2-3.3
			C457.5,349.8,457.3,346.5,456.6,344.8z M349.6,368.1c0.5-0.7,0.7-0.9,0.9-0.9v0.7l-0.2,0.2c0,0-0.5,0.5-0.7,0.5l-0.5,0.2
			C349.1,368.5,349.4,368.3,349.6,368.1z M347,372.1l0.9-1.4h0.5v0.2c-0.2,0.7-0.5,0.9-1.2,1.7l-0.5,0.5
			C346.8,372.8,346.8,372.3,347,372.1z M346.1,372.1c0.7-0.9,0.7-0.7,0.7-0.7v0.2l-1.2,1.7c0,0.7-1.7,3.3-2.1,3.3
			C343.5,376.1,344.4,374.7,346.1,372.1z M337.5,386.5c0-0.2,0.2-0.5,0.5-0.9l0.7-0.2l-0.7,1.2l-0.7,0.5
			C337.3,386.8,337.3,386.8,337.5,386.5z M319.3,396.7c-0.5,0-0.7-0.2-0.7-0.2h1.9c0.2,0,0.2,0,0.5,0.2H319.3z M321.4,397l0.2-0.2
			h0.5l0.9,0.2H321.4z M393.3,397h0.5l-0.2,0.5l-0.2-0.2V397z M383.3,394.6h0.5l-0.2,0.2h-0.5L383.3,394.6z M371.2,393.2h0.9
			l0.9,0.5l0.5-0.5c0.2,0.5,0.2,0.5,0.2,0.7l-0.5,0.2l-0.9-0.2l-0.5,0.2l-0.7-0.5V393.2z M368.6,393.2l0.9,0.5l-0.9,0.2V393.2z
			 M368.6,395.3l2.1,0.7c-0.2,0-0.7,0-2.1-0.2V395.3z M367.6,395.3l0.5,0.5c-0.2,0.2-0.5,0.2-0.5,0V395.3z M365.3,395.1
			c0.5,0,0.5,0,0.5,0.2h-0.5V395.1z M349.4,376.1c0-0.7,3.6-6.4,4-6.6c-1.2,2.8-2.1,4.5-2.6,5c-0.2,0.7-0.7,1.2-0.9,1.4l-0.7,0.5
			L349.4,376.1z M350.3,379.2v0.2c0,0.2-0.2,0.5-0.5,0.5h-0.5l0.7-0.9C350.3,379,350.3,379,350.3,379.2z M347.3,379
			c0.5-0.7,0.9-1.2,1.2-1.2l-0.2,0.2c-0.2,0.7-0.2,1.4-0.5,1.7c-0.2,0.2-1.2,1.7-1.2,1.9c-0.2,0.5-0.7,0.7-0.9,0.7L347.3,379z
			 M348.2,382.8l-0.7,1.4c-0.2,0.2-0.2,0.2-0.5,0.2v-0.5c0,0,0-0.2,0.2-0.5C347.5,383.2,347.7,383,348.2,382.8z M343.9,385.4
			c0.5-0.7,0.7-1.2,0.9-1.2c0,0.2,0,0.9-0.7,1.7l-0.9,0.9L343.9,385.4z M341.1,389.2c0.2,0,0.5,0,0.5-0.2h0.2v0.2l-0.5,0.7h-0.2
			c-0.5,0-0.7,0-0.7-0.2C340.6,389.6,340.9,389.4,341.1,389.2z M339,393.2h0.2c0.2,0,0.2,0,0.2,0.5l-0.2,0.2h-0.7
			C338.7,393.7,339,393.4,339,393.2z M338.5,395.3c-0.2,0.5-0.5,0.7-0.7,1.2c-0.2,0-0.5-0.2-0.7-0.2c0.2-0.2,0.5-0.7,0.7-0.9H338.5z
			 M337.3,393.7h-0.2l0.5-0.5C337.3,393.4,337.3,393.7,337.3,393.7z M336.3,395.1c-0.2,0.2-0.5,0.7-0.5,1.2c-0.5,0-0.9-0.2-1.2-0.2
			l0.2-0.5v-0.2l0.2-0.2H336.3z M336.1,399.1c-0.7,1.2-1.2,1.7-1.2,1.7c0-0.5,0.5-0.9,0.7-1.7H336.1z M334,395.1h0.5l-0.2,0.2
			l0.2,0.5l-0.5-0.5V395.1z M326.4,394.8h0.7c0.9,0,0.9,0,0.9,0.2L326.4,394.8z M328.5,395.1l0.5-0.2h0.9c0.7,0,1.2-0.2,1.4-0.2v0.2
			c0,0.2-0.2,0.2-0.2,0.5h-1.4L328.5,395.1z M305.3,454.4l-1.4,2.8c0.5-1.7,0.9-3.1,1.7-4.3C305.5,453.2,305.3,454.1,305.3,454.4z
			 M306.5,459.6c-0.5,0-0.7-0.2-0.7-0.5c0.2-0.5,0.7-0.7,0.9-0.7h0.2l0.2,0.5C306.9,459.3,306.7,459.6,306.5,459.6z M307.7,450.1
			c-0.2,0.5-0.2,0.7-0.2,0.9c-0.2,0.2-0.2,0.2-0.5,0.2c-0.2,0-0.2,0.2-0.5,0.5c-0.2,0.5-0.2,0.7-0.2,0.7h-0.5V452l1.4-3.3
			c0-0.2-0.2-0.2-0.5-0.2l-0.2,0.2c-0.7,0-0.9,0.2-0.9,0.7v1.9l-0.2,0.2l-0.7-0.2v1.2c-0.5,0.5-0.7,0.7-0.7,0.9v0.5h0.2l-1.9,4.5
			c-0.7,1.4-1.2,2.8-1.4,4l-0.7,5l-0.5,1.2c-0.7,0-0.9-0.5-0.9-1.2c-0.2-0.5-0.2-0.9-0.2-1.7c0-5,6.6-19.4,9-23.7
			c2.4-4.5,9-17.5,20.6-39.4c0.9-1.7,1.7-3.1,2.4-4h1.9l0.2,0.2c-0.5,0.7-1.4,2.8-2.4,2.8l-0.5-0.5c-0.2,0-0.7,0.9-1.7,2.8
			c-1.2,2.1-1.7,3.3-1.7,3.6l1.9-2.8c0.2-0.5,0.5-0.7,0.7-0.7l-1.4,3.1l0.2,0.5c0.2,0,0.5-0.5,0.9-1.4c0.2-1.2,0.5-1.9,0.5-1.9v-1.2
			c0-0.7,0.2-0.9,0.5-0.9c0.2,0,0.2,0,0.5,0.2v0.5l-0.2,0.2c0.2,0,0.5-0.5,0.9-1.2l2.1-3.1h0.2l0.9,0.2l-1.2,3.1v0.9l1.4-1.9
			l-0.5,1.7c-0.2,0.7-0.7,1.4-1.4,1.7c-0.7,0.2-1.9,1.4-1.9,2.6l-2.1,2.6c-0.2,0.2-0.5,0.7-0.5,0.9l-0.2,0.7
			c-0.2,0.2-0.2,0.2-0.5,0.2l-0.2,0.2h-0.2l0.5,0.9c0,0.2-0.2,0.5-0.7,0.9c-0.5,0.5-0.7,0.7-0.7,1.4v0.5h-0.2c0,0.2-0.2,0.2-0.2,0.2
			l-1.9,3.3c-0.9,0.9-1.4,1.9-1.4,2.8h0.5c0-0.5,0-0.7,0.2-0.7c0.2,0,0.2,0,0.2,0.2c0,0.7-0.7,2.1-1.7,2.1l-0.9-0.5v0.5
			c0.2,0.5,0.9,1.4,0.7,1.4l-0.5,0.7c0,0.2,0,0.5-0.2,0.7l-0.5,0.5l0.2-1.4c0-0.2,0-0.2-0.2-0.2l-0.2,0.7c0,2.8-5.9,14.5-7.8,14.5
			l-0.2,0.2v0.5l0.2,0.2h0.5c-0.5,0.2-0.7,0.9-0.9,1.7l-0.2,0.2c0,0.7-0.2,1.2-0.5,1.2c-0.7,0-0.9,0.2-1.2,0.9
			c-0.5,1.2-0.5,2.1-1.2,2.8C307.9,448.9,307.7,449.4,307.7,450.1z M329,410.5c0-0.2,0.2-0.5,0.5-0.7l3.1-4.7v0.2
			c-0.7,0.9-0.9,1.9-2.1,4c-0.5,0.7-0.9,1.2-1.2,1.2H329z M329.2,411.2v0.2c0,0.5-0.7,1.7-1.9,3.3c0,0.2,0,0.5-0.2,0.5h-0.2l1.7-4
			l0.5-0.2C329.2,411,329.2,411,329.2,411.2z M325.2,419l-1.2,1.2c0-0.2,0.2-1.2,0.5-1.2l0.2-0.2C325,418.8,325.2,418.8,325.2,419z
			 M334.4,410l-0.2,0.7l-0.2-0.2c0.2-0.9,0.2-0.9,0.5-0.9V410z M339.4,402.4H339l-0.2-0.2V402c0.2-0.2,0.7-0.2,0.7,0V402.4z
			 M339.9,399.6c-1.2,1.2-2.1,2.8-2.4,4.5c-0.2,1.9-2.4,2.8-2.4,4.5h-0.7c-0.2,0-0.7,0.7-1.2,2.1c0,0.5,0,0.7,0.2,0.7
			c0,0.2,0,0.2-0.2,0.5c-1.2,0.5-1.7,0.9-1.7,1.4l-0.7,1.4c-0.2,0-0.5,0.2-0.5,0.9l0.7-0.5v0.5c0,0.2,0,0.5-0.2,0.9
			c-0.2,0.2-0.2,0.5-0.5,0.5h-0.9c-0.2,0-0.2,0.2-0.2,0.5l0.2,0.9c-0.2,0.2-0.2,0.5-0.5,0.5c-0.7,0.2-0.9,0.5-1.2,0.9v0.7l-0.9,2.1
			l-2.1,3.3c-1.4,2.1-1.9,3.1-1.9,3.3l-5.7,11.1c0,0-0.2,0.7-0.9,1.9c-0.5,0.7-0.9,1.9-2.1,4l-3.3,6.6c-0.2,0.2-0.2,0.5-0.2,0.7
			c-0.2,0.5-0.2,0.7-0.2,0.7c-0.2,1.2-0.5,1.9-0.9,1.9c-0.2,0-0.2-0.2-0.2-0.5l0.7-2.1l-0.7,0.5c-0.2,0-0.5-0.2-0.7-0.5v-0.9
			l0.2-0.2c0.2-0.2,0.7-1.2,1.2-2.6c0.5-1.2,1.2-2.4,2.4-3.3l-0.5-0.7c0.2-0.5,1.4-1.7,2.6-4.3l0.5-0.9c0-0.7,0.7-2.4,2.1-4.5
			l2.1-3.1l-0.9,1.7h0.2c0.5-0.5,0.9-1.7,1.7-3.6c0.7-1.9,0.9-2.8,1.2-2.8h0.7c0-0.5,0.2-1.7,0.9-1.7l6.4-11.4
			c3.8-7.3,6.9-12.8,8.8-16.1h2.1L339.9,399.6z M341.8,396l-0.7,0.7c-0.5,0-0.9-0.2-1.4-0.2c0.2-0.2,0.5-0.7,0.7-0.9l0.2-0.2h0.9
			l-0.2,0.2l0.5-0.2c0.2,0,0.5,0.2,0.9,0.2C342.5,395.8,342.3,396,341.8,396z M341.6,394.1l0.2-0.2v-0.2c0.2,0,0.5,0.2,0.9,0.2h0.5
			l0.2,0.2H341.6z M362,394.1c0,0.2,0,0.5-0.2,0.2c0,0-0.7,0-0.7-0.2H362z M349.9,394.1h5.9c0.7,0,0.9,0,0.9,0.2v0.5
			c0.2,0,0.5,0,0.5-0.2c0-0.5,0.5-0.5,0.5-0.5l-0.5,0.5h0.7l0.2,0.2c0.2,0,0.9,0,0.9-0.2v-0.5l0.2,0.2h0.2c0,0.2,0,0.2,0.2,0.5h3.1
			l0.7,0.2c-0.2,0.2-1.4,0.2-3.8,0.2l-4.7-0.5c-2.4,0-4.3-0.2-5.2-0.2c-0.2,0-0.5,0-0.5,0l-4-0.2c0-0.2,0.2-0.5,0.2-0.7
			c0.2,0,0.5-0.2,0.5-0.5l0.2,0.5L349.9,394.1z M348,387l-0.7-0.9l-0.5,0.2l0.7,2.4c0,0.2-0.5,0.5-1.4,0.7c-0.9,0.2-1.4,0.5-1.7,0.9
			l-0.2-0.2l-0.7,0.2c0.2-0.7,0.9-1.7,1.7-3.1c1.2-1.2,2.1-1.9,2.8-1.9l0.2-0.2c0.2,0,0.2-0.2,0.5-0.9c0-0.2,0.5-0.9,1.2-1.7
			l0.5-0.5C350.3,382.8,348.4,387,348,387z M351,381.1c0,0.2-0.2,0.5-0.5,0.5l-0.2-0.5l0.5-0.5h0.2V381.1z M352,375.9l-0.7,1.4
			c-0.2,0.2-0.5,0.5-0.7,0.5h-0.2l0.2-0.5c0.7-1.2,0.7-2.1,1.7-2.1C352.2,375.4,352,375.6,352,375.9z M353.9,374.2
			c-0.5,0.2-0.7,0.5-0.9,0.5h-0.2c0,0,0-0.2,0.5-0.7l0.9-0.9C353.9,373.5,353.9,374,353.9,374.2z M356.3,369.7
			c-0.5,0.7-0.7,1.2-0.9,1.2v-0.5l0.2-1.2V369c0.2-0.5,0.5-0.7,0.7-1.2l0.9-1.2c0.2-0.2,0.5-0.5,0.7-0.5l0.2,0.2L356.3,369.7z
			 M351.8,329.9c0,0,0.2,0,0.5-0.2c0.2,0,0.5-0.2,0.7-0.2v0.5c-0.2,0-0.5,0-0.5,0.2l-0.9,0.2C351.5,330.1,351.5,330.1,351.8,329.9z
			 M345.6,332.7c0.2-0.2,0.5-0.2,0.7-0.2c0,0.2-0.2,0.5-0.7,0.5l-0.7,0.2C344.6,333.2,345.6,332.7,345.6,332.7z M332.8,338.7h0.7
			c-0.7,0.7-0.9,0.7-0.9,0.7h-0.5C332.1,339.1,332.3,338.9,332.8,338.7z M309.1,358.8c0-0.2,0.7-1.2,2.4-2.4
			c1.2-0.9,2.1-1.7,2.4-2.4l0.2-0.2l0.5,0.5C314.5,355,309.8,358.8,309.1,358.8z M319.3,358.3c0,0.2-0.2,0.5-0.5,0.5h-0.2l-0.2-0.2
			c0.2-0.2,0.2-0.2,0.5-0.2c0-0.2,0.2-0.2,0.7-0.2L319.3,358.3z M362.2,342.7v0.7l-0.5-0.5c0-0.5,0.5-1.9,1.2-1.9h0.7v0.5
			c0,0-0.2,0.2-0.7,0.5C362.4,342.2,362.2,342.4,362.2,342.7z M365.5,347.2c-0.2,0.7-0.9,1.4-0.9,1.7c-0.2,0.2-0.2,0.5-0.5,1.2
			c0,0.5-0.2,0.9-0.5,1.2c-0.2,0-0.2-0.2-0.2-0.7c0,0,0.2-0.5,0.5-1.7l0.7-1.2l0.9-0.7V347.2z M359.3,332.5l-7.4,3.1
			c-5.9,2.6-9.2,4-10.4,4.7c0,0.2-0.5-0.2-3.3,1.4l-12.3,6.6c-7.1,3.8-10.7,5.9-10.9,5.9h-0.2c0-0.2,0-0.2,0.2-0.5
			c0,0,0.2-0.2,0.5-0.7c0.2-0.2,0.5-0.5,0.7-0.5c0.5,0,0.7-0.2,0.9-0.5c0-0.2,0.2-0.2,0.7-0.5c0.5-0.2,0.9-0.5,1.4-0.9
			c0.2-0.7,5-3.1,5.2-3.1c0.5,0,0.7-0.2,0.9-0.5c0-0.7,0.9-1.4,2.8-1.7l1.9-0.9c16.1-8.1,28-14,36-16.1l1.9-0.5l0.2,0.2
			C368.1,328.7,365.3,330.1,359.3,332.5z M366.2,326.8l-1.9,0.9c-0.5,0.2-0.9,0.5-1.4,0.5L362,328c-0.7,0-1.2,0.2-1.2,0.9
			c-0.2,0.2-0.5,0.2-0.7,0.2c-1.2,0-2.6,0.5-4.3,1.4c-0.7,0.7-1.4,0.9-1.9,0.9c-0.2,0-0.7,0-1.2,0.2c-0.2,0.2-0.5,0.5-0.9,0.5
			c-0.9,0-1.9,0.5-2.6,1.2l-0.7,0.7c-0.2,0-0.2,0-0.2-0.2v-0.2H348c-0.2,0-0.5,0.2-0.9,0.7c-1.4,1.4-3.1,2.1-4.7,2.1h-0.9l0.7,0.7
			h-1.7c-0.2,0-1.4,0.7-3.1,1.7l-1.2,0.7c-0.2,0.2-0.7,0.5-1.4,0.5l-0.5-0.2v0.5l-0.5,0.7c-0.2,0-0.2,0-0.5,0.2h-0.5
			c-0.7,0.5-1.2,0.7-1.9,0.7c-0.2,0-0.7,0.2-0.9,0.5c-0.9,0.9-2.4,1.4-3.8,2.1l-0.2,0.2c-0.2,0.2-0.5,0.2-0.7,0.2H325v0.2
			c0,0.7-0.9,0-3.1,1.9c-0.9,0.9-1.9,1.4-2.6,1.4c-0.7,0-1.7,0.5-2.8,1.4c-0.7,0.5-0.9,0.7-1.4,0.9v0.5l0.2,0.2l-0.5-0.2
			c-0.2,0-0.9,0.5-1.9,1.2c-1.2,0.7-1.9,1.2-2.4,1.4l-1.2,1.2l-0.2-0.7c-0.5,0.7-1.7,1.7-3.3,2.8l-1.9,1.2c-0.7,0.5-0.9,0.5-1.2,0.5
			c0.2-0.2,2.4-2.1,6.6-5.2l6.2-5c0.7,0,2.8-0.5,3.1-1.2c0-0.9,2.1-2.1,2.8-2.1l0.7,0.2l0.2-0.5l-0.2-0.2c0.5-0.2,0.7-0.2,0.9-0.2
			c0-0.2,0-0.5,0.2-0.7h0.7c0.7,0,1.4-0.2,2.6-0.9l0.5-0.7l-0.2-0.5c1.2,0,3.6-0.2,4-1.4c0-0.2,0.5-0.5,1.2-0.5c1.4,0,2.8-0.9,4-2.6
			c0.5-0.5,0.7-0.7,0.9-0.7l-0.5,0.9l0.9-0.2c0.5-0.5,0.9-0.7,1.2-0.7l0.2-1.2l1.4,0.7c0.2,0,0.2,0,0.5-0.2v-0.7
			c2.4,0,5.7-1.9,7.6-3.1l1.2-0.7l-0.9,0.2c0.2-0.5,0.5-0.7,0.9-0.7l0.7,0.2c1.2,0,7.4-2.8,7.4-3.3H357l-1.7,1.2
			c0.9-0.9,3.6-2.8,4.7-2.8v0.2c0,0.2-0.9,1.7-1.4,1.9c0.2,0,0.5-0.2,0.9-0.7c0.9-0.9,1.7-0.9,1.9-0.9h0.5c0.2-0.5,0.2-0.7,0.5-0.7
			h0.5c0.2,0,0.2,0,0.2,0.2v0.5c0.2,0,0.7-0.2,0.9-0.5c0.2,0,0.5-0.2,0.5-0.7h-0.2l-0.2,0.2v-0.2c0.5-0.7,1.4-1.2,2.6-1.2
			c0.7,0,0.9,0,0.9,0.2l-2.1,0.7v0.2l4.3-0.2C369.8,325.6,368.6,326.1,366.2,326.8z M371,324.7c-0.2,0-0.2,0-0.5-0.2
			c0.2-0.7,1.2-0.5,1.2-0.2C371.4,324.2,371.4,324.7,371,324.7z M417,319.4c-0.9,0.2-4,0.2-5.2,0.2c-9.7,0-16.1,0.5-19.2,1.7
			c-0.7,0.2-1.4,0.2-1.9,0.2c-0.2,0-0.2,0-0.5,0.2L388,323c-0.2,0-0.5,0-0.5-0.2v-0.5c0-0.9,4-1.9,4.7-1.9l0.2-0.2l7.8-0.9
			c5-0.2,9-0.2,12.6-0.2c3.6,0,5.5,0,5.9,0.2C418.6,319.4,418.1,319.4,417,319.4z M423.4,320.9c-0.2,0-0.2,0-0.2-0.2l0.2-0.9
			l0.5,0.7L423.4,320.9z M442.3,324c-5.2-2.6-10-5-14.9-5.2c-1.2-0.2-1.7-0.2-1.7-0.5c-0.2-0.2-0.2-0.2-0.5-0.2
			c0.2,0-1.2-0.2-1.7-0.2c-2.1-1.4-6.9-1.4-9.5-1.4l-1.7,0.2l-0.2,0.2c-0.2,0.2-0.2,0.2-0.5,0.2c-0.2,0-0.5,0-0.7-0.2
			c-0.5-0.2-0.7-0.2-0.7-0.2c-0.2,0-0.5,0-0.9,0.2v0.2l-0.2-0.2v-0.2c0-0.2-0.9-0.2-2.8-0.2c-1.7,0-3.3,0.2-4.5,0.5l-0.2,0.2
			l2.4,0.2c2.1,0,3.1,0,3.1,0.2l-5.5,0.7c-2.4,0-4.3,0.2-5.7,0.5c-1.2,0-2.4,0.2-3.1,0.5l-5.5,0.5l1.4-0.7c0.9-0.5,1.7-0.2,2.1-0.2
			l8.5-1.2c0.2,0,0.5,0,0.7-0.2l0.2-0.2l-0.9-0.2c-3.8,0-7.8,0.7-11.4,1.7l1.4-0.9c0.7-0.5,1.2-0.2,1.7-0.2
			c7.1-1.7,13.8-2.6,19.7-2.6c10,0,20.4,1.9,29.2,7.1c2.6,1.7,3.8,2.6,3.8,2.8L442.3,324z M443.8,373.5c-0.2,0.2-0.2,0.2-0.5,0.2
			c0.2-0.7,0.5-1.2,0.7-1.2c0.2,0,0.2,0,0.2,0.2L443.8,373.5z M393,425.9v0.2l-0.2,0.2h-2.1l2.4-1.7c1.2-0.9,2.1-1.2,2.4-1.2
			C394,424.7,393.3,425.7,393,425.9z M400.8,419.5l-1.7,0.7c-0.5,0.2-0.7,0.5-0.9,0.5l1.2-0.9c0-0.2,0.7-0.7,0.9-0.7l0.7-0.2h0.5
			L400.8,419.5z M408.4,413.1c-0.2,0.7-0.9,0.9-1.7,1.9l-1.7,1.2l0.2-0.2c0.2-0.7,0.9-1.4,1.7-1.9l1.7-1.2L408.4,413.1z
			 M446.8,370.7c0,0.2-0.5,0.7-0.7,0.7c-0.2,0-0.5,0-0.5-0.2c0.2-0.7,0.7-1.4,0.9-1.7c0.2,0,0.2,0.2,0.2,0.7V370.7z"/>
		<polygon fill="#1A0B0C" points="419.8,407.2 419.1,407.6 420,407.6 420.5,407.2 		"/>
		<path fill="#1A0B0C" d="M345.1,388.9h0.2c0.7,0,1.2-0.5,1.2-1.2v-0.2l-1.2,0.9C345.1,388.7,345.1,388.7,345.1,388.9z"/>
		<path fill="#1A0B0C" d="M348.7,366.2c-0.2,0-0.5,0.5-0.7,1.2h0.2l0.7-1.2H348.7z"/>
		<path fill="#1A0B0C" d="M339,387c0,0.7-0.2,1.7-0.2,1.7l0.5-0.9c0.7-1.4,1.2-2.1,1.2-2.4c0.5,0,0.7-0.2,0.7-0.5l-0.5-0.2
			c-0.2,0-0.5,0.2-0.7,0.7C339.7,385.6,339.2,386.3,339,387z"/>
		<path fill="#1A0B0C" d="M432.4,390.8L432.4,390.8C432.4,390.8,432.4,390.8,432.4,390.8L432.4,390.8z"/>
		<path fill="#1A0B0C" d="M432.1,391.3c0-0.2,0.2-0.5,0.2-0.5l-0.7,0.7C431.9,391.5,431.9,391.5,432.1,391.3z"/>
		<path fill="#1A0B0C" d="M355.6,352.4v-0.9c-0.2,0-0.2,0.2-0.5,0.5v0.5h0.2v0.2C355.6,352.6,355.6,352.6,355.6,352.4z"/>
		<path fill="#1A0B0C" d="M352,360.5c-0.2,0-0.2,0.2-0.5,0.5c-0.2,0.5-0.7,0.9-1.2,1.2l-0.2,0.5C350.6,362.6,352,360.9,352,360.5z"
			/>
		<path fill="#1A0B0C" d="M354.1,356.9v-0.5c-0.5,0-0.7,0.7-0.9,1.4h0.2c0.2,0,0.2,0,0.5-0.2C353.9,357.4,354.1,357.1,354.1,356.9z"
			/>
		<path fill="#1A0B0C" d="M308.6,445.8h-0.7c-0.5,0-0.9,0.2-1.2,0.9l0.5,0.5l0.5-0.2C308.6,446.5,308.6,446.1,308.6,445.8z"/>
		<path fill="#1A0B0C" d="M323.8,415.7l-0.2-0.2l-0.9,0.5l-0.5,0.9c0.2,0,0.5,0,0.7-0.2L323.8,415.7z"/>
		<path fill="#1A0B0C" d="M321.4,416.7c0.2,0,0.2-0.5,0.2-0.5l0.2-0.2v-0.5c-0.2,0-0.2,0-0.5,0.2c-0.2,0-0.2,0.5-0.2,0.7
			c-0.2,0.2-0.2,0.2-0.2,0.5h0.2L321.4,416.7z"/>
		<path fill="#1A0B0C" d="M325.2,411.4l0.2,0.5c0.2,0,0.5-0.2,0.7-0.7l0.9-1.4c0.2-0.2,0.2-0.7,0.5-1.2l-0.5-0.2l-0.9,1.4
			c0,0.2-0.2,0.7-0.5,0.9C325.7,410.7,325.4,411.2,325.2,411.4z"/>
		<path fill="#1A0B0C" d="M321.9,418.6c-0.7,0-0.9,0.2-1.2,0.9v0.7C320.9,420.2,321.2,419.7,321.9,418.6z"/>
		<path fill="#1A0B0C" d="M325.2,412.9l-0.5-0.7c-0.5,0.2-0.5,0.2-0.5,0.5v0.7h0.2L325.2,412.9z"/>
		<path fill="#1A0B0C" d="M323.8,412.4v-0.7l-0.5,0.9c-0.2,0.2-0.2,0.5-0.2,0.7h0.2L323.8,412.4z"/>
		<path fill="#1A0B0C" d="M325.9,408.8v-0.7c-0.2,0-0.2,0-0.5,0.2l-0.5,0.5l0.5,0.2C325.7,409.1,325.7,409.1,325.9,408.8z"/>
		<path fill="#1A0B0C" d="M309.3,443l0.2-0.2v-0.2l-0.2-0.2c-0.2,0-0.2,0-0.2-0.2l-0.2,0.2l0.2,0.9
			C309.3,443.2,309.3,443.2,309.3,443z"/>
		<path fill="#1A0B0C" d="M320.5,421.2l-0.2-0.2c-0.5,0-0.7,0.2-0.7,0.5v0.2c0,0.2,0.2,0.2,0.5,0.2
			C320.2,421.9,320.5,421.6,320.5,421.2z"/>
		<path fill="#1A0B0C" d="M315.2,430.6c-0.2,0-0.5,0.2-0.7,0.9c-0.2,0.2-0.7,1.9-0.9,2.1l-0.5,1.9l0.9-1.4L315.2,430.6z"/>
		<path fill="#1A0B0C" d="M312.2,437.5c0.2,0,0.2,0,0.2-0.2c0-0.2-0.2-0.5-0.5-0.5c-0.2,0-0.2,0-0.5,0.2l-0.5,0.7v2.4
			c0.5,0,0.7-1.2,0.7-1.4L312.2,437.5z"/>
		<path fill="#1A0B0C" d="M310.3,441.8c0.2,0,0.2-0.2,0.2-0.5l-0.2-0.7h-0.5c0.2,0.7,0.2,1.2,0.2,1.2H310.3z"/>
		<path fill="#1A0B0C" d="M319.7,423.1v-0.2c0-0.2-0.2-0.5-0.5-0.5H319v0.2l0.2,0.5H319.7z"/>
		<path fill="#1A0B0C" d="M319.3,347.2l0.9-0.2l0.9-0.9C320.9,346,319.3,346.9,319.3,347.2z"/>
		<path fill="#1A0B0C" d="M318.3,422.6l0.5-1.2l-0.9,0.9c-0.2,0.2-0.2,0.5-0.2,0.5l0.2,0.2L318.3,422.6z"/>
		<path fill="#1A0B0C" d="M316.2,427.1l0.7,0.9c0.5-0.5,0.7-0.7,1.2-1.2c0.2-0.2,0.2-0.7,0.5-1.4v-1.2c0-0.2,0-0.5-0.2-0.5v0.7
			c-0.2,0.2-0.2,0.2-0.5,0.2c0,0-0.5-0.5-0.7-0.9v1.4c0.2,0.2,0.5,0.5,0.5,0.9c0,0.2-0.2,0.7-0.5,0.9c0,0-0.2-0.2-0.5-0.2l-0.2-0.5
			c-0.7,0-0.9,0.2-1.2,0.7v0.2c0,0.2,0,0.2,0.2,0.2L316.2,427.1z"/>
	</g>
	<path fill="#6A1D0F" d="M232.3,607.3V488.9h73v117.5c0,25.5,11,38,33.1,38c22.1,0,33.1-12.3,33.1-36.5V488.9h73v116.9
		c0,68.1-35.6,102.2-106.8,102.2C267.6,708,232.3,674.5,232.3,607.3z M340.9,425.4l70.9,16l-49.1,35.3h-51.2L340.9,425.4z"/>
	<path fill="#6A1D0F" d="M545.4,488.9h71.8v80.4l61.1-80.4h83.5l-74.9,93.3l76.4,121.5h-85.6l-42-68.1L617.2,658v45.7h-71.8V488.9z"
		/>
	<path fill="#6A1D0F" d="M824,627.6l-81-138.7h80.4l36.8,70.6l37.1-70.6h79.5l-81,137.8v77H824V627.6z"/>
</g>
</svg>
